{
.appVersion = "1343";
DisplayStrings = (
"AÆ/a.sc/ae.sc"
);
classes = (
{
automatic = 1;

glyphs = (
{
glyphname = A;
layers = (
{
anchors = (
{
name = bottom;
position = "{330, 0}";
},
{
name = ogonek;
position = "{634, 0}";
},
{
name = top;
position = "{330, 660}";
},
{
name = top_ring;
position = "{331, 535}";
}
);
background = {
paths = (
{
closed = 1;
nodes = (
"110 0 LINE",
"299 495 LINE",
"328 584 LINE",
"330 584 LINE",
"361 492 LINE",
"549 0 LINE",
"634 0 LINE",
"378 660 LINE",
"283 660 LINE",
"26 0 LINE"
);
},
{
closed = 1;
nodes = (
"505 183 LINE",
"505 258 LINE",
"152 258 LINE",
"152 183 LINE"
);
}
);
};
layerId = "4A17B37A-CBFD-40E5-9E02-2080A0E1F76C";
paths = (
{
closed = 1;
nodes = (
"378 660 LINE",
"283 660 LINE",
"26 0 LINE",
"110 0 LINE",
"180 183 LINE",
"479 183 LINE",
"549 0 LINE",
"634 0 LINE"
);
},
{
closed = 1;
nodes = (
"329 583 LINE",
"450 258 LINE",
"209 258 LINE"
);
}
);
width = 660;
},
{
anchors = (
{
name = bottom;
position = "{344, 0}";
},
{
name = ogonek;
position = "{699, 0}";
},
{
name = top;
position = "{344, 660}";
},
{
name = top_ring;
position = "{345, 543}";
}
);
background = {
paths = (
{
closed = 1;
nodes = (
"222 0 LINE",
"315 379 LINE",
"341 491 LINE",
"344 491 LINE",
"371 379 LINE",
"461 0 LINE",
"699 0 LINE",
"484 660 LINE",
"204 660 LINE",
"-10 0 LINE"
);
},
{
closed = 1;
nodes = (
"534 126 LINE",
"534 271 LINE",
"157 271 LINE",
"157 126 LINE"
);
}
);
};
layerId = "99EB5860-B45A-4B60-BB0B-F826C8F71D42";
paths = (
{
closed = 1;
nodes = (
"484 660 LINE",
"204 660 LINE",
"-10 0 LINE",
"222 0 LINE",
"253 126 LINE",
"431 126 LINE",
"461 0 LINE",
"699 0 LINE"
);
},
{
closed = 1;
nodes = (
"343 500 LINE",
"397 271 LINE",
"288 271 LINE"
);
}
);
width = 689;
},
{
anchors = (
{
name = bottom;
position = "{293, 0}";
},
{
name = ogonek;
position = "{574, 0}";
},
{
name = top;
position = "{293, 660}";
},
{
name = top_ring;
position = "{293, 571}";
}
);
background = {
paths = (
{
closed = 1;
nodes = (
"29 0 LINE",
"276 597 LINE",
"293 642 LINE",
"293 642 LINE",
"310 596 LINE",
"557 0 LINE",
"574 0 LINE",
"302 660 LINE",
"284 660 LINE",
"12 0 LINE"
);
},
{
closed = 1;
nodes = (
"467 234 LINE",
"467 248 LINE",
"118 248 LINE",
"118 234 LINE"
);
}
);
};
layerId = "1C7CD022-87C7-4E11-B656-E47B18819458";
paths = (
{
closed = 1;
nodes = (
"302 660 LINE",
"284 660 LINE",
"12 0 LINE",
"29 0 LINE",
"126 234 LINE",
"460 234 LINE",
"557 0 LINE",
"574 0 LINE"
);
},
{
closed = 1;
nodes = (
"293 642 LINE",
"454 248 LINE",
"132 248 LINE"
);
}
);
width = 586;
}
);
leftKerningGroup = A;
rightKerningGroup = A;
unicode = 0041;
},
{
glyphname = AE;
layers = (
{
anchors = (
{
name = bottom;
position = "{491, 0}";
},
{
name = ogonek;
position = "{902, 0}";
},
{
name = top;
position = "{491, 660}";
}
);
layerId = "4A17B37A-CBFD-40E5-9E02-2080A0E1F76C";
paths = (
{
closed = 1;
nodes = (
"531 297 LINE",
"802 297 LINE",
"802 372 LINE",
"531 372 LINE",
"531 585 LINE",
"887 585 LINE",
"887 660 LINE",
"392 660 LINE",
"6 0 LINE",
"92 0 LINE",
"215 213 LINE",
"451 213 LINE",
"451 0 LINE",
"902 0 LINE",
"902 75 LINE",
"531 75 LINE"
);
},
{
closed = 1;
nodes = (
"431 585 LINE",
"451 585 LINE",
"451 288 LINE",
"259 288 LINE"
);
}
);
width = 954;
},
{
anchors = (
{
name = bottom;
position = "{508, 0}";
},
{
name = ogonek;
position = "{888, 0}";
},
{
name = top;
position = "{508, 660}";
}
);
layerId = "99EB5860-B45A-4B60-BB0B-F826C8F71D42";
leftMetricsKey = "=A";
paths = (
{
closed = 1;
nodes = (
"615 254 LINE",
"815 254 LINE",
"815 403 LINE",
"615 403 LINE",
"615 499 LINE",
"876 499 LINE",
"876 660 LINE",
"204 660 LINE",
"-10 0 LINE",
"220 0 LINE",
"266 185 LINE",
"401 185 LINE",
"401 0 LINE",
"888 0 LINE",
"888 161 LINE",
"615 161 LINE"
);
},
{
closed = 1;
nodes = (
"345 507 LINE",
"401 507 LINE",
"401 321 LINE",
"299 321 LINE"
);
}
);
width = 904;
},
{
anchors = (
{
name = bottom;
position = "{446, 0}";
},
{
name = ogonek;
position = "{855, 0}";
},
{
name = top;
position = "{446, 660}";
}
);
layerId = "1C7CD022-87C7-4E11-B656-E47B18819458";
paths = (
{
closed = 1;
nodes = (
"454 328 LINE",
"762 328 LINE",
"762 342 LINE",
"454 342 LINE",
"454 646 LINE",
"839 646 LINE",
"839 660 LINE",
"412 660 LINE",
"-8 0 LINE",
"15 0 LINE",
"174 254 LINE",
"438 254 LINE",
"438 0 LINE",
"855 0 LINE",
"855 14 LINE",
"454 14 LINE"
);
},
{
closed = 1;
nodes = (
"420 646 LINE",
"438 646 LINE",
"438 268 LINE",
"183 268 LINE"
);
}
);
width = 885;
}
);
leftKerningGroup = AE;
rightKerningGroup = E;
rightMetricsKey = E;
unicode = 00C6;
},
{
glyphname = B;
layers = (
{
anchors = (
{
name = bottom;
position = "{307, 0}";
},
{
name = ogonek;
position = "{342, 0}";
},
{
name = top;
position = "{307, 660}";
}
);
layerId = "4A17B37A-CBFD-40E5-9E02-2080A0E1F76C";
paths = (
{
closed = 1;
nodes = (
"342 0 LINE SMOOTH",
"498 0 OFFCURVE",
"585 73 OFFCURVE",
"585 185 CURVE SMOOTH",
"585 257 OFFCURVE",
"535 320 OFFCURVE",
"457 335 CURVE",
"457 336 LINE",
"528 350 OFFCURVE",
"568 411 OFFCURVE",
"568 478 CURVE SMOOTH",
"568 590 OFFCURVE",
"499 660 OFFCURVE",
"343 660 CURVE SMOOTH",
"108 660 LINE",
"108 0 LINE"
);
},
{
closed = 1;
nodes = (
"188 295 LINE",
"361 295 LINE SMOOTH",
"455 295 OFFCURVE",
"501 255 OFFCURVE",
"501 185 CURVE SMOOTH",
"501 115 OFFCURVE",
"455 75 OFFCURVE",
"361 75 CURVE SMOOTH",
"188 75 LINE"
);
},
{
closed = 1;
nodes = (
"188 585 LINE",
"344 585 LINE SMOOTH",
"438 585 OFFCURVE",
"484 550 OFFCURVE",
"484 478 CURVE SMOOTH",
"484 405 OFFCURVE",
"438 370 OFFCURVE",
"344 370 CURVE SMOOTH",
"188 370 LINE"
);
}
);
width = 653;
},
{
anchors = (
{
name = bottom;
position = "{327, 0}";
},
{
name = ogonek;
position = "{422, 0}";
},
{
name = top;
position = "{327, 660}";
}
);
layerId = "99EB5860-B45A-4B60-BB0B-F826C8F71D42";
paths = (
{
closed = 1;
nodes = (
"454 0 LINE SMOOTH",
"615 0 OFFCURVE",
"692 58 OFFCURVE",
"692 174 CURVE SMOOTH",
"692 259 OFFCURVE",
"641 319 OFFCURVE",
"526 331 CURVE",
"526 332 LINE",
"628 346 OFFCURVE",
"675 405 OFFCURVE",
"675 484 CURVE SMOOTH",
"675 601 OFFCURVE",
"595 659 OFFCURVE",
"428 660 CURVE SMOOTH",
"50 660 LINE",
"50 0 LINE"
);
},
{
closed = 1;
nodes = (
"273 248 LINE",
"392 248 LINE SMOOTH",
"433 248 OFFCURVE",
"454 231 OFFCURVE",
"454 201 CURVE SMOOTH",
"454 169 OFFCURVE",
"433 152 OFFCURVE",
"392 152 CURVE SMOOTH",
"273 152 LINE"
);
},
{
closed = 1;
nodes = (
"273 500 LINE",
"377 500 LINE SMOOTH",
"417 500 OFFCURVE",
"437 483 OFFCURVE",
"437 452 CURVE SMOOTH",
"437 421 OFFCURVE",
"417 404 OFFCURVE",
"377 404 CURVE SMOOTH",
"273 404 LINE"
);
}
);
width = 704;
},
{
anchors = (
{
name = bottom;
position = "{297, 0}";
},
{
name = ogonek;
position = "{331, 0}";
},
{
name = top;
position = "{297, 660}";
}
);
hints = (
{
horizontal = 1;
origin = "{0, 15}";
target = "{1, 8}";
type = Stem;
},
{
horizontal = 1;
origin = "{0, 14}";
target = "{2, 0}";
type = Stem;
},
{
origin = "{0, 15}";
target = "{1, 8}";
type = Stem;
},
{
horizontal = 1;
origin = "{1, 1}";
target = "{2, 7}";
type = Stem;
}
);
layerId = "1C7CD022-87C7-4E11-B656-E47B18819458";
paths = (
{
closed = 1;
nodes = (
"331 0 LINE SMOOTH",
"476 0 OFFCURVE",
"552 58 OFFCURVE",
"552 169 CURVE SMOOTH",
"552 263 OFFCURVE",
"496 320 OFFCURVE",
"401 333 CURVE",
"401 334 LINE",
"490 353 OFFCURVE",
"533 407 OFFCURVE",
"533 493 CURVE SMOOTH",
"533 603 OFFCURVE",
"464 660 OFFCURVE",
"331 660 CURVE SMOOTH",
"99 660 LINE",
"99 0 LINE"
);
},
{
closed = 1;
nodes = (
"115 326 LINE",
"331 326 LINE SMOOTH",
"466 326 OFFCURVE",
"536 274 OFFCURVE",
"536 170 CURVE SMOOTH",
"536 67 OFFCURVE",
"466 14 OFFCURVE",
"331 14 CURVE SMOOTH",
"115 14 LINE"
);
},
{
closed = 1;
nodes = (
"115 646 LINE",
"331 646 LINE SMOOTH",
"453 646 OFFCURVE",
"517 593 OFFCURVE",
"517 492 CURVE SMOOTH",
"517 391 OFFCURVE",
"453 340 OFFCURVE",
"331 340 CURVE SMOOTH",
"115 340 LINE"
);
}
);
width = 609;
}
);
leftKerningGroup = I;
leftMetricsKey = H;
unicode = 0042;
},
{
glyphname = C;
layers = (
{
anchors = (
{
name = bottom;
position = "{372, 0}";
},
{
name = ogonek;
position = "{454, 0}";
},
{
name = top;
position = "{372, 660}";
}
);
layerId = "4A17B37A-CBFD-40E5-9E02-2080A0E1F76C";
paths = (
{
closed = 1;
nodes = (
"560 199 LINE",
"531 110 OFFCURVE",
"462 65 OFFCURVE",
"374 65 CURVE SMOOTH",
"237 65 OFFCURVE",
"152 164 OFFCURVE",
"152 330 CURVE SMOOTH",
"152 497 OFFCURVE",
"243 595 OFFCURVE",
"378 595 CURVE SMOOTH",
"466 595 OFFCURVE",
"520 555 OFFCURVE",
"549 479 CURVE",
"628 516 LINE",
"586 616 OFFCURVE",
"500 670 OFFCURVE",
"372 670 CURVE SMOOTH",
"188 670 OFFCURVE",
"68 539 OFFCURVE",
"68 330 CURVE SMOOTH",
"68 121 OFFCURVE",
"186 -10 OFFCURVE",
"374 -10 CURVE SMOOTH",
"498 -10 OFFCURVE",
"598 56 OFFCURVE",
"640 169 CURVE"
);
}
);
width = 686;
},
{
anchors = (
{
name = bottom;
position = "{348, 0}";
},
{
name = ogonek;
position = "{465, 0}";
},
{
name = top;
position = "{356, 660}";
}
);
layerId = "99EB5860-B45A-4B60-BB0B-F826C8F71D42";
paths = (
{
closed = 1;
nodes = (
"464 255 LINE",
"456 192 OFFCURVE",
"424 165 OFFCURVE",
"376 165 CURVE SMOOTH",
"296 165 OFFCURVE",
"267 217 OFFCURVE",
"267 330 CURVE SMOOTH",
"267 444 OFFCURVE",
"302 495 OFFCURVE",
"371 495 CURVE SMOOTH",
"420 495 OFFCURVE",
"454 478 OFFCURVE",
"465 392 CURVE",
"665 470 LINE",
"637 611 OFFCURVE",
"510 670 OFFCURVE",
"365 670 CURVE SMOOTH",
"156 670 OFFCURVE",
"29 546 OFFCURVE",
"29 330 CURVE SMOOTH",
"29 114 OFFCURVE",
"156 -10 OFFCURVE",
"365 -10 CURVE SMOOTH",
"516 -10 OFFCURVE",
"633 47 OFFCURVE",
"670 202 CURVE"
);
}
);
width = 677;
},
{
anchors = (
{
name = bottom;
position = "{339, 0}";
},
{
name = ogonek;
position = "{434, 0}";
},
{
name = top;
position = "{339, 660}";
}
);
layerId = "1C7CD022-87C7-4E11-B656-E47B18819458";
paths = (
{
closed = 1;
nodes = (
"595 171 LINE",
"564 65 OFFCURVE",
"475 4 OFFCURVE",
"349 4 CURVE SMOOTH",
"184 4 OFFCURVE",
"72 130 OFFCURVE",
"72 330 CURVE SMOOTH",
"72 530 OFFCURVE",
"183 656 OFFCURVE",
"349 656 CURVE SMOOTH",
"478 656 OFFCURVE",
"557 601 OFFCURVE",
"590 489 CURVE",
"605 496 LINE",
"572 612 OFFCURVE",
"488 670 OFFCURVE",
"349 670 CURVE SMOOTH",
"173 670 OFFCURVE",
"56 539 OFFCURVE",
"56 330 CURVE SMOOTH",
"56 121 OFFCURVE",
"174 -10 OFFCURVE",
"349 -10 CURVE SMOOTH",
"482 -10 OFFCURVE",
"577 54 OFFCURVE",
"610 165 CURVE"
);
}
);
width = 649;
}
);
leftKerningGroup = O;
leftMetricsKey = O;
rightKerningGroup = C;
unicode = 0043;
},
{
glyphname = D;
layers = (
{
anchors = (
{
name = bottom;
position = "{346, 0}";
},
{
name = center;
position = "{366, 330}";
},
{
name = ogonek;
position = "{331, 0}";
},
{
name = top;
position = "{365, 660}";
}
);
layerId = "4A17B37A-CBFD-40E5-9E02-2080A0E1F76C";
paths = (
{
closed = 1;
nodes = (
"108 660 LINE",
"108 0 LINE",
"321 0 LINE SMOOTH",
"528 0 OFFCURVE",
"653 118 OFFCURVE",
"653 330 CURVE SMOOTH",
"653 542 OFFCURVE",
"528 660 OFFCURVE",
"321 660 CURVE SMOOTH"
);
},
{
closed = 1;
nodes = (
"188 75 LINE",
"188 585 LINE",
"329 585 LINE SMOOTH",
"480 585 OFFCURVE",
"569 490 OFFCURVE",
"569 330 CURVE SMOOTH",
"569 170 OFFCURVE",
"480 75 OFFCURVE",
"329 75 CURVE SMOOTH"
);
}
);
width = 721;
},
{
anchors = (
{
name = bottom;
position = "{331, 0}";
},
{
name = center;
position = "{15, 14}";
},
{
name = ogonek;
position = "{374, 0}";
},
{
name = top;
position = "{331, 660}";
}
);
layerId = "99EB5860-B45A-4B60-BB0B-F826C8F71D42";
paths = (
{
closed = 1;
nodes = (
"50 660 LINE",
"50 0 LINE",
"374 0 LINE SMOOTH",
"581 0 OFFCURVE",
"687 120 OFFCURVE",
"687 330 CURVE SMOOTH",
"687 540 OFFCURVE",
"581 660 OFFCURVE",
"374 660 CURVE SMOOTH"
);
},
{
closed = 1;
nodes = (
"283 166 LINE",
"283 494 LINE",
"341 494 LINE SMOOTH",
"427 494 OFFCURVE",
"449 443 OFFCURVE",
"449 330 CURVE SMOOTH",
"449 217 OFFCURVE",
"427 166 OFFCURVE",
"341 166 CURVE SMOOTH"
);
}
);
width = 716;
},
{
anchors = (
{
name = bottom;
position = "{309, 0}";
},
{
name = center;
position = "{355, 330}";
},
{
name = ogonek;
position = "{302, 0}";
},
{
name = top;
position = "{309, 660}";
}
);
layerId = "1C7CD022-87C7-4E11-B656-E47B18819458";
paths = (
{
closed = 1;
nodes = (
"99 660 LINE",
"99 0 LINE",
"302 0 LINE SMOOTH",
"516 0 OFFCURVE",
"627 117 OFFCURVE",
"627 340 CURVE SMOOTH",
"627 550 OFFCURVE",
"516 660 OFFCURVE",
"302 660 CURVE SMOOTH"
);
},
{
closed = 1;
nodes = (
"115 14 LINE",
"115 646 LINE",
"302 646 LINE SMOOTH",
"505 646 OFFCURVE",
"611 541 OFFCURVE",
"611 340 CURVE SMOOTH",
"611 126 OFFCURVE",
"505 14 OFFCURVE",
"302 14 CURVE SMOOTH"
);
}
);
width = 683;
}
);
leftKerningGroup = I;
rightKerningGroup = O;
rightMetricsKey = O;
unicode = 0044;
},
{
glyphname = Dcroat;
layers = (
{
components = (
{
name = D;
transform = "{1, 0, 0, 1, 16, 0}";
}
);
layerId = "4A17B37A-CBFD-40E5-9E02-2080A0E1F76C";
paths = (
{
closed = 1;
nodes = (
"401 296 LINE",
"401 371 LINE",
"26 371 LINE",
"26 296 LINE"
);
}
);
width = 737;
},
{
components = (
{
name = D;
transform = "{1, 0, 0, 1, 28, 0}";
}
);
layerId = "99EB5860-B45A-4B60-BB0B-F826C8F71D42";
paths = (
{
closed = 1;
nodes = (
"397 253 LINE",
"397 403 LINE",
"4 403 LINE",
"4 253 LINE"
);
}
);
width = 744;
},
{
components = (
{
alignment = -1;
name = D;
transform = "{1, 0, 0, 1, 8, 0}";
}
);
layerId = "1C7CD022-87C7-4E11-B656-E47B18819458";
paths = (
{
closed = 1;
nodes = (
"330 327 LINE",
"330 341 LINE",
"5 341 LINE",
"5 327 LINE"
);
}
);
width = 691;
}
);
leftKerningGroup = I;
rightKerningGroup = O;
rightMetricsKey = D;
unicode = 0110;
},
{
glyphname = E;
layers = (
{
anchors = (
{
name = bottom;
position = "{350, 0}";
},
{
name = ogonek;
position = "{586, 0}";
},
{
name = top;
position = "{340, 660}";
}
);
layerId = "4A17B37A-CBFD-40E5-9E02-2080A0E1F76C";
paths = (
{
closed = 1;
nodes = (
"586 0 LINE",
"586 75 LINE",
"188 75 LINE",
"188 297 LINE",
"486 297 LINE",
"486 372 LINE",
"188 372 LINE",
"188 585 LINE",
"571 585 LINE",
"571 660 LINE",
"108 660 LINE",
"108 0 LINE"
);
}
);
width = 638;
},
{
anchors = (
{
name = bottom;
position = "{338, 0}";
},
{
name = ogonek;
position = "{611, 0}";
},
{
name = top;
position = "{324, 660}";
}
);
layerId = "99EB5860-B45A-4B60-BB0B-F826C8F71D42";
leftMetricsKey = "=I";
paths = (
{
closed = 1;
nodes = (
"610 0 LINE",
"610 171 LINE",
"283 171 LINE",
"283 249 LINE",
"537 249 LINE",
"537 407 LINE",
"283 407 LINE",
"283 489 LINE",
"598 489 LINE",
"598 660 LINE",
"50 660 LINE",
"50 0 LINE"
);
}
);
width = 626;
},
{
anchors = (
{
name = bottom;
position = "{333, 0}";
},
{
name = ogonek;
position = "{553, 0}";
},
{
name = top;
position = "{318, 660}";
}
);
layerId = "1C7CD022-87C7-4E11-B656-E47B18819458";
paths = (
{
closed = 1;
nodes = (
"553 0 LINE",
"553 14 LINE",
"115 14 LINE",
"115 330 LINE",
"453 330 LINE",
"453 344 LINE",
"115 344 LINE",
"115 646 LINE",
"536 646 LINE",
"536 660 LINE",
"99 660 LINE",
"99 0 LINE"
);
}
);
width = 583;
}
);
leftKerningGroup = I;
rightKerningGroup = E;
unicode = 0045;
},
{
glyphname = F;
layers = (
{
anchors = (
{
name = bottom;
position = "{148, 0}";
},
{
name = ogonek;
position = "{188, 0}";
},
{
name = top;
position = "{335, 660}";
}
);
layerId = "4A17B37A-CBFD-40E5-9E02-2080A0E1F76C";
paths = (
{
closed = 1;
nodes = (
"570 660 LINE",
"108 660 LINE",
"108 0 LINE",
"188 0 LINE",
"188 297 LINE",
"486 297 LINE",
"486 372 LINE",
"188 372 LINE",
"188 585 LINE",
"570 585 LINE"
);
}
);
width = 610;
},
{
anchors = (
{
name = bottom;
position = "{167, 0}";
},
{
name = ogonek;
position = "{283, 0}";
},
{
name = top;
position = "{307, 660}";
}
);
layerId = "99EB5860-B45A-4B60-BB0B-F826C8F71D42";
leftMetricsKey = "=I";
paths = (
{
closed = 1;
nodes = (
"597 660 LINE",
"50 660 LINE",
"50 0 LINE",
"283 0 LINE",
"283 226 LINE",
"537 226 LINE",
"537 397 LINE",
"283 397 LINE",
"283 489 LINE",
"597 489 LINE"
);
}
);
width = 614;
},
{
anchors = (
{
name = bottom;
position = "{107, 0}";
},
{
name = ogonek;
position = "{115, 0}";
},
{
name = top;
position = "{314, 660}";
}
);
layerId = "1C7CD022-87C7-4E11-B656-E47B18819458";
paths = (
{
closed = 1;
nodes = (
"535 660 LINE",
"99 660 LINE",
"99 0 LINE",
"115 0 LINE",
"115 330 LINE",
"453 330 LINE",
"453 344 LINE",
"115 344 LINE",
"115 646 LINE",
"535 646 LINE"
);
}
);
width = 554;
}
);
leftKerningGroup = I;
leftMetricsKey = H;
unicode = 0046;
},
{
glyphname = G;
layers = (
{
anchors = (
{
name = bottom;
position = "{405, 0}";
},
{
name = ogonek;
position = "{454, 0}";
},
{
name = top;
position = "{373, 660}";
}
);
layerId = "4A17B37A-CBFD-40E5-9E02-2080A0E1F76C";
paths = (
{
closed = 1;
nodes = (
"485 -10 OFFCURVE",
"560 37 OFFCURVE",
"595 120 CURVE",
"578 123 LINE",
"582 0 LINE",
"645 0 LINE",
"645 333 LINE",
"362 333 LINE",
"362 258 LINE",
"572 258 LINE",
"572 235 LINE SMOOTH",
"572 121 OFFCURVE",
"487 65 OFFCURVE",
"377 65 CURVE SMOOTH",
"230 65 OFFCURVE",
"152 164 OFFCURVE",
"152 330 CURVE SMOOTH",
"152 496 OFFCURVE",
"247 595 OFFCURVE",
"381 595 CURVE SMOOTH",
"473 595 OFFCURVE",
"538 555 OFFCURVE",
"567 479 CURVE",
"640 519 LINE",
"589 621 OFFCURVE",
"512 670 OFFCURVE",
"381 670 CURVE SMOOTH",
"196 670 OFFCURVE",
"68 539 OFFCURVE",
"68 330 CURVE SMOOTH",
"68 121 OFFCURVE",
"186 -10 OFFCURVE",
"374 -10 CURVE SMOOTH"
);
}
);
width = 724;
},
{
anchors = (
{
name = bottom;
position = "{379, 0}";
},
{
name = ogonek;
position = "{401, 0}";
},
{
name = top;
position = "{364, 660}";
}
);
layerId = "99EB5860-B45A-4B60-BB0B-F826C8F71D42";
paths = (
{
closed = 1;
nodes = (
"445 -10 OFFCURVE",
"517 43 OFFCURVE",
"540 138 CURVE",
"504 177 LINE",
"523 0 LINE",
"677 0 LINE",
"677 372 LINE",
"371 372 LINE",
"371 229 LINE",
"482 229 LINE",
"482 228 LINE SMOOTH",
"482 181 OFFCURVE",
"444 159 OFFCURVE",
"391 159 CURVE SMOOTH",
"306 159 OFFCURVE",
"267 205 OFFCURVE",
"267 330 CURVE SMOOTH",
"267 442 OFFCURVE",
"297 495 OFFCURVE",
"373 495 CURVE SMOOTH",
"420 495 OFFCURVE",
"453 474 OFFCURVE",
"462 411 CURVE",
"679 489 LINE",
"627 616 OFFCURVE",
"534 670 OFFCURVE",
"371 670 CURVE SMOOTH",
"156 670 OFFCURVE",
"29 544 OFFCURVE",
"29 328 CURVE SMOOTH",
"29 103 OFFCURVE",
"157 -10 OFFCURVE",
"328 -10 CURVE SMOOTH"
);
}
);
width = 722;
},
{
anchors = (
{
name = bottom;
position = "{351, 0}";
},
{
name = ogonek;
position = "{430, 0}";
},
{
name = top;
position = "{343, 660}";
}
);
layerId = "1C7CD022-87C7-4E11-B656-E47B18819458";
paths = (
{
closed = 1;
nodes = (
"482 -10 OFFCURVE",
"567 59 OFFCURVE",
"595 164 CURVE",
"594 166 LINE",
"594 0 LINE",
"610 0 LINE",
"610 311 LINE",
"353 311 LINE",
"353 297 LINE",
"594 297 LINE",
"594 244 LINE SMOOTH",
"594 157 OFFCURVE",
"545 4 OFFCURVE",
"355 4 CURVE SMOOTH",
"180 4 OFFCURVE",
"72 130 OFFCURVE",
"72 330 CURVE SMOOTH",
"72 530 OFFCURVE",
"183 656 OFFCURVE",
"349 656 CURVE SMOOTH",
"479 656 OFFCURVE",
"558 601 OFFCURVE",
"591 489 CURVE",
"605 496 LINE",
"572 612 OFFCURVE",
"488 670 OFFCURVE",
"349 670 CURVE SMOOTH",
"173 670 OFFCURVE",
"56 539 OFFCURVE",
"56 330 CURVE SMOOTH",
"56 121 OFFCURVE",
"170 -10 OFFCURVE",
"355 -10 CURVE SMOOTH"
);
}
);
width = 676;
}
);
leftKerningGroup = O;
leftMetricsKey = O;
rightKerningGroup = G;
unicode = 0047;
},
{
glyphname = H;
layers = (
{
anchors = (
{
name = bottom;
position = "{367, 0}";
},
{
name = ogonek;
position = "{626, 0}";
},
{
name = top;
position = "{367, 660}";
}
);
layerId = "4A17B37A-CBFD-40E5-9E02-2080A0E1F76C";
paths = (
{
closed = 1;
nodes = (
"546 660 LINE",
"546 0 LINE",
"626 0 LINE",
"626 660 LINE"
);
},
{
closed = 1;
nodes = (
"108 660 LINE",
"108 0 LINE",
"188 0 LINE",
"188 660 LINE"
);
},
{
closed = 1;
nodes = (
"150 372 LINE",
"150 297 LINE",
"583 297 LINE",
"583 372 LINE"
);
}
);
width = 734;
},
{
anchors = (
{
name = bottom;
position = "{374, 0}";
},
{
name = ogonek;
position = "{708, 0}";
},
{
name = top;
position = "{374, 660}";
}
);
layerId = "99EB5860-B45A-4B60-BB0B-F826C8F71D42";
paths = (
{
closed = 1;
nodes = (
"464 660 LINE",
"464 0 LINE",
"697 0 LINE",
"697 660 LINE"
);
},
{
closed = 1;
nodes = (
"50 660 LINE",
"50 0 LINE",
"283 0 LINE",
"283 660 LINE"
);
},
{
closed = 1;
nodes = (
"162 417 LINE",
"162 246 LINE",
"593 246 LINE",
"593 417 LINE"
);
}
);
width = 747;
},
{
anchors = (
{
name = bottom;
position = "{348, 0}";
},
{
name = ogonek;
position = "{597, 0}";
},
{
name = top;
position = "{348, 660}";
}
);
layerId = "1C7CD022-87C7-4E11-B656-E47B18819458";
paths = (
{
closed = 1;
nodes = (
"581 660 LINE",
"581 0 LINE",
"597 0 LINE",
"597 660 LINE"
);
},
{
closed = 1;
nodes = (
"99 660 LINE",
"99 0 LINE",
"115 0 LINE",
"115 660 LINE"
);
},
{
closed = 1;
nodes = (
"107 344 LINE",
"107 330 LINE",
"590 330 LINE",
"590 344 LINE"
);
}
);
width = 696;
}
);
leftKerningGroup = I;
rightKerningGroup = I;
unicode = 0048;
},
{
glyphname = I;
layers = (
{
anchors = (
{
name = bottom;
position = "{148, 0}";
},
{
name = ogonek;
position = "{188, 0}";
},
{
name = top;
position = "{148, 660}";
}
);
layerId = "4A17B37A-CBFD-40E5-9E02-2080A0E1F76C";
paths = (
{
closed = 1;
nodes = (
"108 660 LINE",
"108 0 LINE",
"188 0 LINE",
"188 660 LINE"
);
}
);
width = 296;
},
{
anchors = (
{
name = bottom;
position = "{167, 0}";
},
{
name = ogonek;
position = "{283, 0}";
},
{
name = top;
position = "{166, 660}";
}
);
layerId = "99EB5860-B45A-4B60-BB0B-F826C8F71D42";
paths = (
{
closed = 1;
nodes = (
"50 660 LINE",
"50 0 LINE",
"283 0 LINE",
"283 660 LINE"
);
}
);
width = 333;
},
{
anchors = (
{
name = bottom;
position = "{107, 0}";
},
{
name = ogonek;
position = "{115, 0}";
},
{
name = top;
position = "{107, 660}";
}
);
layerId = "1C7CD022-87C7-4E11-B656-E47B18819458";
paths = (
{
closed = 1;
nodes = (
"99 660 LINE",
"99 0 LINE",
"115 0 LINE",
"115 660 LINE"
);
}
);
width = 214;
}
);
leftKerningGroup = I;
leftMetricsKey = H;
rightKerningGroup = I;
rightMetricsKey = H;
unicode = 0049;
},
{
glyphname = Idieresis;
layers = (
{
components = (
{
name = I;
}
);
hints = (
{
horizontal = 1;
origin = "{0, 5}";
target = "{0, 11}";
type = Stem;
}
);
layerId = "4A17B37A-CBFD-40E5-9E02-2080A0E1F76C";
paths = (
{
closed = 1;
nodes = (
"28 856 OFFCURVE",
"5 833 OFFCURVE",
"5 799 CURVE SMOOTH",
"5 765 OFFCURVE",
"28 742 OFFCURVE",
"62 742 CURVE SMOOTH",
"96 742 OFFCURVE",
"119 765 OFFCURVE",
"119 799 CURVE SMOOTH",
"119 833 OFFCURVE",
"96 856 OFFCURVE",
"62 856 CURVE SMOOTH"
);
},
{
closed = 1;
nodes = (
"200 856 OFFCURVE",
"177 833 OFFCURVE",
"177 799 CURVE SMOOTH",
"177 765 OFFCURVE",
"200 742 OFFCURVE",
"234 742 CURVE SMOOTH",
"268 742 OFFCURVE",
"291 765 OFFCURVE",
"291 799 CURVE SMOOTH",
"291 833 OFFCURVE",
"268 856 OFFCURVE",
"234 856 CURVE SMOOTH"
);
}
);
width = 296;
},
{
components = (
{
name = I;
}
);
layerId = "99EB5860-B45A-4B60-BB0B-F826C8F71D42";
paths = (
{
closed = 1;
nodes = (
"-10 880 OFFCURVE",
"-46 847 OFFCURVE",
"-46 789 CURVE SMOOTH",
"-46 731 OFFCURVE",
"-10 698 OFFCURVE",
"52 698 CURVE SMOOTH",
"116 698 OFFCURVE",
"154 731 OFFCURVE",
"154 789 CURVE SMOOTH",
"154 847 OFFCURVE",
"116 880 OFFCURVE",
"52 880 CURVE SMOOTH"
);
},
{
closed = 1;
nodes = (
"215 880 OFFCURVE",
"179 847 OFFCURVE",
"179 789 CURVE SMOOTH",
"179 731 OFFCURVE",
"215 698 OFFCURVE",
"277 698 CURVE SMOOTH",
"341 698 OFFCURVE",
"379 731 OFFCURVE",
"379 789 CURVE SMOOTH",
"379 847 OFFCURVE",
"341 880 OFFCURVE",
"277 880 CURVE SMOOTH"
);
}
);
width = 333;
},
{
components = (
{
alignment = -1;
name = I;
}
);
layerId = "1C7CD022-87C7-4E11-B656-E47B18819458";
paths = (
{
closed = 1;
nodes = (
"35 802 OFFCURVE",
"26 793 OFFCURVE",
"26 780 CURVE SMOOTH",
"26 767 OFFCURVE",
"35 758 OFFCURVE",
"48 758 CURVE SMOOTH",
"61 758 OFFCURVE",
"70 767 OFFCURVE",
"70 780 CURVE SMOOTH",
"70 793 OFFCURVE",
"61 802 OFFCURVE",
"48 802 CURVE SMOOTH"
);
},
{
closed = 1;
nodes = (
"153 802 OFFCURVE",
"144 793 OFFCURVE",
"144 780 CURVE SMOOTH",
"144 767 OFFCURVE",
"153 758 OFFCURVE",
"166 758 CURVE SMOOTH",
"179 758 OFFCURVE",
"188 767 OFFCURVE",
"188 780 CURVE SMOOTH",
"188 793 OFFCURVE",
"179 802 OFFCURVE",
"166 802 CURVE SMOOTH"
);
}
);
width = 214;
}
);
leftKerningGroup = I;
rightKerningGroup = I;
unicode = 00CF;
},
{
glyphname = Imacron;
layers = (
{
components = (
{
name = I;
}
);
layerId = "4A17B37A-CBFD-40E5-9E02-2080A0E1F76C";
paths = (
{
closed = 1;
nodes = (
"40 823 LINE",
"40 756 LINE",
"256 756 LINE",
"256 823 LINE"
);
}
);
width = 296;
},
{
components = (
{
name = I;
}
);
layerId = "99EB5860-B45A-4B60-BB0B-F826C8F71D42";
paths = (
{
closed = 1;
nodes = (
"1 841 LINE",
"1 711 LINE",
"330 711 LINE",
"330 841 LINE"
);
}
);
width = 333;
},
{
components = (
{
name = I;
}
);
hints = (
{
horizontal = 1;
origin = "{0, 1}";
target = "{0, 0}";
type = Stem;
}
);
layerId = "1C7CD022-87C7-4E11-B656-E47B18819458";
paths = (
{
closed = 1;
nodes = (
"-2 779 LINE",
"-2 765 LINE",
"216 765 LINE",
"216 779 LINE"
);
}
);
width = 214;
}
);
leftKerningGroup = I;
rightKerningGroup = I;
unicode = 012A;
},
{
glyphname = J;
layers = (
{
anchors = (
{
name = bottom;
position = "{256, 0}";
},
{
name = ogonek;
position = "{310, 0}";
},
{
name = top;
position = "{425, 660}";
}
);
layerId = "4A17B37A-CBFD-40E5-9E02-2080A0E1F76C";
paths = (
{
closed = 1;
nodes = (
"385 660 LINE",
"385 246 LINE SMOOTH",
"385 128 OFFCURVE",
"351 65 OFFCURVE",
"238 65 CURVE SMOOTH",
"138 65 OFFCURVE",
"106 120 OFFCURVE",
"121 233 CURVE",
"47 218 LINE",
"21 79 OFFCURVE",
"93 -10 OFFCURVE",
"241 -10 CURVE SMOOTH",
"381 -10 OFFCURVE",
"465 78 OFFCURVE",
"465 226 CURVE SMOOTH",
"465 660 LINE"
);
}
);
width = 566;
},
{
anchors = (
{
name = bottom;
position = "{322, 0}";
},
{
name = ogonek;
position = "{402, 0}";
},
{
name = top;
position = "{502, 660}";
}
);
layerId = "99EB5860-B45A-4B60-BB0B-F826C8F71D42";
paths = (
{
closed = 1;
nodes = (
"385 660 LINE",
"385 289 LINE SMOOTH",
"385 201 OFFCURVE",
"364 165 OFFCURVE",
"319 165 CURVE SMOOTH",
"264 165 OFFCURVE",
"241 204 OFFCURVE",
"258 329 CURVE",
"27 290 LINE",
"1 118 OFFCURVE",
"84 -10 OFFCURVE",
"307 -10 CURVE SMOOTH",
"508 -10 OFFCURVE",
"618 93 OFFCURVE",
"618 272 CURVE SMOOTH",
"618 660 LINE"
);
}
);
width = 653;
},
{
anchors = (
{
name = bottom;
position = "{219, 0}";
},
{
name = ogonek;
position = "{274, 0}";
},
{
name = top;
position = "{398, 660}";
}
);
layerId = "1C7CD022-87C7-4E11-B656-E47B18819458";
paths = (
{
closed = 1;
nodes = (
"390 660 LINE",
"390 209 LINE SMOOTH",
"390 84 OFFCURVE",
"330 4 OFFCURVE",
"212 4 CURVE SMOOTH",
"92 4 OFFCURVE",
"30 76 OFFCURVE",
"48 208 CURVE",
"32 200 LINE",
"14 74 OFFCURVE",
"80 -10 OFFCURVE",
"212 -10 CURVE SMOOTH",
"340 -10 OFFCURVE",
"406 75 OFFCURVE",
"406 209 CURVE SMOOTH",
"406 660 LINE"
);
}
);
width = 498;
}
);
leftKerningGroup = J;
rightKerningGroup = U;
unicode = 004A;
},
{
glyphname = K;
layers = (
{
anchors = (
{
name = bottom;
position = "{373, 0}";
},
{
name = ogonek;
position = "{628, 0}";
},
{
name = top;
position = "{353, 660}";
}
);
layerId = "4A17B37A-CBFD-40E5-9E02-2080A0E1F76C";
paths = (
{
closed = 1;
nodes = (
"520 660 LINE",
"148 279 LINE",
"148 171 LINE",
"325 352 LINE",
"337 365 LINE",
"625 660 LINE"
);
},
{
closed = 1;
nodes = (
"108 660 LINE",
"108 0 LINE",
"188 0 LINE",
"188 660 LINE"
);
},
{
closed = 1;
nodes = (
"279 371 LINE",
"532 0 LINE",
"628 0 LINE",
"345 416 LINE"
);
}
);
width = 656;
},
{
anchors = (
{
name = bottom;
position = "{356, 0}";
},
{
name = ogonek;
position = "{721, 0}";
},
{
name = top;
position = "{359, 660}";
}
);
layerId = "99EB5860-B45A-4B60-BB0B-F826C8F71D42";
paths = (
{
closed = 1;
nodes = (
"455 660 LINE",
"170 253 LINE",
"224 92 LINE",
"369 290 LINE",
"379 239 LINE",
"703 660 LINE"
);
},
{
closed = 1;
nodes = (
"50 660 LINE",
"50 0 LINE",
"283 0 LINE",
"283 660 LINE"
);
},
{
closed = 1;
nodes = (
"296 330 LINE",
"460 0 LINE",
"721 0 LINE",
"467 459 LINE"
);
}
);
width = 717;
},
{
anchors = (
{
name = bottom;
position = "{319, 0}";
},
{
name = ogonek;
position = "{544, 0}";
},
{
name = top;
position = "{319, 660}";
}
);
layerId = "1C7CD022-87C7-4E11-B656-E47B18819458";
paths = (
{
closed = 1;
nodes = (
"511 660 LINE",
"106 248 LINE",
"106 225 LINE",
"268 389 LINE",
"270 391 LINE",
"534 660 LINE"
);
},
{
closed = 1;
nodes = (
"99 660 LINE",
"99 0 LINE",
"115 0 LINE",
"115 660 LINE"
);
},
{
closed = 1;
nodes = (
"259 390 LINE",
"523 0 LINE",
"544 0 LINE",
"270 404 LINE"
);
}
);
width = 557;
}
);
leftKerningGroup = I;
leftMetricsKey = H;
rightKerningGroup = K;
unicode = 004B;
},
{
glyphname = L;
layers = (
{
anchors = (
{
name = bottom;
position = "{362, 0}";
},
{
name = center;
position = "{399, 354}";
},
{
name = ogonek;
position = "{566, 0}";
},
{
name = top;
position = "{148, 660}";
},
{
name = topright;
position = "{330, 660}";
}
);
layerId = "4A17B37A-CBFD-40E5-9E02-2080A0E1F76C";
paths = (
{
closed = 1;
nodes = (
"188 660 LINE",
"108 660 LINE",
"108 0 LINE",
"566 0 LINE",
"566 75 LINE",
"188 75 LINE"
);
}
);
width = 598;
},
{
anchors = (
{
name = bottom;
position = "{318, 0}";
},
{
name = center;
position = "{377, 391}";
},
{
name = ogonek;
position = "{582, 0}";
},
{
name = top;
position = "{166, 660}";
},
{
name = topright;
position = "{421, 660}";
}
);
layerId = "99EB5860-B45A-4B60-BB0B-F826C8F71D42";
paths = (
{
closed = 1;
nodes = (
"283 660 LINE",
"50 660 LINE",
"50 0 LINE",
"582 0 LINE",
"582 171 LINE",
"283 171 LINE"
);
}
);
width = 605;
},
{
anchors = (
{
name = bottom;
position = "{331, 0}";
},
{
name = center;
position = "{358, 344}";
},
{
name = ogonek;
position = "{531, 0}";
},
{
name = top;
position = "{107, 660}";
},
{
name = topright;
position = "{321, 660}";
}
);
layerId = "1C7CD022-87C7-4E11-B656-E47B18819458";
paths = (
{
closed = 1;
nodes = (
"115 660 LINE",
"99 660 LINE",
"99 0 LINE",
"531 0 LINE",
"531 14 LINE",
"115 14 LINE"
);
}
);
width = 543;
}
);
leftKerningGroup = I;
leftMetricsKey = H;
rightKerningGroup = L;
unicode = 004C;
},
{
glyphname = Lslash;
layers = (
{
components = (
{
name = L;
transform = "{1, 0, 0, 1, 30, 0}";
}
);
layerId = "4A17B37A-CBFD-40E5-9E02-2080A0E1F76C";
paths = (
{
closed = 1;
nodes = (
"33 279 LINE",
"33 196 LINE",
"395 398 LINE",
"395 481 LINE"
);
}
);
width = 628;
},
{
components = (
{
name = L;
transform = "{1, 0, 0, 1, 90, 0}";
}
);
layerId = "99EB5860-B45A-4B60-BB0B-F826C8F71D42";
paths = (
{
closed = 1;
nodes = (
"26 299 LINE",
"26 146 LINE",
"539 372 LINE",
"539 525 LINE"
);
}
);
width = 695;
},
{
components = (
{
alignment = -1;
name = L;
transform = "{1, 0, 0, 1, 11, 0}";
}
);
layerId = "1C7CD022-87C7-4E11-B656-E47B18819458";
paths = (
{
closed = 1;
nodes = (
"9 232 LINE",
"9 212 LINE",
"334 419 LINE",
"334 439 LINE"
);
}
);
width = 554;
}
);
leftKerningGroup = I;
rightKerningGroup = L;
rightMetricsKey = L;
unicode = 0141;
},
{
glyphname = M;
layers = (
{
anchors = (
{
name = bottom;
position = "{427, 0}";
},
{
name = ogonek;
position = "{746, 0}";
},
{
name = top;
position = "{427, 660}";
}
);
layerId = "4A17B37A-CBFD-40E5-9E02-2080A0E1F76C";
paths = (
{
closed = 1;
nodes = (
"623 660 LINE",
"479 258 LINE",
"428 94 LINE",
"426 94 LINE",
"376 259 LINE",
"231 660 LINE",
"108 660 LINE",
"108 0 LINE",
"184 0 LINE",
"184 415 LINE",
"175 589 LINE",
"176 589 LINE",
"393 0 LINE",
"461 0 LINE",
"678 589 LINE",
"679 589 LINE",
"670 415 LINE",
"670 0 LINE",
"746 0 LINE",
"746 660 LINE"
);
}
);
width = 854;
},
{
anchors = (
{
name = bottom;
position = "{474, 0}";
},
{
name = ogonek;
position = "{898, 0}";
},
{
name = top;
position = "{474, 660}";
}
);
layerId = "99EB5860-B45A-4B60-BB0B-F826C8F71D42";
leftMetricsKey = "=I";
rightMetricsKey = "=I";
paths = (
{
closed = 1;
nodes = (
"588 660 LINE",
"512 367 LINE",
"483 244 LINE",
"481 244 LINE",
"452 367 LINE",
"376 660 LINE",
"50 660 LINE",
"50 0 LINE",
"254 0 LINE",
"254 229 LINE",
"251 451 LINE",
"255 451 LINE",
"381 0 LINE",
"567 0 LINE",
"695 451 LINE",
"698 451 LINE",
"695 229 LINE",
"695 0 LINE",
"898 0 LINE",
"898 660 LINE"
);
}
);
width = 948;
},
{
anchors = (
{
name = bottom;
position = "{393, 0}";
},
{
name = ogonek;
position = "{687, 0}";
},
{
name = top;
position = "{393, 660}";
}
);
layerId = "1C7CD022-87C7-4E11-B656-E47B18819458";
paths = (
{
closed = 1;
nodes = (
"666 660 LINE",
"405 47 LINE",
"393 19 LINE",
"393 19 LINE",
"381 48 LINE",
"120 660 LINE",
"99 660 LINE",
"99 0 LINE",
"115 0 LINE",
"115 580 LINE",
"114 637 LINE",
"114 637 LINE",
"383 0 LINE",
"403 0 LINE",
"672 637 LINE",
"672 637 LINE",
"671 580 LINE",
"671 0 LINE",
"687 0 LINE",
"687 660 LINE"
);
}
);
width = 786;
}
);
leftKerningGroup = I;
leftMetricsKey = H;
rightKerningGroup = I;
rightMetricsKey = H;
unicode = 004D;
},
{
glyphname = N;
layers = (
{
anchors = (
{
name = bottom;
position = "{397, 0}";
},
{
name = ogonek;
position = "{626, 0}";
},
{
name = top;
position = "{371, 660}";
}
);
layerId = "4A17B37A-CBFD-40E5-9E02-2080A0E1F76C";
paths = (
{
closed = 1;
nodes = (
"550 660 LINE",
"550 194 LINE",
"554 93 LINE",
"553 93 LINE",
"482 220 LINE",
"207 660 LINE",
"108 660 LINE",
"108 0 LINE",
"184 0 LINE",
"184 466 LINE",
"180 566 LINE",
"181 566 LINE",
"251 442 LINE",
"527 0 LINE",
"626 0 LINE",
"626 660 LINE"
);
}
);
width = 734;
},
{
anchors = (
{
name = bottom;
position = "{374, 0}";
},
{
name = ogonek;
position = "{696, 0}";
},
{
name = top;
position = "{373, 660}";
}
);
layerId = "99EB5860-B45A-4B60-BB0B-F826C8F71D42";
paths = (
{
closed = 1;
nodes = (
"494 660 LINE",
"494 415 LINE",
"498 279 LINE",
"496 279 LINE",
"460 359 LINE",
"302 660 LINE",
"50 660 LINE",
"50 0 LINE",
"252 0 LINE",
"252 245 LINE",
"248 381 LINE",
"250 381 LINE",
"286 300 LINE",
"444 0 LINE",
"696 0 LINE",
"696 660 LINE"
);
}
);
width = 746;
},
{
anchors = (
{
name = bottom;
position = "{347, 0}";
},
{
name = ogonek;
position = "{595, 0}";
},
{
name = top;
position = "{353, 660}";
}
);
layerId = "1C7CD022-87C7-4E11-B656-E47B18819458";
paths = (
{
closed = 1;
nodes = (
"579 660 LINE",
"579 73 LINE",
"580 16 LINE",
"580 16 LINE",
"554 55 LINE",
"121 660 LINE",
"99 660 LINE",
"99 0 LINE",
"115 0 LINE",
"115 587 LINE",
"114 644 LINE",
"114 644 LINE",
"140 605 LINE",
"573 0 LINE",
"595 0 LINE",
"595 660 LINE"
);
}
);
width = 694;
}
);
leftKerningGroup = I;
leftMetricsKey = H;
rightKerningGroup = I;
rightMetricsKey = H;
unicode = 004E;
},
{
glyphname = Eng;
layers = (
{
hints = (
{
horizontal = 1;
place = "{-215, 14}";
type = Stem;
},
{
horizontal = 1;
place = "{500, -20}";
target = down;
type = TopGhost;
},
{
horizontal = 1;
place = "{598, 44}";
type = Stem;
},
{
place = "{779, 16}";
type = Stem;
}
);
layerId = "1C7CD022-87C7-4E11-B656-E47B18819458";
paths = (
{
closed = 1;
nodes = (
"543 -215 OFFCURVE",
"595 -156 OFFCURVE",
"595 -64 CURVE SMOOTH",
"595 660 LINE",
"579 660 LINE",
"579 27 LINE",
"579 27 LINE",
"560 55 LINE",
"121 660 LINE",
"99 660 LINE",
"99 0 LINE",
"115 0 LINE",
"115 587 LINE",
"114 644 LINE",
"114 644 LINE",
"140 605 LINE",
"579 0 LINE",
"579 -64 LINE SMOOTH",
"579 -147 OFFCURVE",
"533 -201 OFFCURVE",
"463 -201 CURVE SMOOTH",
"439 -201 OFFCURVE",
"413 -194 OFFCURVE",
"397 -179 CURVE",
"392 -193 LINE",
"408 -207 OFFCURVE",
"435 -215 OFFCURVE",
"463 -215 CURVE SMOOTH"
);
}
);
width = 694;
},
{
layerId = "4A17B37A-CBFD-40E5-9E02-2080A0E1F76C";
paths = (
{
closed = 1;
nodes = (
"542 -215 OFFCURVE",
"626 -176 OFFCURVE",
"626 -51 CURVE SMOOTH",
"626 660 LINE",
"550 660 LINE",
"551 140 LINE",
"550 140 LINE",
"507 220 LINE",
"207 660 LINE",
"108 660 LINE",
"108 0 LINE",
"184 0 LINE",
"184 466 LINE",
"180 572 LINE",
"181 572 LINE",
"251 442 LINE",
"550 3 LINE",
"550 -43 LINE SMOOTH",
"550 -113 OFFCURVE",
"516 -137 OFFCURVE",
"473 -137 CURVE SMOOTH",
"438 -137 OFFCURVE",
"410 -123 OFFCURVE",
"391 -106 CURVE",
"374 -182 LINE",
"397 -201 OFFCURVE",
"433 -215 OFFCURVE",
"474 -215 CURVE SMOOTH"
);
}
);
width = 734;
},
{
layerId = "99EB5860-B45A-4B60-BB0B-F826C8F71D42";
paths = (
{
closed = 1;
nodes = (
"633 -215 OFFCURVE",
"696 -155 OFFCURVE",
"696 -13 CURVE SMOOTH",
"696 660 LINE",
"494 660 LINE",
"494 337 LINE",
"493 337 LINE",
"444 428 LINE",
"302 660 LINE",
"50 660 LINE",
"50 0 LINE",
"252 0 LINE",
"252 245 LINE",
"248 381 LINE",
"250 381 LINE",
"290 312 LINE",
"494 7 LINE",
"494 7 LINE",
"494 -41 OFFCURVE",
"476 -59 OFFCURVE",
"443 -59 CURVE SMOOTH",
"416 -59 OFFCURVE",
"397 -53 OFFCURVE",
"383 -45 CURVE",
"359 -192 LINE",
"397 -209 OFFCURVE",
"439 -215 OFFCURVE",
"498 -215 CURVE SMOOTH"
);
}
);
width = 746;
}
);
leftKerningGroup = I;
leftMetricsKey = I;
rightKerningGroup = I;
rightMetricsKey = I;
unicode = 014A;
},
{
glyphname = O;
layers = (
{
anchors = (
{
name = bottom;
position = "{374, 0}";
},
{
name = center;
position = "{374, 330}";
},
{
name = ogonek;
position = "{479, 6}";
},
{
name = top;
position = "{374, 660}";
},
{
name = topleft;
position = "{20, 660}";
},
{
name = topright;
position = "{548, 660}";
}
);
layerId = "4A17B37A-CBFD-40E5-9E02-2080A0E1F76C";
paths = (
{
closed = 1;
nodes = (
"186 670 OFFCURVE",
"68 539 OFFCURVE",
"68 330 CURVE SMOOTH",
"68 121 OFFCURVE",
"186 -10 OFFCURVE",
"374 -10 CURVE SMOOTH",
"562 -10 OFFCURVE",
"680 121 OFFCURVE",
"680 330 CURVE SMOOTH",
"680 539 OFFCURVE",
"562 670 OFFCURVE",
"374 670 CURVE SMOOTH"
);
},
{
closed = 1;
nodes = (
"511 595 OFFCURVE",
"596 496 OFFCURVE",
"596 330 CURVE SMOOTH",
"596 164 OFFCURVE",
"511 65 OFFCURVE",
"374 65 CURVE SMOOTH",
"237 65 OFFCURVE",
"152 164 OFFCURVE",
"152 330 CURVE SMOOTH",
"152 496 OFFCURVE",
"237 595 OFFCURVE",
"374 595 CURVE SMOOTH"
);
}
);
width = 748;
},
{
anchors = (
{
name = bottom;
position = "{365, 0}";
},
{
name = center;
position = "{365, 330}";
},
{
name = ogonek;
position = "{494, 9}";
},
{
name = top;
position = "{365, 660}";
},
{
name = topleft;
position = "{20, 660}";
},
{
name = topright;
position = "{569, 660}";
}
);
layerId = "99EB5860-B45A-4B60-BB0B-F826C8F71D42";
paths = (
{
closed = 1;
nodes = (
"156 670 OFFCURVE",
"29 546 OFFCURVE",
"29 330 CURVE SMOOTH",
"29 114 OFFCURVE",
"156 -10 OFFCURVE",
"365 -10 CURVE SMOOTH",
"575 -10 OFFCURVE",
"700 114 OFFCURVE",
"700 330 CURVE SMOOTH",
"700 546 OFFCURVE",
"575 670 OFFCURVE",
"365 670 CURVE SMOOTH"
);
},
{
closed = 1;
nodes = (
"433 495 OFFCURVE",
"462 445 OFFCURVE",
"462 330 CURVE SMOOTH",
"462 215 OFFCURVE",
"433 165 OFFCURVE",
"365 165 CURVE SMOOTH",
"297 165 OFFCURVE",
"267 215 OFFCURVE",
"267 330 CURVE SMOOTH",
"267 445 OFFCURVE",
"297 495 OFFCURVE",
"365 495 CURVE SMOOTH"
);
}
);
width = 729;
},
{
anchors = (
{
name = bottom;
position = "{357, 0}";
},
{
name = center;
position = "{357, 330}";
},
{
name = ogonek;
position = "{433, 0}";
},
{
name = top;
position = "{357, 660}";
},
{
name = topleft;
position = "{20, 660}";
},
{
name = topright;
position = "{528, 660}";
}
);
layerId = "1C7CD022-87C7-4E11-B656-E47B18819458";
paths = (
{
closed = 1;
nodes = (
"172 670 OFFCURVE",
"56 539 OFFCURVE",
"56 330 CURVE SMOOTH",
"56 121 OFFCURVE",
"172 -10 OFFCURVE",
"357 -10 CURVE SMOOTH",
"542 -10 OFFCURVE",
"658 121 OFFCURVE",
"658 330 CURVE SMOOTH",
"658 539 OFFCURVE",
"542 670 OFFCURVE",
"357 670 CURVE SMOOTH"
);
},
{
closed = 1;
nodes = (
"532 656 OFFCURVE",
"642 530 OFFCURVE",
"642 330 CURVE SMOOTH",
"642 130 OFFCURVE",
"532 4 OFFCURVE",
"357 4 CURVE SMOOTH",
"182 4 OFFCURVE",
"72 130 OFFCURVE",
"72 330 CURVE SMOOTH",
"72 530 OFFCURVE",
"182 656 OFFCURVE",
"357 656 CURVE SMOOTH"
);
}
);
width = 714;
}
);
leftKerningGroup = O;
rightKerningGroup = O;
unicode = 004F;
},
{
glyphname = Oslash;
layers = (
{
components = (
{
alignment = -1;
name = O;
}
);
layerId = "1C7CD022-87C7-4E11-B656-E47B18819458";
paths = (
{
closed = 1;
nodes = (
"555 590 LINE",
"542 599 LINE",
"160 71 LINE",
"170 59 LINE"
);
},
{
closed = 1;
nodes = (
"106 -30 LINE",
"170 59 LINE",
"160 71 LINE",
"86 -30 LINE"
);
},
{
closed = 1;
nodes = (
"628 690 LINE",
"608 690 LINE",
"542 599 LINE",
"555 590 LINE"
);
}
);
width = 714;
},
{
components = (
{
name = O;
}
);
layerId = "4A17B37A-CBFD-40E5-9E02-2080A0E1F76C";
paths = (
{
closed = 1;
nodes = (
"564 544 LINE",
"518 580 LINE",
"183 100 LINE",
"229 63 LINE"
);
},
{
closed = 1;
nodes = (
"159 -37 LINE",
"229 63 LINE",
"183 100 LINE",
"88 -37 LINE"
);
},
{
closed = 1;
nodes = (
"661 683 LINE",
"590 683 LINE",
"518 580 LINE",
"564 544 LINE"
);
}
);
width = 748;
},
{
components = (
{
name = O;
}
);
layerId = "99EB5860-B45A-4B60-BB0B-F826C8F71D42";
paths = (
{
closed = 1;
nodes = (
"495 447 LINE",
"441 486 LINE",
"217 190 LINE",
"268 147 LINE"
);
},
{
closed = 1;
nodes = (
"130 -21 LINE",
"245 116 LINE",
"188 159 LINE",
"45 -21 LINE"
);
},
{
closed = 1;
nodes = (
"684 680 LINE",
"599 680 LINE",
"480 538 LINE",
"537 495 LINE"
);
}
);
width = 729;
}
);
leftKerningGroup = O;
leftMetricsKey = O;
rightKerningGroup = O;
rightMetricsKey = O;
unicode = 00D8;
},
{
glyphname = OE;
layers = (
{
anchors = (
{
name = bottom;
position = "{595, 0}";
},
{
name = ogonek;
position = "{1028, 0}";
},
{
name = top;
position = "{595, 660}";
}
);
layerId = "4A17B37A-CBFD-40E5-9E02-2080A0E1F76C";
paths = (
{
closed = 1;
nodes = (
"659 297 LINE",
"928 297 LINE",
"928 372 LINE",
"659 372 LINE",
"659 585 LINE",
"1013 585 LINE",
"1013 660 LINE",
"586 660 LINE",
"586 563 LINE",
"538 632 OFFCURVE",
"465 670 OFFCURVE",
"376 670 CURVE SMOOTH",
"182 670 OFFCURVE",
"68 539 OFFCURVE",
"68 330 CURVE SMOOTH",
"68 121 OFFCURVE",
"184 -10 OFFCURVE",
"372 -10 CURVE SMOOTH",
"462 -10 OFFCURVE",
"537 29 OFFCURVE",
"586 99 CURVE",
"586 0 LINE",
"1028 0 LINE",
"1028 75 LINE",
"659 75 LINE"
);
},
{
closed = 1;
nodes = (
"233 65 OFFCURVE",
"152 164 OFFCURVE",
"152 330 CURVE SMOOTH",
"152 496 OFFCURVE",
"233 595 OFFCURVE",
"376 595 CURVE SMOOTH",
"501 595 OFFCURVE",
"586 496 OFFCURVE",
"586 330 CURVE SMOOTH",
"586 164 OFFCURVE",
"501 65 OFFCURVE",
"376 65 CURVE SMOOTH"
);
}
);
width = 1080;
},
{
anchors = (
{
name = bottom;
position = "{565, 0}";
},
{
name = ogonek;
position = "{1011, 0}";
},
{
name = top;
position = "{565, 660}";
}
);
layerId = "99EB5860-B45A-4B60-BB0B-F826C8F71D42";
paths = (
{
closed = 1;
nodes = (
"685 249 LINE",
"938 249 LINE",
"938 407 LINE",
"685 407 LINE",
"685 489 LINE",
"999 489 LINE",
"999 660 LINE",
"542 660 LINE",
"542 594 LINE",
"494 641 OFFCURVE",
"428 670 OFFCURVE",
"342 670 CURVE SMOOTH",
"152 670 OFFCURVE",
"29 546 OFFCURVE",
"29 330 CURVE SMOOTH",
"29 114 OFFCURVE",
"152 -10 OFFCURVE",
"342 -10 CURVE SMOOTH",
"428 -10 OFFCURVE",
"494 19 OFFCURVE",
"542 66 CURVE",
"542 0 LINE",
"1011 0 LINE",
"1011 171 LINE",
"685 171 LINE"
);
},
{
closed = 1;
nodes = (
"291 165 OFFCURVE",
"262 215 OFFCURVE",
"262 330 CURVE SMOOTH",
"262 445 OFFCURVE",
"291 495 OFFCURVE",
"355 495 CURVE SMOOTH",
"423 495 OFFCURVE",
"452 445 OFFCURVE",
"452 330 CURVE SMOOTH",
"452 215 OFFCURVE",
"423 165 OFFCURVE",
"355 165 CURVE SMOOTH"
);
}
);
width = 1027;
},
{
anchors = (
{
name = bottom;
position = "{571, 0}";
},
{
name = ogonek;
position = "{1020, 0}";
},
{
name = top;
position = "{571, 660}";
}
);
layerId = "1C7CD022-87C7-4E11-B656-E47B18819458";
paths = (
{
closed = 1;
nodes = (
"608 330 LINE",
"931 330 LINE",
"931 344 LINE",
"608 344 LINE",
"608 646 LINE",
"1003 646 LINE",
"1003 660 LINE",
"592 660 LINE",
"592 473 LINE",
"562 605 OFFCURVE",
"480 670 OFFCURVE",
"337 670 CURVE SMOOTH",
"167 670 OFFCURVE",
"56 539 OFFCURVE",
"56 330 CURVE SMOOTH",
"56 121 OFFCURVE",
"167 -10 OFFCURVE",
"337 -10 CURVE SMOOTH",
"480 -10 OFFCURVE",
"562 55 OFFCURVE",
"592 187 CURVE",
"592 0 LINE",
"1020 0 LINE",
"1020 14 LINE",
"608 14 LINE"
);
},
{
closed = 1;
nodes = (
"177 4 OFFCURVE",
"72 130 OFFCURVE",
"72 330 CURVE SMOOTH",
"72 530 OFFCURVE",
"177 656 OFFCURVE",
"337 656 CURVE SMOOTH",
"517 656 OFFCURVE",
"592 550 OFFCURVE",
"592 330 CURVE SMOOTH",
"592 110 OFFCURVE",
"517 4 OFFCURVE",
"337 4 CURVE SMOOTH"
);
}
);
width = 1050;
}
);
leftKerningGroup = O;
leftMetricsKey = O;
rightKerningGroup = E;
rightMetricsKey = E;
unicode = 0152;
},
{
glyphname = P;
layers = (
{
anchors = (
{
name = bottom;
position = "{148, 0}";
},
{
name = ogonek;
position = "{188, 0}";
},
{
name = top;
position = "{315, 660}";
}
);
layerId = "4A17B37A-CBFD-40E5-9E02-2080A0E1F76C";
paths = (
{
closed = 1;
nodes = (
"108 660 LINE",
"108 0 LINE",
"188 0 LINE",
"188 258 LINE",
"341 258 LINE SMOOTH",
"474 258 OFFCURVE",
"563 335 OFFCURVE",
"563 459 CURVE SMOOTH",
"563 583 OFFCURVE",
"474 660 OFFCURVE",
"341 660 CURVE SMOOTH"
);
},
{
closed = 1;
nodes = (
"188 333 LINE",
"188 585 LINE",
"329 585 LINE SMOOTH",
"433 585 OFFCURVE",
"479 541 OFFCURVE",
"479 459 CURVE SMOOTH",
"479 377 OFFCURVE",
"433 333 OFFCURVE",
"329 333 CURVE SMOOTH"
);
}
);
width = 610;
},
{
anchors = (
{
name = bottom;
position = "{167, 0}";
},
{
name = ogonek;
position = "{283, 0}";
},
{
name = top;
position = "{337, 660}";
}
);
layerId = "99EB5860-B45A-4B60-BB0B-F826C8F71D42";
paths = (
{
closed = 1;
nodes = (
"50 660 LINE",
"50 0 LINE",
"283 0 LINE",
"283 194 LINE",
"400 194 LINE SMOOTH",
"578 194 OFFCURVE",
"677 277 OFFCURVE",
"677 427 CURVE SMOOTH",
"677 577 OFFCURVE",
"578 660 OFFCURVE",
"400 660 CURVE SMOOTH"
);
},
{
closed = 1;
nodes = (
"283 359 LINE",
"283 495 LINE",
"362 495 LINE SMOOTH",
"413 495 OFFCURVE",
"444 474 OFFCURVE",
"444 427 CURVE SMOOTH",
"444 380 OFFCURVE",
"413 359 OFFCURVE",
"362 359 CURVE SMOOTH"
);
}
);
width = 706;
},
{
anchors = (
{
name = bottom;
position = "{107, 0}";
},
{
name = ogonek;
position = "{115, 0}";
},
{
name = top;
position = "{274, 660}";
}
);
layerId = "1C7CD022-87C7-4E11-B656-E47B18819458";
paths = (
{
closed = 1;
nodes = (
"99 660 LINE",
"99 0 LINE",
"115 0 LINE",
"115 291 LINE",
"303 291 LINE SMOOTH",
"444 291 OFFCURVE",
"528 359 OFFCURVE",
"528 475 CURVE SMOOTH",
"528 591 OFFCURVE",
"444 660 OFFCURVE",
"303 660 CURVE SMOOTH"
);
},
{
closed = 1;
nodes = (
"115 305 LINE",
"115 646 LINE",
"303 646 LINE SMOOTH",
"434 646 OFFCURVE",
"512 582 OFFCURVE",
"512 475 CURVE SMOOTH",
"512 368 OFFCURVE",
"434 305 OFFCURVE",
"303 305 CURVE SMOOTH"
);
}
);
width = 561;
}
);
leftKerningGroup = I;
leftMetricsKey = H;
unicode = 0050;
},
{
glyphname = Thorn;
layers = (
{
anchors = (
{
name = bottom;
position = "{148, 0}";
},
{
name = ogonek;
position = "{188, 0}";
},
{
name = top;
position = "{148, 660}";
}
);
layerId = "4A17B37A-CBFD-40E5-9E02-2080A0E1F76C";
paths = (
{
closed = 1;
nodes = (
"148 542 LINE",
"148 467 LINE",
"335 467 LINE SMOOTH",
"439 467 OFFCURVE",
"489 425 OFFCURVE",
"489 337 CURVE SMOOTH",
"489 249 OFFCURVE",
"439 207 OFFCURVE",
"335 207 CURVE SMOOTH",
"148 207 LINE",
"148 132 LINE",
"327 132 LINE SMOOTH",
"491 132 OFFCURVE",
"573 206 OFFCURVE",
"573 337 CURVE SMOOTH",
"573 469 OFFCURVE",
"491 542 OFFCURVE",
"327 542 CURVE SMOOTH"
);
},
{
closed = 1;
nodes = (
"108 660 LINE",
"108 0 LINE",
"188 0 LINE",
"188 660 LINE"
);
}
);
width = 627;
},
{
anchors = (
{
name = bottom;
position = "{167, 0}";
},
{
name = ogonek;
position = "{283, 0}";
},
{
name = top;
position = "{167, 660}";
}
);
layerId = "99EB5860-B45A-4B60-BB0B-F826C8F71D42";
leftMetricsKey = "=I";
paths = (
{
closed = 1;
nodes = (
"166 571 LINE",
"166 406 LINE",
"368 406 LINE SMOOTH",
"415 406 OFFCURVE",
"444 386 OFFCURVE",
"444 339 CURVE SMOOTH",
"444 289 OFFCURVE",
"417 267 OFFCURVE",
"368 267 CURVE SMOOTH",
"166 267 LINE",
"166 103 LINE",
"406 103 LINE SMOOTH",
"577 103 OFFCURVE",
"677 182 OFFCURVE",
"677 337 CURVE SMOOTH",
"677 492 OFFCURVE",
"577 571 OFFCURVE",
"406 571 CURVE SMOOTH"
);
},
{
closed = 1;
nodes = (
"50 660 LINE",
"50 0 LINE",
"283 0 LINE",
"283 660 LINE"
);
}
);
width = 706;
},
{
anchors = (
{
name = bottom;
position = "{107, 0}";
},
{
name = ogonek;
position = "{115, 0}";
},
{
name = top;
position = "{107, 660}";
}
);
layerId = "1C7CD022-87C7-4E11-B656-E47B18819458";
paths = (
{
closed = 1;
nodes = (
"108 525 LINE",
"108 511 LINE",
"303 511 LINE SMOOTH",
"441 511 OFFCURVE",
"511 453 OFFCURVE",
"511 340 CURVE SMOOTH",
"511 227 OFFCURVE",
"441 169 OFFCURVE",
"303 169 CURVE SMOOTH",
"108 169 LINE",
"108 155 LINE",
"294 155 LINE SMOOTH",
"448 155 OFFCURVE",
"527 218 OFFCURVE",
"527 340 CURVE SMOOTH",
"527 462 OFFCURVE",
"448 525 OFFCURVE",
"294 525 CURVE SMOOTH"
);
},
{
closed = 1;
nodes = (
"99 660 LINE",
"99 0 LINE",
"115 0 LINE",
"115 660 LINE"
);
}
);
width = 567;
}
);
leftKerningGroup = I;
leftMetricsKey = H;
unicode = 00DE;
},
{
glyphname = Q;
layers = (
{
anchors = (
{
name = bottom;
position = "{374, -210}";
},
{
name = ogonek;
position = "{575, -190}";
},
{
name = top;
position = "{374, 660}";
}
);
components = (
{
name = O;
}
);
hints = (
{
horizontal = 1;
origin = "{0, 19}";
target = "{0, 6}";
type = Stem;
}
);
layerId = "4A17B37A-CBFD-40E5-9E02-2080A0E1F76C";
paths = (
{
closed = 1;
nodes = (
"583 -195 OFFCURVE",
"648 -179 OFFCURVE",
"680 -151 CURVE",
"654 -77 LINE",
"629 -100 OFFCURVE",
"585 -114 OFFCURVE",
"536 -114 CURVE SMOOTH",
"467 -114 OFFCURVE",
"407 -95 OFFCURVE",
"407 18 CURVE SMOOTH",
"407 29 OFFCURVE",
"408 40 OFFCURVE",
"409 53 CURVE",
"338 55 LINE",
"337 41 OFFCURVE",
"336 27 OFFCURVE",
"336 15 CURVE SMOOTH",
"336 -146 OFFCURVE",
"432 -195 OFFCURVE",
"534 -195 CURVE SMOOTH"
);
}
);
width = 748;
},
{
anchors = (
{
name = bottom;
position = "{365, -210}";
},
{
name = ogonek;
position = "{572, -202}";
},
{
name = top;
position = "{365, 660}";
}
);
background = {
anchors = (
{
name = bottom;
position = "{365, -210}";
},
{
name = ogonek;
position = "{572, -202}";
},
{
name = top;
position = "{365, 660}";
}
);
components = (
{
name = O;
}
);
paths = (
{
closed = 1;
nodes = (
"306 19 LINE",
"272 -101 OFFCURVE",
"358 -209 OFFCURVE",
"537 -209 CURVE SMOOTH",
"593 -209 OFFCURVE",
"650 -195 OFFCURVE",
"686 -169 CURVE",
"661 -20 LINE",
"634 -40 OFFCURVE",
"600 -53 OFFCURVE",
"538 -53 CURVE SMOOTH",
"470 -53 OFFCURVE",
"421 -30 OFFCURVE",
"423 28 CURVE"
);
}
);
};
components = (
{
name = O;
}
);
guideLines = (
{
angle = 90;
position = "{692, 57}";
}
);
hints = (
{
horizontal = 1;
place = "{-210, 170}";
type = Stem;
}
);
layerId = "99EB5860-B45A-4B60-BB0B-F826C8F71D42";
leftMetricsKey = "=O";
rightMetricsKey = "=O";
paths = (
{
closed = 1;
nodes = (
"593 -209 OFFCURVE",
"650 -195 OFFCURVE",
"686 -169 CURVE",
"661 -20 LINE",
"634 -40 OFFCURVE",
"600 -53 OFFCURVE",
"538 -53 CURVE SMOOTH",
"471 -53 OFFCURVE",
"423 -31 OFFCURVE",
"423 25 CURVE SMOOTH",
"423 50 OFFCURVE",
"433 83 OFFCURVE",
"456 123 CURVE",
"336 84 LINE",
"311 45 OFFCURVE",
"299 5 OFFCURVE",
"299 -32 CURVE SMOOTH",
"299 -130 OFFCURVE",
"384 -209 OFFCURVE",
"537 -209 CURVE SMOOTH"
);
}
);
width = 729;
},
{
anchors = (
{
name = bottom;
position = "{357, -210}";
},
{
name = ogonek;
position = "{577, -191}";
},
{
name = top;
position = "{357, 660}";
}
);
background = {
paths = (
{
closed = 1;
nodes = (
"370 0 LINE",
"356 0 LINE",
"356 -4 LINE",
"361 -126 OFFCURVE",
"434 -195 OFFCURVE",
"536 -195 CURVE SMOOTH",
"585 -195 OFFCURVE",
"622 -182 OFFCURVE",
"648 -157 CURVE",
"640 -144 LINE",
"614 -171 OFFCURVE",
"575 -181 OFFCURVE",
"536 -181 CURVE SMOOTH",
"441 -181 OFFCURVE",
"375 -120 OFFCURVE",
"370 -4 CURVE"
);
}
);
};
components = (
{
alignment = -1;
name = O;
}
);
hints = (
{
horizontal = 1;
origin = "{0, 19}";
target = "{0, 6}";
type = Stem;
}
);
layerId = "1C7CD022-87C7-4E11-B656-E47B18819458";
paths = (
{
closed = 1;
nodes = (
"585 -195 OFFCURVE",
"622 -182 OFFCURVE",
"648 -157 CURVE",
"640 -144 LINE",
"614 -171 OFFCURVE",
"575 -181 OFFCURVE",
"536 -181 CURVE SMOOTH",
"441 -181 OFFCURVE",
"370 -115 OFFCURVE",
"370 -4 CURVE SMOOTH",
"370 -2 OFFCURVE",
"370 -1 OFFCURVE",
"370 1 CURVE",
"356 1 LINE",
"356 -1 OFFCURVE",
"356 -2 OFFCURVE",
"356 -4 CURVE SMOOTH",
"356 -121 OFFCURVE",
"434 -195 OFFCURVE",
"536 -195 CURVE SMOOTH"
);
}
);
width = 714;
}
);
leftKerningGroup = O;
leftMetricsKey = O;
widthMetricsKey = O;
rightKerningGroup = O;
unicode = 0051;
},
{
glyphname = R;
layers = (
{
anchors = (
{
name = bottom;
position = "{365, 0}";
},
{
name = ogonek;
position = "{621, 0}";
},
{
name = top;
position = "{322, 660}";
}
);
layerId = "4A17B37A-CBFD-40E5-9E02-2080A0E1F76C";
paths = (
{
closed = 1;
nodes = (
"108 660 LINE",
"108 0 LINE",
"188 0 LINE",
"188 274 LINE",
"350 274 LINE",
"357 279 LINE",
"491 279 OFFCURVE",
"581 348 OFFCURVE",
"581 467 CURVE SMOOTH",
"581 586 OFFCURVE",
"492 660 OFFCURVE",
"358 660 CURVE SMOOTH"
);
},
{
closed = 1;
nodes = (
"188 349 LINE",
"188 585 LINE",
"357 585 LINE SMOOTH",
"451 585 OFFCURVE",
"497 546 OFFCURVE",
"497 467 CURVE SMOOTH",
"497 388 OFFCURVE",
"451 349 OFFCURVE",
"357 349 CURVE SMOOTH"
);
},
{
closed = 1;
nodes = (
"336 289 LINE",
"526 0 LINE",
"621 0 LINE",
"403 333 LINE"
);
}
);
width = 665;
},
{
anchors = (
{
name = bottom;
position = "{362, 0}";
},
{
name = ogonek;
position = "{712, 0}";
},
{
name = top;
position = "{334, 660}";
}
);
layerId = "99EB5860-B45A-4B60-BB0B-F826C8F71D42";
paths = (
{
closed = 1;
nodes = (
"50 660 LINE",
"50 0 LINE",
"278 0 LINE",
"278 219 LINE",
"388 219 LINE",
"411 231 LINE",
"583 231 OFFCURVE",
"675 304 OFFCURVE",
"675 450 CURVE SMOOTH",
"675 577 OFFCURVE",
"580 660 OFFCURVE",
"408 660 CURVE SMOOTH"
);
},
{
closed = 1;
nodes = (
"278 372 LINE",
"278 494 LINE",
"368 494 LINE SMOOTH",
"417 494 OFFCURVE",
"442 477 OFFCURVE",
"442 433 CURVE SMOOTH",
"442 388 OFFCURVE",
"417 372 OFFCURVE",
"368 372 CURVE SMOOTH"
);
},
{
closed = 1;
nodes = (
"305 289 LINE",
"459 0 LINE",
"712 0 LINE",
"506 323 LINE"
);
}
);
width = 705;
},
{
anchors = (
{
name = bottom;
position = "{346, 0}";
},
{
name = ogonek;
position = "{576, 0}";
},
{
name = top;
position = "{293, 660}";
}
);
layerId = "1C7CD022-87C7-4E11-B656-E47B18819458";
paths = (
{
closed = 1;
nodes = (
"99 660 LINE",
"99 0 LINE",
"115 0 LINE",
"115 300 LINE",
"335 300 LINE",
"338 300 LINE SMOOTH",
"467 300 OFFCURVE",
"547 368 OFFCURVE",
"547 480 CURVE SMOOTH",
"547 592 OFFCURVE",
"467 660 OFFCURVE",
"338 660 CURVE SMOOTH"
);
},
{
closed = 1;
nodes = (
"115 314 LINE",
"115 646 LINE",
"338 646 LINE SMOOTH",
"459 646 OFFCURVE",
"531 584 OFFCURVE",
"531 480 CURVE SMOOTH",
"531 376 OFFCURVE",
"459 314 OFFCURVE",
"338 314 CURVE SMOOTH"
);
},
{
closed = 1;
nodes = (
"356 304 LINE",
"558 0 LINE",
"576 0 LINE",
"369 314 LINE"
);
}
);
width = 611;
}
);
leftKerningGroup = I;
leftMetricsKey = H;
rightKerningGroup = R;
unicode = 0052;
},
{
glyphname = S;
layers = (
{
anchors = (
{
name = bottom;
position = "{318, 0}";
},
{
name = ogonek;
position = "{409, 0}";
},
{
name = top;
position = "{326, 660}";
}
);
layerId = "4A17B37A-CBFD-40E5-9E02-2080A0E1F76C";
paths = (
{
closed = 1;
nodes = (
"167 670 OFFCURVE",
"74 580 OFFCURVE",
"74 474 CURVE SMOOTH",
"74 395 OFFCURVE",
"120 332 OFFCURVE",
"243 305 CURVE SMOOTH",
"398 270 LINE SMOOTH",
"475 253 OFFCURVE",
"498 216 OFFCURVE",
"498 174 CURVE SMOOTH",
"498 103 OFFCURVE",
"434 65 OFFCURVE",
"332 65 CURVE SMOOTH",
"221 65 OFFCURVE",
"151 117 OFFCURVE",
"113 193 CURVE",
"43 136 LINE",
"92 54 OFFCURVE",
"184 -10 OFFCURVE",
"327 -10 CURVE SMOOTH",
"481 -10 OFFCURVE",
"581 68 OFFCURVE",
"581 181 CURVE SMOOTH",
"581 265 OFFCURVE",
"537 322 OFFCURVE",
"411 350 CURVE SMOOTH",
"268 382 LINE SMOOTH",
"180 402 OFFCURVE",
"158 438 OFFCURVE",
"158 485 CURVE SMOOTH",
"158 546 OFFCURVE",
"205 595 OFFCURVE",
"312 595 CURVE SMOOTH",
"400 595 OFFCURVE",
"459 563 OFFCURVE",
"508 478 CURVE",
"575 530 LINE",
"519 622 OFFCURVE",
"436 670 OFFCURVE",
"320 670 CURVE SMOOTH"
);
}
);
width = 641;
},
{
anchors = (
{
name = bottom;
position = "{330, 0}";
},
{
name = ogonek;
position = "{421, 0}";
},
{
name = top;
position = "{331, 660}";
}
);
layerId = "99EB5860-B45A-4B60-BB0B-F826C8F71D42";
paths = (
{
closed = 1;
nodes = (
"142 670 OFFCURVE",
"28 578 OFFCURVE",
"28 443 CURVE SMOOTH",
"28 311 OFFCURVE",
"131 271 OFFCURVE",
"237 248 CURVE SMOOTH",
"337 226 LINE SMOOTH",
"377 217 OFFCURVE",
"390 209 OFFCURVE",
"390 191 CURVE SMOOTH",
"390 173 OFFCURVE",
"375 161 OFFCURVE",
"327 161 CURVE SMOOTH",
"251 161 OFFCURVE",
"147 197 OFFCURVE",
"90 243 CURVE",
"-2 90 LINE",
"75 26 OFFCURVE",
"207 -10 OFFCURVE",
"334 -10 CURVE SMOOTH",
"501 -10 OFFCURVE",
"629 63 OFFCURVE",
"629 223 CURVE SMOOTH",
"629 329 OFFCURVE",
"560 385 OFFCURVE",
"425 416 CURVE SMOOTH",
"334 437 LINE SMOOTH",
"296 446 OFFCURVE",
"269 452 OFFCURVE",
"269 468 CURVE SMOOTH",
"269 486 OFFCURVE",
"287 499 OFFCURVE",
"339 499 CURVE SMOOTH",
"419 499 OFFCURVE",
"486 470 OFFCURVE",
"549 426 CURVE",
"643 576 LINE",
"566 638 OFFCURVE",
"465 670 OFFCURVE",
"339 670 CURVE SMOOTH"
);
}
);
width = 648;
},
{
anchors = (
{
name = bottom;
position = "{308, 0}";
},
{
name = ogonek;
position = "{393, 0}";
},
{
name = top;
position = "{290, 660}";
}
);
layerId = "1C7CD022-87C7-4E11-B656-E47B18819458";
paths = (
{
closed = 1;
nodes = (
"149 670 OFFCURVE",
"62 586 OFFCURVE",
"62 492 CURVE SMOOTH",
"62 404 OFFCURVE",
"113 357 OFFCURVE",
"245 329 CURVE SMOOTH",
"360 305 LINE SMOOTH",
"484 279 OFFCURVE",
"532 238 OFFCURVE",
"532 167 CURVE SMOOTH",
"532 61 OFFCURVE",
"433 4 OFFCURVE",
"309 4 CURVE SMOOTH",
"179 4 OFFCURVE",
"75 57 OFFCURVE",
"57 174 CURVE",
"42 166 LINE",
"64 45 OFFCURVE",
"171 -10 OFFCURVE",
"309 -10 CURVE SMOOTH",
"450 -10 OFFCURVE",
"548 61 OFFCURVE",
"548 167 CURVE SMOOTH",
"548 248 OFFCURVE",
"497 293 OFFCURVE",
"367 320 CURVE SMOOTH",
"252 344 LINE SMOOTH",
"124 371 OFFCURVE",
"78 414 OFFCURVE",
"78 492 CURVE SMOOTH",
"78 584 OFFCURVE",
"163 656 OFFCURVE",
"295 656 CURVE SMOOTH",
"415 656 OFFCURVE",
"496 610 OFFCURVE",
"523 507 CURVE",
"536 517 LINE",
"505 623 OFFCURVE",
"420 670 OFFCURVE",
"295 670 CURVE SMOOTH"
);
}
);
width = 594;
},
{
anchors = (
{
name = bottom;
position = "{351, 0}";
},
{
name = ogonek;
position = "{413, 0}";
},
{
name = top;
position = "{328, 660}";
}
);
associatedMasterId = "4A17B37A-CBFD-40E5-9E02-2080A0E1F76C";
background = {
anchors = (
{
name = bottom;
position = "{351, 0}";
},
{
name = bottomC;
position = "{329, 0}";
},
{
name = ogonek;
position = "{413, 0}";
},
{
name = top;
position = "{328, 660}";
}
);
paths = (
{
closed = 1;
nodes = (
"156 670 OFFCURVE",
"57 579 OFFCURVE",
"57 462 CURVE SMOOTH",
"57 352 OFFCURVE",
"127 296 OFFCURVE",
"311 259 CURVE SMOOTH",
"420 237 OFFCURVE",
"459 216 OFFCURVE",
"459 177 CURVE SMOOTH",
"459 130 OFFCURVE",
"414 103 OFFCURVE",
"334 103 CURVE SMOOTH",
"246 103 OFFCURVE",
"173 129 OFFCURVE",
"119 209 CURVE",
"37 114 LINE",
"99 40 OFFCURVE",
"196 -10 OFFCURVE",
"329 -10 CURVE SMOOTH",
"487 -10 OFFCURVE",
"600 64 OFFCURVE",
"600 190 CURVE SMOOTH",
"600 298 OFFCURVE",
"533 353 OFFCURVE",
"355 386 CURVE SMOOTH",
"239 407 OFFCURVE",
"199 431 OFFCURVE",
"199 475 CURVE SMOOTH",
"199 522 OFFCURVE",
"242 557 OFFCURVE",
"325 557 CURVE SMOOTH",
"414 557 OFFCURVE",
"471 519 OFFCURVE",
"512 451 CURVE",
"601 543 LINE",
"536 630 OFFCURVE",
"450 670 OFFCURVE",
"327 670 CURVE SMOOTH"
);
}
);
};
layerId = "E6066FFC-F517-4FF7-83CA-D0EDF3B9A130";
name = "Regular 137, 0";
paths = (
{
closed = 1;
nodes = (
"156 670 OFFCURVE",
"61 579 OFFCURVE",
"61 462 CURVE SMOOTH",
"61 363 OFFCURVE",
"114 307 OFFCURVE",
"260 274 CURVE SMOOTH",
"356 252 LINE SMOOTH",
"431 235 OFFCURVE",
"458 213 OFFCURVE",
"458 180 CURVE SMOOTH",
"458 132 OFFCURVE",
"414 103 OFFCURVE",
"334 103 CURVE SMOOTH",
"246 103 OFFCURVE",
"168 129 OFFCURVE",
"114 209 CURVE",
"32 114 LINE",
"94 40 OFFCURVE",
"196 -10 OFFCURVE",
"329 -10 CURVE SMOOTH",
"487 -10 OFFCURVE",
"598 63 OFFCURVE",
"598 194 CURVE SMOOTH",
"598 284 OFFCURVE",
"548 339 OFFCURVE",
"429 367 CURVE SMOOTH",
"302 397 LINE SMOOTH",
"226 415 OFFCURVE",
"201 439 OFFCURVE",
"201 475 CURVE SMOOTH",
"201 522 OFFCURVE",
"242 557 OFFCURVE",
"325 557 CURVE SMOOTH",
"414 557 OFFCURVE",
"471 519 OFFCURVE",
"512 451 CURVE",
"601 543 LINE",
"536 630 OFFCURVE",
"450 670 OFFCURVE",
"327 670 CURVE SMOOTH"
);
}
);
width = 643;
},
{
anchors = (
{
name = bottom;
position = "{338, 0}";
},
{
name = bottomC;
position = "{330, 0}";
},
{
name = ogonek;
position = "{421, 0}";
},
{
name = top;
position = "{331, 660}";
}
);
associatedMasterId = "99EB5860-B45A-4B60-BB0B-F826C8F71D42";
layerId = "B6AB912E-7822-479D-A8BD-F1834DF9E870";
name = "Aug 13 18, 16:38";
paths = (
{
closed = 1;
nodes = (
"138 670 OFFCURVE",
"28 578 OFFCURVE",
"28 443 CURVE SMOOTH",
"28 280 OFFCURVE",
"185 251 OFFCURVE",
"292 232 CURVE SMOOTH",
"348 222 OFFCURVE",
"390 214 OFFCURVE",
"390 191 CURVE SMOOTH",
"390 174 OFFCURVE",
"373 161 OFFCURVE",
"317 161 CURVE SMOOTH",
"231 161 OFFCURVE",
"166 186 OFFCURVE",
"110 241 CURVE",
"10 83 LINE",
"91 24 OFFCURVE",
"167 -10 OFFCURVE",
"334 -10 CURVE SMOOTH",
"496 -10 OFFCURVE",
"629 63 OFFCURVE",
"629 203 CURVE SMOOTH",
"629 329 OFFCURVE",
"551 394 OFFCURVE",
"357 429 CURVE SMOOTH",
"305 438 OFFCURVE",
"267 444 OFFCURVE",
"267 461 CURVE SMOOTH",
"267 483 OFFCURVE",
"297 499 OFFCURVE",
"344 499 CURVE SMOOTH",
"419 499 OFFCURVE",
"478 476 OFFCURVE",
"539 420 CURVE",
"641 565 LINE",
"548 646 OFFCURVE",
"463 670 OFFCURVE",
"337 670 CURVE SMOOTH"
);
}
);
width = 646;
},
{
anchors = (
{
name = bottom;
position = "{359, 0}";
},
{
name = bottomC;
position = "{329, 0}";
},
{
name = ogonek;
position = "{409, 0}";
},
{
name = top;
position = "{326, 660}";
}
);
associatedMasterId = "4A17B37A-CBFD-40E5-9E02-2080A0E1F76C";
background = {
paths = (
{
closed = 1;
nodes = (
"167 670 OFFCURVE",
"74 580 OFFCURVE",
"74 474 CURVE SMOOTH",
"74 395 OFFCURVE",
"120 332 OFFCURVE",
"241 305 CURVE SMOOTH",
"398 270 LINE SMOOTH",
"475 253 OFFCURVE",
"498 216 OFFCURVE",
"498 174 CURVE SMOOTH",
"498 103 OFFCURVE",
"430 65 OFFCURVE",
"328 65 CURVE SMOOTH",
"220 65 OFFCURVE",
"152 113 OFFCURVE",
"117 189 CURVE",
"48 133 LINE",
"94 51 OFFCURVE",
"186 -10 OFFCURVE",
"326 -10 CURVE SMOOTH",
"480 -10 OFFCURVE",
"581 65 OFFCURVE",
"581 178 CURVE SMOOTH",
"581 262 OFFCURVE",
"537 322 OFFCURVE",
"411 350 CURVE SMOOTH",
"268 382 LINE SMOOTH",
"180 402 OFFCURVE",
"158 438 OFFCURVE",
"158 483 CURVE SMOOTH",
"158 546 OFFCURVE",
"216 595 OFFCURVE",
"321 595 CURVE SMOOTH",
"418 595 OFFCURVE",
"466 561 OFFCURVE",
"506 474 CURVE",
"575 530 LINE",
"524 622 OFFCURVE",
"441 670 OFFCURVE",
"320 670 CURVE SMOOTH"
);
}
);
};
layerId = "86E24CE1-DADB-46A9-8FC9-C21850B56105";
name = "Sep 2 18, 17:31";
paths = (
{
closed = 1;
nodes = (
"167 670 OFFCURVE",
"74 580 OFFCURVE",
"74 474 CURVE SMOOTH",
"74 373 OFFCURVE",
"138 319 OFFCURVE",
"316 288 CURVE SMOOTH",
"455 264 OFFCURVE",
"498 231 OFFCURVE",
"498 174 CURVE SMOOTH",
"498 103 OFFCURVE",
"430 65 OFFCURVE",
"328 65 CURVE SMOOTH",
"220 65 OFFCURVE",
"152 113 OFFCURVE",
"117 189 CURVE",
"48 133 LINE",
"94 51 OFFCURVE",
"186 -10 OFFCURVE",
"326 -10 CURVE SMOOTH",
"480 -10 OFFCURVE",
"581 65 OFFCURVE",
"581 178 CURVE SMOOTH",
"581 280 OFFCURVE",
"518 336 OFFCURVE",
"341 366 CURVE SMOOTH",
"202 390 OFFCURVE",
"158 421 OFFCURVE",
"158 483 CURVE SMOOTH",
"158 546 OFFCURVE",
"216 595 OFFCURVE",
"321 595 CURVE SMOOTH",
"418 595 OFFCURVE",
"466 561 OFFCURVE",
"506 474 CURVE",
"575 530 LINE",
"524 622 OFFCURVE",
"441 670 OFFCURVE",
"320 670 CURVE SMOOTH"
);
}
);
width = 641;
},
{
anchors = (
{
name = bottom;
position = "{311, 0}";
},
{
name = bottomC;
position = "{279, 0}";
},
{
name = ogonek;
position = "{393, 0}";
},
{
name = top;
position = "{290, 660}";
}
);
associatedMasterId = "1C7CD022-87C7-4E11-B656-E47B18819458";
layerId = "C1C72F67-B907-4C3D-90B4-1D9B5B79F945";
name = "Sep 2 18, 17:31";
paths = (
{
closed = 1;
nodes = (
"147 670 OFFCURVE",
"60 586 OFFCURVE",
"60 492 CURVE SMOOTH",
"60 395 OFFCURVE",
"121 347 OFFCURVE",
"313 315 CURVE SMOOTH",
"475 288 OFFCURVE",
"532 242 OFFCURVE",
"532 160 CURVE SMOOTH",
"532 60 OFFCURVE",
"433 4 OFFCURVE",
"309 4 CURVE SMOOTH",
"179 4 OFFCURVE",
"75 57 OFFCURVE",
"57 174 CURVE",
"42 166 LINE",
"64 45 OFFCURVE",
"171 -10 OFFCURVE",
"309 -10 CURVE SMOOTH",
"450 -10 OFFCURVE",
"548 60 OFFCURVE",
"548 160 CURVE SMOOTH",
"548 254 OFFCURVE",
"486 302 OFFCURVE",
"316 331 CURVE SMOOTH",
"131 363 OFFCURVE",
"76 407 OFFCURVE",
"76 492 CURVE SMOOTH",
"76 584 OFFCURVE",
"161 656 OFFCURVE",
"295 656 CURVE SMOOTH",
"415 656 OFFCURVE",
"496 610 OFFCURVE",
"523 507 CURVE",
"536 517 LINE",
"505 623 OFFCURVE",
"420 670 OFFCURVE",
"295 670 CURVE SMOOTH"
);
}
);
width = 594;
},
{
anchors = (
{
name = bottom;
position = "{338, 0}";
},
{
name = bottomC;
position = "{330, 0}";
},
{
name = ogonek;
position = "{421, 0}";
},
{
name = top;
position = "{331, 660}";
}
);
associatedMasterId = "99EB5860-B45A-4B60-BB0B-F826C8F71D42";
background = {
anchors = (
{
name = bottom;
position = "{338, 0}";
},
{
name = bottomC;
position = "{330, 0}";
},
{
name = ogonek;
position = "{421, 0}";
},
{
name = top;
position = "{331, 660}";
}
);
paths = (
{
closed = 1;
nodes = (
"138 670 OFFCURVE",
"28 578 OFFCURVE",
"28 443 CURVE SMOOTH",
"28 287 OFFCURVE",
"169 264 OFFCURVE",
"292 237 CURVE SMOOTH",
"369 220 OFFCURVE",
"391 214 OFFCURVE",
"390 189 CURVE SMOOTH",
"389 172 OFFCURVE",
"373 159 OFFCURVE",
"327 159 CURVE SMOOTH",
"251 159 OFFCURVE",
"158 200 OFFCURVE",
"98 243 CURVE",
"10 83 LINE",
"91 24 OFFCURVE",
"207 -10 OFFCURVE",
"334 -10 CURVE SMOOTH",
"498 -10 OFFCURVE",
"629 63 OFFCURVE",
"629 223 CURVE SMOOTH",
"629 329 OFFCURVE",
"560 387 OFFCURVE",
"402 419 CURVE SMOOTH",
"304 439 OFFCURVE",
"269 447 OFFCURVE",
"269 468 CURVE SMOOTH",
"269 486 OFFCURVE",
"287 499 OFFCURVE",
"339 499 CURVE SMOOTH",
"419 499 OFFCURVE",
"488 470 OFFCURVE",
"549 414 CURVE",
"641 568 LINE",
"558 639 OFFCURVE",
"451 670 OFFCURVE",
"337 670 CURVE SMOOTH"
);
}
);
};
layerId = "3767A971-E078-4FCF-8ABB-F9AB719ED90D";
name = "Sep 2 18, 17:32";
paths = (
{
closed = 1;
nodes = (
"138 670 OFFCURVE",
"28 578 OFFCURVE",
"28 443 CURVE SMOOTH",
"28 287 OFFCURVE",
"169 264 OFFCURVE",
"292 237 CURVE SMOOTH",
"369 220 OFFCURVE",
"391 214 OFFCURVE",
"390 189 CURVE SMOOTH",
"389 172 OFFCURVE",
"373 159 OFFCURVE",
"327 159 CURVE SMOOTH",
"251 159 OFFCURVE",
"158 200 OFFCURVE",
"98 243 CURVE",
"10 83 LINE",
"91 24 OFFCURVE",
"207 -10 OFFCURVE",
"334 -10 CURVE SMOOTH",
"498 -10 OFFCURVE",
"629 63 OFFCURVE",
"629 223 CURVE SMOOTH",
"629 329 OFFCURVE",
"560 387 OFFCURVE",
"402 419 CURVE SMOOTH",
"304 439 OFFCURVE",
"269 447 OFFCURVE",
"269 468 CURVE SMOOTH",
"269 486 OFFCURVE",
"287 499 OFFCURVE",
"339 499 CURVE SMOOTH",
"419 499 OFFCURVE",
"488 470 OFFCURVE",
"549 414 CURVE",
"641 568 LINE",
"558 639 OFFCURVE",
"451 670 OFFCURVE",
"337 670 CURVE SMOOTH"
);
}
);
width = 646;
},
{
anchors = (
{
name = bottom;
position = "{338, 0}";
},
{
name = bottomC;
position = "{330, 0}";
},
{
name = ogonek;
position = "{421, 0}";
},
{
name = top;
position = "{331, 660}";
}
);
associatedMasterId = "99EB5860-B45A-4B60-BB0B-F826C8F71D42";
background = {
anchors = (
{
name = bottom;
position = "{338, 0}";
},
{
name = bottomC;
position = "{330, 0}";
},
{
name = ogonek;
position = "{421, 0}";
},
{
name = top;
position = "{331, 660}";
}
);
paths = (
{
closed = 1;
nodes = (
"138 670 OFFCURVE",
"28 578 OFFCURVE",
"28 443 CURVE SMOOTH",
"28 287 OFFCURVE",
"169 264 OFFCURVE",
"292 237 CURVE SMOOTH",
"369 220 OFFCURVE",
"391 214 OFFCURVE",
"390 189 CURVE SMOOTH",
"389 172 OFFCURVE",
"373 159 OFFCURVE",
"327 159 CURVE SMOOTH",
"251 159 OFFCURVE",
"158 200 OFFCURVE",
"98 243 CURVE",
"10 83 LINE",
"91 24 OFFCURVE",
"207 -10 OFFCURVE",
"334 -10 CURVE SMOOTH",
"498 -10 OFFCURVE",
"629 63 OFFCURVE",
"629 223 CURVE SMOOTH",
"629 329 OFFCURVE",
"560 387 OFFCURVE",
"402 419 CURVE SMOOTH",
"304 439 OFFCURVE",
"269 447 OFFCURVE",
"269 468 CURVE SMOOTH",
"269 486 OFFCURVE",
"287 499 OFFCURVE",
"339 499 CURVE SMOOTH",
"419 499 OFFCURVE",
"488 470 OFFCURVE",
"549 414 CURVE",
"641 568 LINE",
"558 639 OFFCURVE",
"451 670 OFFCURVE",
"337 670 CURVE SMOOTH"
);
}
);
};
layerId = "16877038-FD04-4D2A-8CE8-8B7ED05004E7";
name = "Sep 16 18, 16:51";
paths = (
{
closed = 1;
nodes = (
"138 670 OFFCURVE",
"28 578 OFFCURVE",
"28 443 CURVE SMOOTH",
"28 311 OFFCURVE",
"131 271 OFFCURVE",
"237 248 CURVE SMOOTH",
"337 226 LINE SMOOTH",
"378 217 OFFCURVE",
"391 208 OFFCURVE",
"390 189 CURVE SMOOTH",
"389 172 OFFCURVE",
"373 159 OFFCURVE",
"327 159 CURVE SMOOTH",
"251 159 OFFCURVE",
"158 200 OFFCURVE",
"98 243 CURVE",
"10 83 LINE",
"91 24 OFFCURVE",
"207 -10 OFFCURVE",
"334 -10 CURVE SMOOTH",
"498 -10 OFFCURVE",
"629 63 OFFCURVE",
"629 223 CURVE SMOOTH",
"629 329 OFFCURVE",
"560 381 OFFCURVE",
"425 412 CURVE SMOOTH",
"334 433 LINE SMOOTH",
"296 442 OFFCURVE",
"269 450 OFFCURVE",
"269 468 CURVE SMOOTH",
"269 486 OFFCURVE",
"287 499 OFFCURVE",
"339 499 CURVE SMOOTH",
"419 499 OFFCURVE",
"488 470 OFFCURVE",
"549 414 CURVE",
"641 568 LINE",
"558 639 OFFCURVE",
"451 670 OFFCURVE",
"337 670 CURVE SMOOTH"
);
}
);
width = 646;
}
);
leftKerningGroup = S;
rightKerningGroup = S;
unicode = 0053;
},
{
glyphname = Germandbls;
layers = (
{
anchors = (
{
name = bottom;
position = "{321, 0}";
},
{
name = ogonek;
position = "{440, 0}";
},
{
name = top;
position = "{321, 655}";
}
);
layerId = "1C7CD022-87C7-4E11-B656-E47B18819458";
paths = (
{
closed = 1;
nodes = (
"515 -5 OFFCURVE",
"583 76 OFFCURVE",
"583 176 CURVE SMOOTH",
"583 290 OFFCURVE",
"519 344 OFFCURVE",
"391 344 CURVE SMOOTH",
"300 344 LINE",
"305 344 LINE",
"548 645 LINE",
"548 660 LINE",
"299 660 LINE SMOOTH",
"166 660 OFFCURVE",
"87 573 OFFCURVE",
"87 443 CURVE SMOOTH",
"87 0 LINE",
"103 0 LINE",
"103 442 LINE SMOOTH",
"103 563 OFFCURVE",
"177 646 OFFCURVE",
"299 646 CURVE SMOOTH",
"530 646 LINE",
"287 344 LINE",
"287 330 LINE",
"391 330 LINE SMOOTH",
"509 330 OFFCURVE",
"567 281 OFFCURVE",
"567 176 CURVE SMOOTH",
"567 84 OFFCURVE",
"502 9 OFFCURVE",
"400 9 CURVE SMOOTH",
"327 9 OFFCURVE",
"279 39 OFFCURVE",
"255 67 CURVE",
"244 55 LINE",
"267 27 OFFCURVE",
"319 -5 OFFCURVE",
"400 -5 CURVE SMOOTH"
);
}
);
width = 616;
},
{
anchors = (
{
name = bottom;
position = "{367, 0}";
},
{
name = ogonek;
position = "{475, 0}";
},
{
name = top;
position = "{367, 660}";
}
);
layerId = "4A17B37A-CBFD-40E5-9E02-2080A0E1F76C";
paths = (
{
closed = 1;
nodes = (
"552 -5 OFFCURVE",
"638 70 OFFCURVE",
"638 193 CURVE SMOOTH",
"638 303 OFFCURVE",
"558 370 OFFCURVE",
"447 370 CURVE SMOOTH",
"407 370 LINE",
"412 370 LINE",
"595 584 LINE",
"595 660 LINE",
"317 660 LINE SMOOTH",
"190 660 OFFCURVE",
"95 573 OFFCURVE",
"95 443 CURVE SMOOTH",
"95 0 LINE",
"175 0 LINE",
"175 442 LINE SMOOTH",
"175 525 OFFCURVE",
"240 585 OFFCURVE",
"317 585 CURVE SMOOTH",
"500 585 LINE",
"326 370 LINE",
"326 302 LINE",
"427 302 LINE SMOOTH",
"505 302 OFFCURVE",
"556 263 OFFCURVE",
"556 191 CURVE SMOOTH",
"556 122 OFFCURVE",
"511 68 OFFCURVE",
"428 68 CURVE SMOOTH",
"376 68 OFFCURVE",
"329 88 OFFCURVE",
"301 118 CURVE",
"265 49 LINE",
"291 21 OFFCURVE",
"350 -5 OFFCURVE",
"433 -5 CURVE SMOOTH"
);
}
);
width = 671;
},
{
anchors = (
{
name = bottom;
position = "{362, 0}";
},
{
name = ogonek;
position = "{548, 0}";
},
{
name = top;
position = "{362, 660}";
}
);
layerId = "99EB5860-B45A-4B60-BB0B-F826C8F71D42";
paths = (
{
closed = 1;
nodes = (
"622 -5 OFFCURVE",
"717 56 OFFCURVE",
"717 189 CURVE SMOOTH",
"717 311 OFFCURVE",
"625 355 OFFCURVE",
"555 355 CURVE SMOOTH",
"534 355 LINE",
"484 280 LINE",
"682 498 LINE",
"682 660 LINE",
"346 660 LINE SMOOTH",
"153 660 OFFCURVE",
"41 565 OFFCURVE",
"41 403 CURVE SMOOTH",
"41 0 LINE",
"274 0 LINE",
"274 362 LINE SMOOTH",
"274 449 OFFCURVE",
"316 494 OFFCURVE",
"396 494 CURVE SMOOTH",
"472 494 LINE",
"343 356 LINE",
"343 243 LINE",
"439 243 LINE SMOOTH",
"478 243 OFFCURVE",
"504 231 OFFCURVE",
"504 198 CURVE SMOOTH",
"504 168 OFFCURVE",
"479 151 OFFCURVE",
"443 151 CURVE SMOOTH",
"402 151 OFFCURVE",
"383 158 OFFCURVE",
"358 177 CURVE",
"304 49 LINE",
"342 14 OFFCURVE",
"393 -5 OFFCURVE",
"496 -5 CURVE SMOOTH"
);
}
);
width = 728;
}
);
leftKerningGroup = Germandbls;
rightKerningGroup = Germandbls;
unicode = 1E9E;
},
{
glyphname = Schwa;
layers = (
{
anchors = (
{
name = bottom;
position = "{337, 0}";
},
{
name = top;
position = "{337, 660}";
}
);
layerId = "1C7CD022-87C7-4E11-B656-E47B18819458";
paths = (
{
closed = 1;
nodes = (
"507 -10 OFFCURVE",
"617 122 OFFCURVE",
"617 330 CURVE SMOOTH",
"617 538 OFFCURVE",
"508 670 OFFCURVE",
"334 670 CURVE SMOOTH",
"201 670 OFFCURVE",
"103 602 OFFCURVE",
"58 477 CURVE",
"72 471 LINE",
"115 589 OFFCURVE",
"206 656 OFFCURVE",
"334 656 CURVE SMOOTH",
"498 656 OFFCURVE",
"601 531 OFFCURVE",
"601 330 CURVE SMOOTH",
"601 130 OFFCURVE",
"498 4 OFFCURVE",
"334 4 CURVE SMOOTH",
"173 4 OFFCURVE",
"67 122 OFFCURVE",
"67 319 CURVE SMOOTH",
"67 321 OFFCURVE",
"67 323 OFFCURVE",
"67 325 CURVE",
"59 318 LINE",
"601 318 LINE",
"601 332 LINE",
"51 332 LINE",
"51 327 OFFCURVE",
"51 323 OFFCURVE",
"51 318 CURVE SMOOTH",
"51 117 OFFCURVE",
"160 -10 OFFCURVE",
"334 -10 CURVE SMOOTH"
);
}
);
width = 673;
},
{
anchors = (
{
name = bottom;
position = "{357, 0}";
},
{
name = top;
position = "{357, 660}";
}
);
layerId = "4A17B37A-CBFD-40E5-9E02-2080A0E1F76C";
paths = (
{
closed = 1;
nodes = (
"525 -10 OFFCURVE",
"645 121 OFFCURVE",
"645 330 CURVE SMOOTH",
"645 539 OFFCURVE",
"529 670 OFFCURVE",
"341 670 CURVE SMOOTH",
"212 670 OFFCURVE",
"111 601 OFFCURVE",
"67 488 CURVE",
"151 458 LINE",
"182 547 OFFCURVE",
"248 595 OFFCURVE",
"341 595 CURVE SMOOTH",
"478 595 OFFCURVE",
"561 496 OFFCURVE",
"561 330 CURVE SMOOTH",
"561 153 OFFCURVE",
"481 65 OFFCURVE",
"348 65 CURVE SMOOTH",
"236 65 OFFCURVE",
"144 142 OFFCURVE",
"144 274 CURVE SMOOTH",
"144 286 OFFCURVE",
"144 298 OFFCURVE",
"146 311 CURVE",
"102 279 LINE",
"596 279 LINE",
"596 359 LINE",
"58 359 LINE",
"56 339 OFFCURVE",
"55 321 OFFCURVE",
"55 302 CURVE SMOOTH",
"55 106 OFFCURVE",
"174 -10 OFFCURVE",
"341 -10 CURVE SMOOTH"
);
}
);
width = 713;
},
{
anchors = (
{
name = bottom;
position = "{352, 0}";
},
{
name = top;
position = "{352, 660}";
}
);
layerId = "99EB5860-B45A-4B60-BB0B-F826C8F71D42";
paths = (
{
closed = 1;
nodes = (
"548 -10 OFFCURVE",
"675 114 OFFCURVE",
"675 330 CURVE SMOOTH",
"675 546 OFFCURVE",
"553 670 OFFCURVE",
"344 670 CURVE SMOOTH",
"193 670 OFFCURVE",
"68 605 OFFCURVE",
"31 450 CURVE",
"243 411 LINE",
"254 464 OFFCURVE",
"278 495 OFFCURVE",
"342 495 CURVE SMOOTH",
"409 495 OFFCURVE",
"442 448 OFFCURVE",
"442 346 CURVE SMOOTH",
"442 222 OFFCURVE",
"417 165 OFFCURVE",
"345 165 CURVE SMOOTH",
"288 165 OFFCURVE",
"252 197 OFFCURVE",
"252 281 CURVE SMOOTH",
"252 291 OFFCURVE",
"253 303 OFFCURVE",
"254 315 CURVE",
"137 244 LINE",
"544 244 LINE",
"544 359 LINE",
"30 359 LINE",
"28 339 OFFCURVE",
"26 320 OFFCURVE",
"26 301 CURVE SMOOTH",
"26 127 OFFCURVE",
"130 -10 OFFCURVE",
"339 -10 CURVE SMOOTH"
);
}
);
width = 704;
},
{
associatedMasterId = "1C7CD022-87C7-4E11-B656-E47B18819458";
background = {
paths = (
{
closed = 1;
nodes = (
"512 -10 OFFCURVE",
"617 121 OFFCURVE",
"617 330 CURVE SMOOTH",
"617 539 OFFCURVE",
"508 670 OFFCURVE",
"335 670 CURVE SMOOTH",
"198 670 OFFCURVE",
"93 599 OFFCURVE",
"59 475 CURVE",
"73 470 LINE",
"106 588 OFFCURVE",
"205 656 OFFCURVE",
"335 656 CURVE SMOOTH",
"498 656 OFFCURVE",
"601 530 OFFCURVE",
"601 330 CURVE SMOOTH",
"601 130 OFFCURVE",
"502 4 OFFCURVE",
"332 4 CURVE SMOOTH",
"202 4 OFFCURVE",
"67 97 OFFCURVE",
"67 296 CURVE SMOOTH",
"67 304 OFFCURVE",
"67 309 OFFCURVE",
"68 318 CURVE",
"60 310 LINE",
"605 310 LINE",
"605 324 LINE",
"52 324 LINE",
"51 314 OFFCURVE",
"51 304 OFFCURVE",
"51 294 CURVE SMOOTH",
"51 122 OFFCURVE",
"158 -10 OFFCURVE",
"332 -10 CURVE SMOOTH"
);
}
);
};
layerId = "AD926F97-325C-4AD5-8064-06AA5BB2A53C";
name = "Aug 15 18, 20:38";
paths = (
{
closed = 1;
nodes = (
"627 535 OFFCURVE",
"514 663 OFFCURVE",
"334 663 CURVE SMOOTH",
"154 663 OFFCURVE",
"41 535 OFFCURVE",
"41 330 CURVE SMOOTH",
"41 126 OFFCURVE",
"154 -3 OFFCURVE",
"334 -3 CURVE SMOOTH",
"514 -3 OFFCURVE",
"627 126 OFFCURVE",
"627 330 CURVE SMOOTH"
);
}
);
width = 668;
},
{
associatedMasterId = "1C7CD022-87C7-4E11-B656-E47B18819458";
background = {
paths = (
{
closed = 1;
nodes = (
"507 -10 OFFCURVE",
"617 122 OFFCURVE",
"617 330 CURVE SMOOTH",
"617 538 OFFCURVE",
"508 670 OFFCURVE",
"334 670 CURVE SMOOTH",
"201 670 OFFCURVE",
"101 599 OFFCURVE",
"58 475 CURVE",
"73 470 LINE",
"114 587 OFFCURVE",
"206 656 OFFCURVE",
"334 656 CURVE SMOOTH",
"498 656 OFFCURVE",
"601 531 OFFCURVE",
"601 330 CURVE SMOOTH",
"601 130 OFFCURVE",
"498 4 OFFCURVE",
"334 4 CURVE SMOOTH",
"171 4 OFFCURVE",
"65 124 OFFCURVE",
"67 325 CURVE",
"59 318 LINE",
"601 318 LINE",
"601 332 LINE",
"51 332 LINE",
"46 123 OFFCURVE",
"156 -10 OFFCURVE",
"334 -10 CURVE SMOOTH"
);
}
);
};
layerId = "C9C73742-9E4D-43D5-90DC-FB1A83A91828";
name = "Aug 15 18, 20:40";
paths = (
{
closed = 1;
nodes = (
"512 -10 OFFCURVE",
"617 121 OFFCURVE",
"617 330 CURVE SMOOTH",
"617 539 OFFCURVE",
"508 670 OFFCURVE",
"335 670 CURVE SMOOTH",
"198 670 OFFCURVE",
"93 599 OFFCURVE",
"59 475 CURVE",
"73 470 LINE",
"106 588 OFFCURVE",
"205 656 OFFCURVE",
"335 656 CURVE SMOOTH",
"498 656 OFFCURVE",
"601 530 OFFCURVE",
"601 330 CURVE SMOOTH",
"601 130 OFFCURVE",
"502 4 OFFCURVE",
"332 4 CURVE SMOOTH",
"202 4 OFFCURVE",
"67 97 OFFCURVE",
"67 296 CURVE SMOOTH",
"67 304 OFFCURVE",
"67 309 OFFCURVE",
"68 318 CURVE",
"60 310 LINE",
"605 310 LINE",
"605 324 LINE",
"52 324 LINE",
"51 314 OFFCURVE",
"51 304 OFFCURVE",
"51 294 CURVE SMOOTH",
"51 122 OFFCURVE",
"158 -10 OFFCURVE",
"332 -10 CURVE SMOOTH"
);
}
);
width = 673;
}
);
leftKerningGroup = O;
rightKerningGroup = O;
rightMetricsKey = O;
unicode = 018F;
},
{
glyphname = T;
layers = (
{
anchors = (
{
name = bottom;
position = "{302, 0}";
},
{
name = center;
position = "{302, 322}";
},
{
name = ogonek;
position = "{342, 0}";
},
{
name = top;
position = "{302, 660}";
}
);
layerId = "4A17B37A-CBFD-40E5-9E02-2080A0E1F76C";
paths = (
{
closed = 1;
nodes = (
"32 660 LINE",
"32 585 LINE",
"262 585 LINE",
"262 0 LINE",
"342 0 LINE",
"342 585 LINE",
"572 585 LINE",
"572 660 LINE"
);
}
);
width = 604;
},
{
anchors = (
{
name = bottom;
position = "{343, 0}";
},
{
name = center;
position = "{343, 289}";
},
{
name = ogonek;
position = "{460, 0}";
},
{
name = top;
position = "{343, 660}";
}
);
layerId = "99EB5860-B45A-4B60-BB0B-F826C8F71D42";
paths = (
{
closed = 1;
nodes = (
"20 660 LINE",
"20 489 LINE",
"227 489 LINE",
"227 0 LINE",
"460 0 LINE",
"460 489 LINE",
"666 489 LINE",
"666 660 LINE"
);
}
);
width = 686;
},
{
anchors = (
{
name = bottom;
position = "{272, 0}";
},
{
name = center;
position = "{272, 341}";
},
{
name = ogonek;
position = "{280, 0}";
},
{
name = top;
position = "{272, 660}";
}
);
layerId = "1C7CD022-87C7-4E11-B656-E47B18819458";
paths = (
{
closed = 1;
nodes = (
"11 660 LINE",
"11 646 LINE",
"264 646 LINE",
"264 0 LINE",
"280 0 LINE",
"280 646 LINE",
"533 646 LINE",
"533 660 LINE"
);
}
);
width = 544;
}
);
leftKerningGroup = T;
rightKerningGroup = T;
unicode = 0054;
},
{
glyphname = Tcedilla;
layers = (
{
components = (
{
name = T;
}
);
layerId = "4A17B37A-CBFD-40E5-9E02-2080A0E1F76C";
paths = (
{
closed = 1;
nodes = (
"310 -24 OFFCURVE",
"332 -46 OFFCURVE",
"332 -81 CURVE SMOOTH",
"332 -127 OFFCURVE",
"305 -151 OFFCURVE",
"268 -151 CURVE SMOOTH",
"238 -151 OFFCURVE",
"219 -140 OFFCURVE",
"201 -128 CURVE",
"182 -186 LINE",
"205 -203 OFFCURVE",
"235 -215 OFFCURVE",
"277 -215 CURVE SMOOTH",
"347 -215 OFFCURVE",
"398 -163 OFFCURVE",
"398 -99 CURVE SMOOTH",
"398 -41 OFFCURVE",
"367 4 OFFCURVE",
"289 29 CURVE",
"262 0 LINE"
);
}
);
width = 604;
},
{
components = (
{
name = T;
}
);
layerId = "99EB5860-B45A-4B60-BB0B-F826C8F71D42";
leftMetricsKey = "=T";
rightMetricsKey = "=T";
paths = (
{
closed = 1;
nodes = (
"334 -6 OFFCURVE",
"358 -28 OFFCURVE",
"358 -56 CURVE SMOOTH",
"358 -85 OFFCURVE",
"337 -104 OFFCURVE",
"305 -104 CURVE SMOOTH",
"279 -104 OFFCURVE",
"263 -98 OFFCURVE",
"249 -89 CURVE",
"216 -186 LINE",
"240 -201 OFFCURVE",
"266 -215 OFFCURVE",
"323 -215 CURVE SMOOTH",
"421 -215 OFFCURVE",
"477 -167 OFFCURVE",
"477 -84 CURVE SMOOTH",
"477 -6 OFFCURVE",
"417 34 OFFCURVE",
"295 42 CURVE",
"255 14 LINE"
);
}
);
width = 686;
},
{
components = (
{
name = T;
}
);
layerId = "1C7CD022-87C7-4E11-B656-E47B18819458";
paths = (
{
closed = 1;
nodes = (
"333 -37 OFFCURVE",
"344 -73 OFFCURVE",
"344 -115 CURVE SMOOTH",
"344 -161 OFFCURVE",
"314 -189 OFFCURVE",
"271 -189 CURVE SMOOTH",
"237 -189 OFFCURVE",
"211 -178 OFFCURVE",
"185 -148 CURVE",
"177 -160 LINE",
"202 -190 OFFCURVE",
"231 -202 OFFCURVE",
"271 -202 CURVE SMOOTH",
"323 -202 OFFCURVE",
"359 -168 OFFCURVE",
"359 -114 CURVE SMOOTH",
"359 -67 OFFCURVE",
"345 -31 OFFCURVE",
"277 3 CURVE",
"264 0 LINE"
);
}
);
width = 544;
}
);
leftKerningGroup = T;
leftMetricsKey = T;
rightKerningGroup = T;
rightMetricsKey = T;
unicode = 0162;
},
{
glyphname = U;
layers = (
{
anchors = (
{
name = bottom;
position = "{354, 0}";
},
{
name = ogonek;
position = "{478, 11}";
},
{
name = top;
position = "{354, 635}";
},
{
name = top_ring;
position = "{354, 608}";
},
{
name = topright;
position = "{626, 660}";
}
);
layerId = "4A17B37A-CBFD-40E5-9E02-2080A0E1F76C";
paths = (
{
closed = 1;
nodes = (
"533 660 LINE",
"533 266 LINE SMOOTH",
"533 128 OFFCURVE",
"477 65 OFFCURVE",
"354 65 CURVE SMOOTH",
"231 65 OFFCURVE",
"175 128 OFFCURVE",
"175 266 CURVE SMOOTH",
"175 660 LINE",
"95 660 LINE",
"95 246 LINE SMOOTH",
"95 76 OFFCURVE",
"188 -10 OFFCURVE",
"354 -10 CURVE SMOOTH",
"521 -10 OFFCURVE",
"613 76 OFFCURVE",
"613 246 CURVE SMOOTH",
"613 660 LINE"
);
}
);
width = 708;
},
{
anchors = (
{
name = bottom;
position = "{356, 0}";
},
{
name = ogonek;
position = "{494, 8}";
},
{
name = top;
position = "{356, 660}";
},
{
name = top_ring;
position = "{356, 653}";
},
{
name = topright;
position = "{675, 660}";
}
);
layerId = "99EB5860-B45A-4B60-BB0B-F826C8F71D42";
paths = (
{
closed = 1;
nodes = (
"442 660 LINE",
"442 266 LINE SMOOTH",
"442 199 OFFCURVE",
"412 165 OFFCURVE",
"356 165 CURVE SMOOTH",
"301 165 OFFCURVE",
"271 199 OFFCURVE",
"271 266 CURVE SMOOTH",
"271 660 LINE",
"37 660 LINE",
"37 284 LINE SMOOTH",
"37 87 OFFCURVE",
"143 -10 OFFCURVE",
"356 -10 CURVE SMOOTH",
"569 -10 OFFCURVE",
"675 87 OFFCURVE",
"675 284 CURVE SMOOTH",
"675 660 LINE"
);
}
);
width = 712;
},
{
anchors = (
{
name = bottom;
position = "{332, 0}";
},
{
name = ogonek;
position = "{428, 8}";
},
{
name = top;
position = "{332, 620}";
},
{
name = top_ring;
position = "{332, 598}";
},
{
name = topright;
position = "{626, 660}";
}
);
layerId = "1C7CD022-87C7-4E11-B656-E47B18819458";
paths = (
{
closed = 1;
nodes = (
"565 660 LINE",
"565 235 LINE SMOOTH",
"565 88 OFFCURVE",
"478 4 OFFCURVE",
"332 4 CURVE SMOOTH",
"186 4 OFFCURVE",
"99 88 OFFCURVE",
"99 235 CURVE SMOOTH",
"99 660 LINE",
"83 660 LINE",
"83 235 LINE SMOOTH",
"83 78 OFFCURVE",
"176 -10 OFFCURVE",
"332 -10 CURVE SMOOTH",
"488 -10 OFFCURVE",
"581 78 OFFCURVE",
"581 235 CURVE SMOOTH",
"581 660 LINE"
);
}
);
width = 664;
}
);
leftKerningGroup = U;
rightKerningGroup = U;
rightMetricsKey = "=|";
unicode = 0055;
},
{
glyphname = V;
layers = (
{
anchors = (
{
name = bottom;
position = "{324, 0}";
},
{
name = ogonek;
position = "{370, 0}";
},
{
name = top;
position = "{324, 660}";
}
);
guideLines = (
{
angle = 180;
position = "{290, 202}";
}
);
layerId = "4A17B37A-CBFD-40E5-9E02-2080A0E1F76C";
paths = (
{
closed = 1;
nodes = (
"534 660 LINE",
"366 203 LINE",
"324 73 LINE",
"282 204 LINE",
"114 660 LINE",
"28 660 LINE",
"279 0 LINE",
"370 0 LINE",
"620 660 LINE"
);
}
);
width = 648;
},
{
anchors = (
{
name = bottom;
position = "{354, 0}";
},
{
name = ogonek;
position = "{492, 0}";
},
{
name = top;
position = "{354, 660}";
}
);
layerId = "99EB5860-B45A-4B60-BB0B-F826C8F71D42";
paths = (
{
closed = 1;
nodes = (
"481 660 LINE",
"388 297 LINE",
"358 170 LINE",
"326 299 LINE",
"235 660 LINE",
"-8 660 LINE",
"215 0 LINE",
"492 0 LINE",
"715 660 LINE"
);
}
);
width = 707;
},
{
anchors = (
{
name = bottom;
position = "{288, 0}";
},
{
name = ogonek;
position = "{299, 0}";
},
{
name = top;
position = "{288, 660}";
}
);
layerId = "1C7CD022-87C7-4E11-B656-E47B18819458";
paths = (
{
closed = 1;
nodes = (
"542 660 LINE",
"315 87 LINE",
"288 18 LINE",
"261 87 LINE",
"34 660 LINE",
"17 660 LINE",
"277 0 LINE",
"299 0 LINE",
"559 660 LINE"
);
}
);
width = 576;
}
);
unicode = 0056;
},
{
glyphname = W;
layers = (
{
anchors = (
{
name = bottom;
position = "{481, 0}";
},
{
name = ogonek;
position = "{731, 0}";
},
{
name = top;
position = "{481, 660}";
}
);
guideLines = (
{
angle = 180;
position = "{298, 202}";
}
);
layerId = "4A17B37A-CBFD-40E5-9E02-2080A0E1F76C";
paths = (
{
closed = 1;
nodes = (
"330 0 LINE",
"446 428 LINE",
"480 577 LINE",
"481 577 LINE",
"515 428 LINE",
"632 0 LINE",
"731 0 LINE",
"925 660 LINE",
"846 660 LINE",
"683 71 LINE",
"528 660 LINE",
"437 660 LINE",
"282 73 LINE",
"119 660 LINE",
"36 660 LINE",
"231 0 LINE"
);
}
);
width = 961;
},
{
anchors = (
{
name = bottom;
position = "{510, 0}";
},
{
name = ogonek;
position = "{840, 0}";
},
{
name = top;
position = "{510, 660}";
}
);
layerId = "99EB5860-B45A-4B60-BB0B-F826C8F71D42";
paths = (
{
closed = 1;
nodes = (
"435 0 LINE",
"486 248 LINE",
"512 417 LINE",
"515 417 LINE",
"541 248 LINE",
"593 0 LINE",
"840 0 LINE",
"1028 660 LINE",
"786 660 LINE",
"711 186 LINE",
"613 660 LINE",
"413 660 LINE",
"320 183 LINE",
"243 660 LINE",
"-8 660 LINE",
"179 0 LINE"
);
}
);
width = 1021;
},
{
anchors = (
{
name = bottom;
position = "{455, 0}";
},
{
name = ogonek;
position = "{668, 0}";
},
{
name = top;
position = "{455, 660}";
}
);
layerId = "1C7CD022-87C7-4E11-B656-E47B18819458";
paths = (
{
closed = 1;
nodes = (
"262 0 LINE",
"414 502 LINE",
"454 638 LINE",
"455 638 LINE",
"496 502 LINE",
"647 0 LINE",
"668 0 LINE",
"886 660 LINE",
"869 660 LINE",
"657 16 LINE",
"465 660 LINE",
"444 660 LINE",
"252 16 LINE",
"40 660 LINE",
"23 660 LINE",
"241 0 LINE"
);
}
);
width = 909;
},
{
anchors = (
{
name = bottom;
position = "{481, 0}";
},
{
name = bottomC;
position = "{699, 0}";
},
{
name = ogonek;
position = "{731, 0}";
},
{
name = top;
position = "{481, 660}";
}
);
associatedMasterId = "4A17B37A-CBFD-40E5-9E02-2080A0E1F76C";
background = {
components = (
{
name = V;
transform = "{1, 0, 0, 1, -43, 0}";
}
);
};
guideLines = (
{
angle = 180;
position = "{298, 202}";
}
);
layerId = "B1D15DF4-D3DB-48C3-B70B-68DED7ED5E28";
name = "Sep 2 18, 17:27";
paths = (
{
closed = 1;
nodes = (
"480 577 LINE",
"481 577 LINE",
"515 428 LINE",
"632 0 LINE",
"731 0 LINE",
"925 660 LINE",
"844 660 LINE",
"684 61 LINE",
"528 660 LINE",
"437 660 LINE",
"281 63 LINE",
"122 660 LINE",
"36 660 LINE",
"231 0 LINE",
"330 0 LINE",
"446 428 LINE"
);
}
);
width = 961;
}
);
leftKerningGroup = W;
rightKerningGroup = W;
unicode = 0057;
},
{
glyphname = X;
layers = (
{
anchors = (
{
name = bottom;
position = "{300, 0}";
},
{
name = ogonek;
position = "{569, 0}";
},
{
name = top;
position = "{300, 660}";
}
);
layerId = "4A17B37A-CBFD-40E5-9E02-2080A0E1F76C";
paths = (
{
closed = 1;
nodes = (
"348 340 LINE",
"562 660 LINE",
"475 660 LINE",
"306 403 LINE",
"139 660 LINE",
"45 660 LINE",
"256 336 LINE",
"25 0 LINE",
"118 0 LINE",
"298 272 LINE",
"477 0 LINE",
"569 0 LINE"
);
}
);
width = 601;
},
{
anchors = (
{
name = bottom;
position = "{347, 0}";
},
{
name = ogonek;
position = "{713, 0}";
},
{
name = top;
position = "{347, 660}";
}
);
guideLines = (
{
angle = 90;
position = "{694, 439}";
},
{
angle = 90;
position = "{10, 379}";
}
);
layerId = "99EB5860-B45A-4B60-BB0B-F826C8F71D42";
paths = (
{
closed = 1;
nodes = (
"484 335 LINE",
"694 660 LINE",
"440 660 LINE",
"362 495 LINE",
"285 660 LINE",
"10 660 LINE",
"221 329 LINE",
"2 0 LINE",
"265 0 LINE",
"345 171 LINE",
"432 0 LINE",
"713 0 LINE"
);
}
);
width = 704;
},
{
anchors = (
{
name = bottom;
position = "{263, 0}";
},
{
name = ogonek;
position = "{509, 0}";
},
{
name = top;
position = "{263, 660}";
}
);
layerId = "1C7CD022-87C7-4E11-B656-E47B18819458";
paths = (
{
closed = 1;
nodes = (
"274 340 LINE",
"500 660 LINE",
"478 660 LINE",
"263 356 LINE",
"53 660 LINE",
"33 660 LINE",
"253 342 LINE",
"12 0 LINE",
"33 0 LINE",
"263 326 LINE",
"489 0 LINE",
"509 0 LINE"
);
}
);
width = 526;
}
);
unicode = 0058;
},
{
glyphname = Y;
layers = (
{
anchors = (
{
name = bottom;
position = "{286, 0}";
},
{
name = ogonek;
position = "{326, 0}";
},
{
name = top;
position = "{286, 640}";
}
);
layerId = "4A17B37A-CBFD-40E5-9E02-2080A0E1F76C";
paths = (
{
closed = 1;
nodes = (
"467 660 LINE",
"339 434 LINE",
"286 340 LINE",
"233 434 LINE",
"105 660 LINE",
"10 660 LINE",
"246 258 LINE",
"246 0 LINE",
"326 0 LINE",
"326 258 LINE",
"562 660 LINE"
);
}
);
width = 572;
},
{
anchors = (
{
name = bottom;
position = "{356, 0}";
},
{
name = ogonek;
position = "{473, 0}";
},
{
name = top;
position = "{356, 660}";
}
);
layerId = "99EB5860-B45A-4B60-BB0B-F826C8F71D42";
paths = (
{
closed = 1;
nodes = (
"475 660 LINE",
"405 509 LINE",
"358 389 LINE",
"311 509 LINE",
"241 660 LINE",
"9 660 LINE",
"240 229 LINE",
"240 0 LINE",
"473 0 LINE",
"473 229 LINE",
"704 660 LINE"
);
}
);
width = 713;
},
{
anchors = (
{
name = bottom;
position = "{256, 0}";
},
{
name = ogonek;
position = "{264, 0}";
},
{
name = top;
position = "{256, 620}";
}
);
layerId = "1C7CD022-87C7-4E11-B656-E47B18819458";
paths = (
{
closed = 1;
nodes = (
"477 660 LINE",
"348 434 LINE",
"256 273 LINE",
"164 434 LINE",
"35 660 LINE",
"16 660 LINE",
"248 256 LINE",
"248 0 LINE",
"264 0 LINE",
"264 256 LINE",
"496 660 LINE"
);
}
);
width = 512;
}
);
leftKerningGroup = Y;
rightKerningGroup = Y;
unicode = 0059;
},
{
glyphname = Z;
layers = (
{
anchors = (
{
name = bottom;
position = "{306, 0}";
},
{
name = ogonek;
position = "{575, 0}";
},
{
name = top;
position = "{306, 660}";
}
);
layerId = "4A17B37A-CBFD-40E5-9E02-2080A0E1F76C";
paths = (
{
closed = 1;
nodes = (
"562 589 LINE",
"562 660 LINE",
"66 660 LINE",
"66 585 LINE",
"504 585 LINE",
"490 614 LINE",
"56 71 LINE",
"56 0 LINE",
"575 0 LINE",
"575 75 LINE",
"114 75 LINE",
"128 46 LINE"
);
}
);
width = 630;
},
{
anchors = (
{
name = bottom;
position = "{306, 0}";
},
{
name = ogonek;
position = "{622, 0}";
},
{
name = top;
position = "{329, 660}";
}
);
layerId = "99EB5860-B45A-4B60-BB0B-F826C8F71D42";
paths = (
{
closed = 1;
nodes = (
"611 501 LINE",
"611 660 LINE",
"29 660 LINE",
"29 494 LINE",
"477 494 LINE",
"437 571 LINE",
"25 159 LINE",
"25 0 LINE",
"622 0 LINE",
"622 166 LINE",
"160 166 LINE",
"201 89 LINE"
);
}
);
width = 637;
},
{
anchors = (
{
name = bottom;
position = "{277, 0}";
},
{
name = ogonek;
position = "{528, 0}";
},
{
name = top;
position = "{277, 660}";
}
);
layerId = "1C7CD022-87C7-4E11-B656-E47B18819458";
paths = (
{
closed = 1;
nodes = (
"508 646 LINE",
"508 660 LINE",
"36 660 LINE",
"36 646 LINE",
"497 646 LINE",
"494 652 LINE",
"29 14 LINE",
"29 0 LINE",
"528 0 LINE",
"528 14 LINE",
"40 14 LINE",
"43 8 LINE"
);
}
);
width = 552;
}
);
leftKerningGroup = Z;
rightKerningGroup = Z;
unicode = 005A;
},
{
glyphname = E.swsh.001;
layers = (
{
anchors = (
{
name = bottom;
position = "{317, 0}";
},
{
name = ogonek;
position = "{504, 0}";
},
{
name = top;
position = "{357, 660}";
}
);
layerId = "1C7CD022-87C7-4E11-B656-E47B18819458";
paths = (
{
closed = 1;
nodes = (
"570 264 LINE",
"630 252 OFFCURVE",
"661 208 OFFCURVE",
"661 139 CURVE SMOOTH",
"661 49 OFFCURVE",
"604 14 OFFCURVE",
"499 14 CURVE SMOOTH",
"284 14 LINE",
"284 0 LINE",
"504 0 LINE SMOOTH",
"616 0 OFFCURVE",
"677 43 OFFCURVE",
"677 139 CURVE SMOOTH",
"677 214 OFFCURVE",
"643 260 OFFCURVE",
"581 275 CURVE"
);
},
{
closed = 1;
nodes = (
"99 0 LINE",
"115 0 LINE",
"115 660 LINE",
"99 660 LINE"
);
},
{
closed = 1;
nodes = (
"105 330 LINE",
"403 330 LINE",
"403 344 LINE",
"105 344 LINE"
);
},
{
closed = 1;
nodes = (
"105 646 LINE",
"583 646 LINE",
"583 660 LINE",
"105 660 LINE"
);
},
{
closed = 1;
nodes = (
"105 0 LINE",
"386 0 LINE",
"386 14 LINE",
"105 14 LINE"
);
}
);
width = 687;
},
{
anchors = (
{
name = bottom;
position = "{339, 0}";
},
{
name = ogonek;
position = "{508, 0}";
},
{
name = top;
position = "{365, 660}";
}
);
layerId = "4A17B37A-CBFD-40E5-9E02-2080A0E1F76C";
paths = (
{
closed = 1;
nodes = (
"583 274 LINE",
"625 273 OFFCURVE",
"657 240 OFFCURVE",
"657 176 CURVE SMOOTH",
"657 104 OFFCURVE",
"609 75 OFFCURVE",
"511 75 CURVE SMOOTH",
"354 75 LINE",
"354 0 LINE",
"528 0 LINE SMOOTH",
"655 0 OFFCURVE",
"737 62 OFFCURVE",
"737 175 CURVE SMOOTH",
"737 275 OFFCURVE",
"679 335 OFFCURVE",
"614 338 CURVE"
);
},
{
closed = 1;
nodes = (
"108 0 LINE",
"188 0 LINE",
"188 660 LINE",
"108 660 LINE"
);
},
{
closed = 1;
nodes = (
"150 288 LINE",
"406 288 LINE",
"406 363 LINE",
"150 363 LINE"
);
},
{
closed = 1;
nodes = (
"150 585 LINE",
"596 585 LINE",
"596 660 LINE",
"150 660 LINE"
);
},
{
closed = 1;
nodes = (
"150 0 LINE",
"501 0 LINE",
"501 75 LINE",
"150 75 LINE"
);
}
);
width = 747;
},
{
anchors = (
{
name = bottom;
position = "{329, 0}";
},
{
name = ogonek;
position = "{630, 0}";
},
{
name = top;
position = "{313, 660}";
}
);
layerId = "99EB5860-B45A-4B60-BB0B-F826C8F71D42";
paths = (
{
closed = 1;
nodes = (
"607 268 LINE",
"664 261 OFFCURVE",
"683 241 OFFCURVE",
"683 215 CURVE SMOOTH",
"683 185 OFFCURVE",
"664 171 OFFCURVE",
"620 171 CURVE SMOOTH",
"470 171 LINE",
"470 0 LINE",
"650 0 LINE SMOOTH",
"788 0 OFFCURVE",
"877 55 OFFCURVE",
"877 207 CURVE SMOOTH",
"877 305 OFFCURVE",
"821 379 OFFCURVE",
"680 402 CURVE"
);
},
{
closed = 1;
nodes = (
"50 0 LINE",
"283 0 LINE",
"283 660 LINE",
"50 660 LINE"
);
},
{
closed = 1;
nodes = (
"162 249 LINE",
"477 249 LINE",
"477 407 LINE",
"162 407 LINE"
);
},
{
closed = 1;
nodes = (
"162 489 LINE",
"640 489 LINE",
"640 660 LINE",
"162 660 LINE"
);
},
{
closed = 1;
nodes = (
"162 0 LINE",
"568 0 LINE",
"568 171 LINE",
"162 171 LINE"
);
}
);
width = 887;
}
);
leftKerningGroup = I;
leftMetricsKey = I;
rightMetricsKey = "=|F.swsh";
userData = {
com.typemytype.robofont.layerData = {
background = {
anchors = (
);
components = (
{
baseGlyph = E;
transformation = (
1,
0,
0,
1,
0,
0
);
}
);
contours = (
);
lib = {
};
name = E.swsh_f;
unicodes = (
);
width = 583;
};
};
};
},
{
glyphname = M.swsh.001;
layers = (
{
anchors = (
{
name = bottom;
position = "{607, 0}";
},
{
name = ogonek;
position = "{901, 0}";
},
{
name = top;
position = "{607, 660}";
}
);
components = (
{
alignment = -1;
name = M;
transform = "{1, 0, 0, 1, 214, 0}";
}
);
layerId = "1C7CD022-87C7-4E11-B656-E47B18819458";
paths = (
{
closed = 1;
nodes = (
"143 361 LINE",
"71 377 OFFCURVE",
"26 424 OFFCURVE",
"26 502 CURVE SMOOTH",
"26 602 OFFCURVE",
"83 646 OFFCURVE",
"188 646 CURVE SMOOTH",
"323 646 LINE",
"323 660 LINE",
"183 660 LINE SMOOTH",
"71 660 OFFCURVE",
"10 608 OFFCURVE",
"10 502 CURVE SMOOTH",
"10 416 OFFCURVE",
"59 366 OFFCURVE",
"132 350 CURVE"
);
}
);
width = 1000;
},
{
anchors = (
{
name = bottom;
position = "{646, 0}";
},
{
name = ogonek;
position = "{965, 0}";
},
{
name = top;
position = "{646, 660}";
}
);
components = (
{
name = M;
transform = "{1, 0, 0, 1, 219, 0}";
}
);
layerId = "4A17B37A-CBFD-40E5-9E02-2080A0E1F76C";
paths = (
{
closed = 1;
nodes = (
"200 366 LINE",
"136 377 OFFCURVE",
"90 419 OFFCURVE",
"90 480 CURVE SMOOTH",
"90 558 OFFCURVE",
"148 595 OFFCURVE",
"236 595 CURVE SMOOTH",
"433 595 LINE",
"433 660 LINE",
"219 660 LINE SMOOTH",
"92 660 OFFCURVE",
"10 593 OFFCURVE",
"10 481 CURVE SMOOTH",
"10 382 OFFCURVE",
"84 315 OFFCURVE",
"169 302 CURVE"
);
}
);
width = 1073;
},
{
anchors = (
{
name = bottom;
position = "{741, 0}";
},
{
name = ogonek;
position = "{1165, 0}";
},
{
name = top;
position = "{741, 660}";
}
);
components = (
{
name = M;
transform = "{1, 0, 0, 1, 267, 0}";
}
);
layerId = "99EB5860-B45A-4B60-BB0B-F826C8F71D42";
paths = (
{
closed = 1;
nodes = (
"290 362 LINE",
"240 365 OFFCURVE",
"214 396 OFFCURVE",
"214 432 CURVE SMOOTH",
"214 464 OFFCURVE",
"230 494 OFFCURVE",
"277 494 CURVE SMOOTH",
"527 494 LINE",
"527 660 LINE",
"277 660 LINE SMOOTH",
"99 660 OFFCURVE",
"10 578 OFFCURVE",
"10 436 CURVE SMOOTH",
"10 299 OFFCURVE",
"97 216 OFFCURVE",
"227 212 CURVE"
);
}
);
width = 1215;
}
);
leftMetricsKey = F.swsh;
rightKerningGroup = I;
rightMetricsKey = I;
userData = {
com.typemytype.robofont.layerData = {
background = {
anchors = (
);
components = (
{
baseGlyph = M;
transformation = (
1,
0,
0,
1,
0,
0
);
}
);
contours = (
);
lib = {
};
name = M.swsh_i;
unicodes = (
);
width = 786;
};
};
};
},
{
glyphname = R.swsh.001;
layers = (
{
anchors = (
{
name = bottom;
position = "{346, 0}";
},
{
name = ogonek;
position = "{659, -96}";
},
{
name = top;
position = "{293, 660}";
}
);
layerId = "1C7CD022-87C7-4E11-B656-E47B18819458";
paths = (
{
closed = 1;
nodes = (
"338 300 LINE SMOOTH",
"467 300 OFFCURVE",
"547 368 OFFCURVE",
"547 480 CURVE SMOOTH",
"547 592 OFFCURVE",
"467 660 OFFCURVE",
"338 660 CURVE SMOOTH",
"107 660 LINE",
"107 646 LINE",
"338 646 LINE SMOOTH",
"459 646 OFFCURVE",
"531 584 OFFCURVE",
"531 480 CURVE SMOOTH",
"531 376 OFFCURVE",
"459 314 OFFCURVE",
"338 314 CURVE SMOOTH",
"107 314 LINE",
"107 300 LINE"
);
},
{
closed = 1;
nodes = (
"115 0 LINE",
"115 660 LINE",
"99 660 LINE",
"99 0 LINE"
);
},
{
closed = 1;
nodes = (
"664 -92 LINE",
"619 -82 OFFCURVE",
"587 -51 OFFCURVE",
"568 -24 CURVE SMOOTH",
"339 312 LINE",
"326 304 LINE",
"552 -29 LINE SMOOTH",
"572 -58 OFFCURVE",
"604 -91 OFFCURVE",
"657 -104 CURVE"
);
}
);
width = 664;
},
{
anchors = (
{
name = bottom;
position = "{365, 0}";
},
{
name = ogonek;
position = "{642, -86}";
},
{
name = top;
position = "{322, 660}";
}
);
layerId = "4A17B37A-CBFD-40E5-9E02-2080A0E1F76C";
paths = (
{
closed = 1;
nodes = (
"358 274 LINE SMOOTH",
"492 274 OFFCURVE",
"581 348 OFFCURVE",
"581 467 CURVE SMOOTH",
"581 586 OFFCURVE",
"492 660 OFFCURVE",
"358 660 CURVE SMOOTH",
"148 660 LINE",
"148 585 LINE",
"357 585 LINE SMOOTH",
"451 585 OFFCURVE",
"497 546 OFFCURVE",
"497 467 CURVE SMOOTH",
"497 388 OFFCURVE",
"451 349 OFFCURVE",
"357 349 CURVE SMOOTH",
"148 349 LINE",
"148 274 LINE"
);
},
{
closed = 1;
nodes = (
"188 0 LINE",
"188 660 LINE",
"108 660 LINE",
"108 0 LINE"
);
},
{
closed = 1;
nodes = (
"685 -31 LINE",
"636 -14 OFFCURVE",
"565 48 OFFCURVE",
"535 90 CURVE SMOOTH",
"361 333 LINE",
"304 289 LINE",
"459 68 LINE SMOOTH",
"498 12 OFFCURVE",
"528 -29 OFFCURVE",
"642 -86 CURVE"
);
}
);
width = 685;
},
{
anchors = (
{
name = bottom;
position = "{362, 0}";
},
{
name = ogonek;
position = "{653, -102}";
},
{
name = top;
position = "{334, 660}";
}
);
layerId = "99EB5860-B45A-4B60-BB0B-F826C8F71D42";
paths = (
{
closed = 1;
nodes = (
"408 219 LINE SMOOTH",
"584 219 OFFCURVE",
"675 293 OFFCURVE",
"675 439 CURVE SMOOTH",
"675 586 OFFCURVE",
"584 660 OFFCURVE",
"408 660 CURVE SMOOTH",
"208 660 LINE",
"208 494 LINE",
"361 494 LINE SMOOTH",
"420 494 OFFCURVE",
"442 477 OFFCURVE",
"442 433 CURVE SMOOTH",
"442 388 OFFCURVE",
"420 372 OFFCURVE",
"361 372 CURVE SMOOTH",
"208 372 LINE",
"208 219 LINE"
);
},
{
closed = 1;
nodes = (
"278 0 LINE",
"278 660 LINE",
"50 660 LINE",
"50 0 LINE"
);
},
{
closed = 1;
nodes = (
"781 24 LINE",
"722 31 OFFCURVE",
"677 62 OFFCURVE",
"620 136 CURVE SMOOTH",
"476 323 LINE",
"277 289 LINE",
"481 -4 LINE SMOOTH",
"520 -59 OFFCURVE",
"576 -102 OFFCURVE",
"653 -102 CURVE"
);
}
);
width = 781;
}
);
leftKerningGroup = I;
leftMetricsKey = I;
userData = {
com.typemytype.robofont.layerData = {
background = {
anchors = (
);
components = (
{
baseGlyph = R;
transformation = (
1,
0,
0,
1,
0,
0
);
}
);
contours = (
);
lib = {
};
name = R.swsh_f;
unicodes = (
);
width = 611;
};
};
};
},
{
color = 0;
glyphname = Adieresis.titl.rvrn;
layers = (
{
components = (
{
name = A;
}
);
layerId = "1C7CD022-87C7-4E11-B656-E47B18819458";
paths = (
{
closed = 1;
nodes = (
"201 618 OFFCURVE",
"205 619 OFFCURVE",
"208 620 CURVE",
"219 642 LINE",
"218 654 OFFCURVE",
"209 662 OFFCURVE",
"197 662 CURVE SMOOTH",
"184 662 OFFCURVE",
"175 653 OFFCURVE",
"175 640 CURVE SMOOTH",
"175 627 OFFCURVE",
"184 618 OFFCURVE",
"197 618 CURVE SMOOTH"
);
},
{
closed = 1;
nodes = (
"400 618 OFFCURVE",
"409 627 OFFCURVE",
"409 640 CURVE SMOOTH",
"409 653 OFFCURVE",
"400 662 OFFCURVE",
"387 662 CURVE SMOOTH",
"375 662 OFFCURVE",
"366 654 OFFCURVE",
"365 642 CURVE",
"376 620 LINE",
"379 619 OFFCURVE",
"383 618 OFFCURVE",
"387 618 CURVE SMOOTH"
);
}
);
width = 586;
},
{
components = (
{
name = A;
}
);
layerId = "4A17B37A-CBFD-40E5-9E02-2080A0E1F76C";
paths = (
{
closed = 1;
nodes = (
"200 553 OFFCURVE",
"207 554 OFFCURVE",
"213 556 CURVE",
"244 631 LINE",
"236 650 OFFCURVE",
"217 662 OFFCURVE",
"193 662 CURVE SMOOTH",
"161 662 OFFCURVE",
"139 640 OFFCURVE",
"139 608 CURVE SMOOTH",
"139 575 OFFCURVE",
"161 553 OFFCURVE",
"193 553 CURVE SMOOTH"
);
},
{
closed = 1;
nodes = (
"500 553 OFFCURVE",
"522 575 OFFCURVE",
"522 608 CURVE SMOOTH",
"522 640 OFFCURVE",
"500 662 OFFCURVE",
"468 662 CURVE SMOOTH",
"444 662 OFFCURVE",
"425 650 OFFCURVE",
"417 631 CURVE",
"448 556 LINE",
"454 554 OFFCURVE",
"461 553 OFFCURVE",
"468 553 CURVE SMOOTH"
);
}
);
width = 660;
},
{
components = (
{
name = A;
}
);
layerId = "99EB5860-B45A-4B60-BB0B-F826C8F71D42";
paths = (
{
closed = 1;
nodes = (
"127 502 OFFCURVE",
"129 502 OFFCURVE",
"130 502 CURVE",
"177 651 LINE",
"163 658 OFFCURVE",
"145 662 OFFCURVE",
"124 662 CURVE SMOOTH",
"65 662 OFFCURVE",
"32 633 OFFCURVE",
"32 582 CURVE SMOOTH",
"32 531 OFFCURVE",
"65 502 OFFCURVE",
"124 502 CURVE SMOOTH"
);
},
{
closed = 1;
nodes = (
"623 502 OFFCURVE",
"656 531 OFFCURVE",
"656 582 CURVE SMOOTH",
"656 633 OFFCURVE",
"623 662 OFFCURVE",
"564 662 CURVE SMOOTH",
"543 662 OFFCURVE",
"525 658 OFFCURVE",
"511 651 CURVE",
"558 502 LINE",
"559 502 OFFCURVE",
"561 502 OFFCURVE",
"564 502 CURVE SMOOTH"
);
}
);
width = 689;
}
);
leftKerningGroup = A;
rightKerningGroup = A;
},
{
color = 0;
glyphname = Odieresis.titl.rvrn;
layers = (
{
components = (
{
name = O;
}
);
layerId = "1C7CD022-87C7-4E11-B656-E47B18819458";
paths = (
{
closed = 1;
nodes = (
"518 639 OFFCURVE",
"519 643 OFFCURVE",
"519 648 CURVE SMOOTH",
"519 661 OFFCURVE",
"510 670 OFFCURVE",
"497 670 CURVE SMOOTH",
"486 670 OFFCURVE",
"479 664 OFFCURVE",
"476 655 CURVE",
"490 650 OFFCURVE",
"503 643 OFFCURVE",
"516 636 CURVE"
);
},
{
closed = 1;
nodes = (
"235 664 OFFCURVE",
"228 670 OFFCURVE",
"217 670 CURVE SMOOTH",
"204 670 OFFCURVE",
"195 661 OFFCURVE",
"195 648 CURVE SMOOTH",
"195 643 OFFCURVE",
"196 639 OFFCURVE",
"198 636 CURVE",
"211 643 OFFCURVE",
"224 650 OFFCURVE",
"238 655 CURVE"
);
}
);
width = 714;
},
{
components = (
{
name = O;
}
);
layerId = "4A17B37A-CBFD-40E5-9E02-2080A0E1F76C";
paths = (
{
closed = 1;
nodes = (
"651 575 OFFCURVE",
"662 593 OFFCURVE",
"662 616 CURVE SMOOTH",
"662 648 OFFCURVE",
"640 670 OFFCURVE",
"608 670 CURVE SMOOTH",
"584 670 OFFCURVE",
"565 658 OFFCURVE",
"557 639 CURVE",
"589 618 OFFCURVE",
"608 598 OFFCURVE",
"633 566 CURVE"
);
},
{
closed = 1;
nodes = (
"183 658 OFFCURVE",
"164 670 OFFCURVE",
"140 670 CURVE SMOOTH",
"108 670 OFFCURVE",
"86 648 OFFCURVE",
"86 616 CURVE SMOOTH",
"86 593 OFFCURVE",
"97 575 OFFCURVE",
"115 566 CURVE",
"138 596 OFFCURVE",
"157 617 OFFCURVE",
"191 639 CURVE"
);
}
);
width = 748;
},
{
components = (
{
name = O;
}
);
layerId = "99EB5860-B45A-4B60-BB0B-F826C8F71D42";
paths = (
{
closed = 1;
nodes = (
"679 555 OFFCURVE",
"688 574 OFFCURVE",
"688 598 CURVE SMOOTH",
"688 643 OFFCURVE",
"657 670 OFFCURVE",
"603 670 CURVE SMOOTH",
"577 670 OFFCURVE",
"557 663 OFFCURVE",
"543 650 CURVE",
"588 627 OFFCURVE",
"636 588 OFFCURVE",
"663 542 CURVE"
);
},
{
closed = 1;
nodes = (
"173 663 OFFCURVE",
"152 670 OFFCURVE",
"125 670 CURVE SMOOTH",
"75 670 OFFCURVE",
"45 643 OFFCURVE",
"45 597 CURVE SMOOTH",
"45 575 OFFCURVE",
"53 557 OFFCURVE",
"68 544 CURVE",
"95 588 OFFCURVE",
"139 626 OFFCURVE",
"187 650 CURVE"
);
}
);
width = 729;
}
);
leftKerningGroup = O;
rightKerningGroup = O;
},
{
color = 0;
glyphname = Udieresis.titl.rvrn;
layers = (
{
components = (
{
name = U;
}
);
layerId = "1C7CD022-87C7-4E11-B656-E47B18819458";
paths = (
{
closed = 1;
nodes = (
"345 498 OFFCURVE",
"354 507 OFFCURVE",
"354 520 CURVE SMOOTH",
"354 533 OFFCURVE",
"345 542 OFFCURVE",
"332 542 CURVE SMOOTH",
"319 542 OFFCURVE",
"310 533 OFFCURVE",
"310 520 CURVE SMOOTH",
"310 507 OFFCURVE",
"319 498 OFFCURVE",
"332 498 CURVE SMOOTH"
);
},
{
closed = 1;
nodes = (
"345 618 OFFCURVE",
"354 627 OFFCURVE",
"354 640 CURVE SMOOTH",
"354 653 OFFCURVE",
"345 662 OFFCURVE",
"332 662 CURVE SMOOTH",
"319 662 OFFCURVE",
"310 653 OFFCURVE",
"310 640 CURVE SMOOTH",
"310 627 OFFCURVE",
"319 618 OFFCURVE",
"332 618 CURVE SMOOTH"
);
}
);
width = 664;
},
{
components = (
{
name = U;
}
);
layerId = "4A17B37A-CBFD-40E5-9E02-2080A0E1F76C";
paths = (
{
closed = 1;
nodes = (
"387 403 OFFCURVE",
"409 425 OFFCURVE",
"409 458 CURVE SMOOTH",
"409 490 OFFCURVE",
"387 512 OFFCURVE",
"355 512 CURVE SMOOTH",
"322 512 OFFCURVE",
"300 490 OFFCURVE",
"300 458 CURVE SMOOTH",
"300 425 OFFCURVE",
"322 403 OFFCURVE",
"355 403 CURVE SMOOTH"
);
},
{
closed = 1;
nodes = (
"387 553 OFFCURVE",
"409 575 OFFCURVE",
"409 608 CURVE SMOOTH",
"409 640 OFFCURVE",
"387 662 OFFCURVE",
"354 662 CURVE SMOOTH",
"322 662 OFFCURVE",
"300 640 OFFCURVE",
"300 608 CURVE SMOOTH",
"300 575 OFFCURVE",
"322 553 OFFCURVE",
"354 553 CURVE SMOOTH"
);
}
);
width = 708;
},
{
background = {
paths = (
{
closed = 1;
nodes = (
"400 394 OFFCURVE",
"427 418 OFFCURVE",
"427 456 CURVE SMOOTH",
"427 496 OFFCURVE",
"400 520 OFFCURVE",
"354 520 CURVE SMOOTH",
"310 520 OFFCURVE",
"284 496 OFFCURVE",
"284 456 CURVE SMOOTH",
"284 418 OFFCURVE",
"310 394 OFFCURVE",
"354 394 CURVE SMOOTH"
);
},
{
closed = 1;
nodes = (
"400 536 OFFCURVE",
"427 560 OFFCURVE",
"427 600 CURVE SMOOTH",
"427 639 OFFCURVE",
"400 662 OFFCURVE",
"354 662 CURVE SMOOTH",
"310 662 OFFCURVE",
"284 639 OFFCURVE",
"284 600 CURVE SMOOTH",
"284 560 OFFCURVE",
"310 536 OFFCURVE",
"354 537 CURVE SMOOTH"
);
},
{
closed = 1;
nodes = (
"440 660 LINE",
"440 266 LINE SMOOTH",
"440 199 OFFCURVE",
"410 165 OFFCURVE",
"354 165 CURVE SMOOTH",
"299 165 OFFCURVE",
"269 199 OFFCURVE",
"269 266 CURVE SMOOTH",
"269 660 LINE",
"35 660 LINE",
"35 284 LINE SMOOTH",
"35 87 OFFCURVE",
"141 -10 OFFCURVE",
"354 -10 CURVE SMOOTH",
"567 -10 OFFCURVE",
"673 87 OFFCURVE",
"673 284 CURVE SMOOTH",
"673 660 LINE"
);
}
);
};
components = (
{
name = U;
}
);
layerId = "99EB5860-B45A-4B60-BB0B-F826C8F71D42";
paths = (
{
closed = 1;
nodes = (
"401 394 OFFCURVE",
"428 418 OFFCURVE",
"428 456 CURVE SMOOTH",
"428 496 OFFCURVE",
"401 520 OFFCURVE",
"355 520 CURVE SMOOTH",
"311 520 OFFCURVE",
"285 496 OFFCURVE",
"285 456 CURVE SMOOTH",
"285 418 OFFCURVE",
"311 394 OFFCURVE",
"355 394 CURVE SMOOTH"
);
},
{
closed = 1;
nodes = (
"400 537 OFFCURVE",
"428 559 OFFCURVE",
"428 600 CURVE SMOOTH",
"428 639 OFFCURVE",
"401 662 OFFCURVE",
"355 662 CURVE SMOOTH",
"311 662 OFFCURVE",
"285 639 OFFCURVE",
"285 600 CURVE SMOOTH",
"285 561 OFFCURVE",
"310 537 OFFCURVE",
"352 537 CURVE SMOOTH"
);
}
);
width = 712;
}
);
leftKerningGroup = U;
leftMetricsKey = U;
rightKerningGroup = U;
rightMetricsKey = U;
},
{
glyphname = R.ss03;
layers = (
{
anchors = (
{
name = bottom;
position = "{346, 0}";
},
{
name = ogonek;
position = "{557, 0}";
},
{
name = top;
position = "{293, 660}";
}
);
layerId = "1C7CD022-87C7-4E11-B656-E47B18819458";
paths = (
{
closed = 1;
nodes = (
"115 0 LINE",
"115 300 LINE",
"351 300 LINE SMOOTH",
"459 300 OFFCURVE",
"513 245 OFFCURVE",
"515 157 CURVE SMOOTH",
"518 36 OFFCURVE",
"531 14 OFFCURVE",
"539 0 CURVE",
"557 0 LINE",
"557 2 LINE",
"548 14 OFFCURVE",
"535 22 OFFCURVE",
"531 160 CURVE SMOOTH",
"529 243 OFFCURVE",
"486 295 OFFCURVE",
"399 308 CURVE",
"399 309 LINE",
"487 322 OFFCURVE",
"547 384 OFFCURVE",
"547 480 CURVE SMOOTH",
"547 592 OFFCURVE",
"467 660 OFFCURVE",
"338 660 CURVE SMOOTH",
"99 660 LINE",
"99 0 LINE"
);
},
{
closed = 1;
nodes = (
"115 646 LINE",
"338 646 LINE SMOOTH",
"459 646 OFFCURVE",
"531 584 OFFCURVE",
"531 480 CURVE SMOOTH",
"531 376 OFFCURVE",
"459 314 OFFCURVE",
"338 314 CURVE SMOOTH",
"115 314 LINE"
);
}
);
width = 612;
},
{
anchors = (
{
name = bottom;
position = "{365, 0}";
},
{
name = ogonek;
position = "{591, 0}";
},
{
name = top;
position = "{322, 660}";
}
);
layerId = "4A17B37A-CBFD-40E5-9E02-2080A0E1F76C";
paths = (
{
closed = 1;
nodes = (
"188 0 LINE",
"188 274 LINE",
"328 274 LINE SMOOTH",
"431 274 OFFCURVE",
"477 233 OFFCURVE",
"481 156 CURVE SMOOTH",
"486 63 OFFCURVE",
"495 23 OFFCURVE",
"505 0 CURVE",
"591 0 LINE",
"591 3 LINE",
"578 24 OFFCURVE",
"567 45 OFFCURVE",
"560 164 CURVE SMOOTH",
"557 236 OFFCURVE",
"520 285 OFFCURVE",
"443 298 CURVE",
"443 300 LINE",
"533 322 OFFCURVE",
"581 381 OFFCURVE",
"581 467 CURVE SMOOTH",
"581 586 OFFCURVE",
"492 660 OFFCURVE",
"358 660 CURVE SMOOTH",
"108 660 LINE",
"108 0 LINE"
);
},
{
closed = 1;
nodes = (
"188 585 LINE",
"357 585 LINE SMOOTH",
"451 585 OFFCURVE",
"497 546 OFFCURVE",
"497 467 CURVE SMOOTH",
"497 388 OFFCURVE",
"451 349 OFFCURVE",
"357 349 CURVE SMOOTH",
"188 349 LINE"
);
}
);
width = 655;
},
{
anchors = (
{
name = bottom;
position = "{362, 0}";
},
{
name = ogonek;
position = "{685, 0}";
},
{
name = top;
position = "{334, 660}";
}
);
layerId = "99EB5860-B45A-4B60-BB0B-F826C8F71D42";
paths = (
{
closed = 1;
nodes = (
"278 0 LINE",
"278 219 LINE",
"330 219 LINE SMOOTH",
"379 219 OFFCURVE",
"404 204 OFFCURVE",
"415 153 CURVE SMOOTH",
"429 87 OFFCURVE",
"425 43 OFFCURVE",
"442 0 CURVE",
"685 0 LINE",
"685 5 LINE",
"661 47 OFFCURVE",
"657 99 OFFCURVE",
"643 175 CURVE SMOOTH",
"635 218 OFFCURVE",
"616 259 OFFCURVE",
"551 277 CURVE",
"551 279 LINE",
"619 300 OFFCURVE",
"675 343 OFFCURVE",
"675 449 CURVE SMOOTH",
"675 586 OFFCURVE",
"584 660 OFFCURVE",
"408 660 CURVE SMOOTH",
"50 660 LINE",
"50 0 LINE"
);
},
{
closed = 1;
nodes = (
"278 494 LINE",
"361 494 LINE SMOOTH",
"420 494 OFFCURVE",
"442 477 OFFCURVE",
"442 433 CURVE SMOOTH",
"442 388 OFFCURVE",
"420 372 OFFCURVE",
"361 372 CURVE SMOOTH",
"278 372 LINE"
);
}
);
width = 705;
}
);
leftKerningGroup = I;
rightKerningGroup = R;
userData = {
com.typemytype.robofont.layerData = {
background = {
anchors = (
);
components = (
{
baseGlyph = R;
transformation = (
1,
0,
0,
1,
"-600",
0
);
}
);
contours = (
{
points = (
{
segmentType = line;
smooth = 0;
x = 114;
y = 300;
},
{
segmentType = line;
smooth = 1;
x = 356;
y = 300;
},
{
smooth = 0;
x = 464;
y = 300;
},
{
smooth = 0;
x = 515;
y = 245;
},
{
segmentType = curve;
smooth = 1;
x = 518;
y = 157;
},
{
smooth = 0;
x = 521;
y = 25;
},
{
smooth = 0;
x = 536;
y = 6;
},
{
segmentType = curve;
smooth = 0;
x = 542;
y = 0;
},
{
segmentType = line;
smooth = 0;
x = 558;
y = 0;
},
{
segmentType = line;
smooth = 0;
x = 558;
y = 2;
},
{
smooth = 0;
x = 550;
y = 10;
},
{
smooth = 0;
x = 535;
y = 22;
},
{
segmentType = curve;
smooth = 1;
x = 531;
y = 160;
},
{
smooth = 0;
x = 529;
y = 243;
},
{
smooth = 0;
x = 483;
y = 294;
},
{
segmentType = curve;
smooth = 0;
x = 401;
y = 308;
},
{
smooth = 0;
x = 495;
y = 325;
},
{
smooth = 0;
x = 545;
y = 391;
},
{
segmentType = curve;
smooth = 1;
x = 545;
y = 484;
},
{
smooth = 0;
x = 545;
y = 598;
},
{
smooth = 0;
x = 457;
y = 660;
},
{
segmentType = curve;
smooth = 1;
x = 336;
y = 660;
},
{
segmentType = line;
smooth = 0;
x = 100;
y = 660;
},
{
segmentType = line;
smooth = 0;
x = 100;
y = 0;
},
{
segmentType = line;
smooth = 0;
x = 114;
y = 0;
}
);
},
{
points = (
{
segmentType = line;
smooth = 0;
x = 114;
y = 647;
},
{
segmentType = line;
smooth = 1;
x = 336;
y = 647;
},
{
smooth = 0;
x = 450;
y = 647;
},
{
smooth = 0;
x = 531;
y = 588;
},
{
segmentType = curve;
smooth = 1;
x = 531;
y = 484;
},
{
smooth = 0;
x = 531;
y = 375;
},
{
smooth = 0;
x = 462;
y = 313;
},
{
segmentType = curve;
smooth = 1;
x = 330;
y = 313;
},
{
segmentType = line;
smooth = 0;
x = 114;
y = 313;
}
);
}
);
lib = {
};
name = R.alt;
unicodes = (
);
width = 612;
};
};
};
},
{
glyphname = G.ss04;
layers = (
{
anchors = (
{
name = bottom;
position = "{351, 0}";
},
{
name = ogonek;
position = "{430, 0}";
},
{
name = top;
position = "{343, 660}";
}
);
layerId = "1C7CD022-87C7-4E11-B656-E47B18819458";
paths = (
{
closed = 1;
nodes = (
"553 -10 OFFCURVE",
"616 141 OFFCURVE",
"616 294 CURVE SMOOTH",
"616 311 LINE",
"353 311 LINE",
"353 297 LINE",
"608 297 LINE",
"601 305 LINE",
"601 300 LINE SMOOTH",
"601 174 OFFCURVE",
"561 4 OFFCURVE",
"347 4 CURVE SMOOTH",
"180 4 OFFCURVE",
"72 130 OFFCURVE",
"72 330 CURVE SMOOTH",
"72 530 OFFCURVE",
"183 656 OFFCURVE",
"349 656 CURVE SMOOTH",
"479 656 OFFCURVE",
"558 601 OFFCURVE",
"591 489 CURVE",
"605 496 LINE",
"572 612 OFFCURVE",
"488 670 OFFCURVE",
"349 670 CURVE SMOOTH",
"173 670 OFFCURVE",
"56 539 OFFCURVE",
"56 330 CURVE SMOOTH",
"56 121 OFFCURVE",
"170 -10 OFFCURVE",
"347 -10 CURVE SMOOTH"
);
}
);
width = 656;
},
{
anchors = (
{
name = bottom;
position = "{405, 0}";
},
{
name = ogonek;
position = "{454, 0}";
},
{
name = top;
position = "{373, 660}";
}
);
layerId = "4A17B37A-CBFD-40E5-9E02-2080A0E1F76C";
paths = (
{
closed = 1;
nodes = (
"560 -10 OFFCURVE",
"658 103 OFFCURVE",
"658 272 CURVE SMOOTH",
"658 333 LINE",
"362 333 LINE",
"362 258 LINE",
"624 258 LINE",
"582 299 LINE",
"582 252 LINE SMOOTH",
"582 168 OFFCURVE",
"529 65 OFFCURVE",
"380 65 CURVE SMOOTH",
"232 65 OFFCURVE",
"152 164 OFFCURVE",
"152 330 CURVE SMOOTH",
"152 496 OFFCURVE",
"242 595 OFFCURVE",
"376 595 CURVE SMOOTH",
"468 595 OFFCURVE",
"538 555 OFFCURVE",
"567 479 CURVE",
"640 519 LINE",
"589 621 OFFCURVE",
"507 670 OFFCURVE",
"376 670 CURVE SMOOTH",
"191 670 OFFCURVE",
"68 539 OFFCURVE",
"68 330 CURVE SMOOTH",
"68 121 OFFCURVE",
"186 -10 OFFCURVE",
"374 -10 CURVE SMOOTH"
);
}
);
width = 724;
},
{
anchors = (
{
name = bottom;
position = "{379, 0}";
},
{
name = ogonek;
position = "{401, 0}";
},
{
name = top;
position = "{364, 660}";
}
);
layerId = "99EB5860-B45A-4B60-BB0B-F826C8F71D42";
paths = (
{
closed = 1;
nodes = (
"551 -10 OFFCURVE",
"687 66 OFFCURVE",
"687 280 CURVE SMOOTH",
"687 374 LINE",
"371 374 LINE",
"371 239 LINE",
"595 239 LINE",
"492 285 LINE",
"492 232 LINE SMOOTH",
"492 194 OFFCURVE",
"454 165 OFFCURVE",
"392 165 CURVE SMOOTH",
"303 165 OFFCURVE",
"267 205 OFFCURVE",
"267 330 CURVE SMOOTH",
"267 445 OFFCURVE",
"307 495 OFFCURVE",
"373 495 CURVE SMOOTH",
"428 495 OFFCURVE",
"453 470 OFFCURVE",
"462 411 CURVE",
"679 489 LINE",
"625 619 OFFCURVE",
"534 670 OFFCURVE",
"371 670 CURVE SMOOTH",
"156 670 OFFCURVE",
"29 544 OFFCURVE",
"29 328 CURVE SMOOTH",
"29 103 OFFCURVE",
"168 -10 OFFCURVE",
"368 -10 CURVE SMOOTH"
);
}
);
width = 722;
}
);
leftKerningGroup = O;
leftMetricsKey = O;
rightKerningGroup = G;
userData = {
com.typemytype.robofont.layerData = {
background = {
anchors = (
);
components = (
);
contours = (
{
points = (
{
smooth = 0;
x = 152;
y = 670;
},
{
smooth = 0;
x = 36;
y = 539;
},
{
segmentType = curve;
smooth = 1;
x = 36;
y = 330;
},
{
smooth = 0;
x = 36;
y = 121;
},
{
smooth = 0;
x = 152;
y = "-10";
},
{
segmentType = curve;
smooth = 1;
x = 337;
y = "-10";
},
{
smooth = 0;
x = 522;
y = "-10";
},
{
smooth = 0;
x = 638;
y = 121;
},
{
segmentType = curve;
smooth = 1;
x = 638;
y = 330;
},
{
smooth = 0;
x = 638;
y = 539;
},
{
smooth = 0;
x = 522;
y = 670;
},
{
segmentType = curve;
smooth = 1;
x = 337;
y = 670;
}
);
},
{
points = (
{
smooth = 0;
x = 512;
y = 656;
},
{
smooth = 0;
x = 622;
y = 530;
},
{
segmentType = curve;
smooth = 1;
x = 622;
y = 330;
},
{
smooth = 0;
x = 622;
y = 130;
},
{
smooth = 0;
x = 512;
y = 4;
},
{
segmentType = curve;
smooth = 1;
x = 337;
y = 4;
},
{
smooth = 0;
x = 162;
y = 4;
},
{
smooth = 0;
x = 52;
y = 130;
},
{
segmentType = curve;
smooth = 1;
x = 52;
y = 330;
},
{
smooth = 0;
x = 52;
y = 530;
},
{
smooth = 0;
x = 162;
y = 656;
},
{
segmentType = curve;
smooth = 1;
x = 337;
y = 656;
}
);
}
);
lib = {
};
name = G.alt;
unicodes = (
);
width = 684;
};
};
};
},
{
glyphname = IJ.ss05;
layers = (
{
layerId = "1C7CD022-87C7-4E11-B656-E47B18819458";
paths = (
{
closed = 1;
nodes = (
"410 -10 OFFCURVE",
"478 75 OFFCURVE",
"478 209 CURVE SMOOTH",
"478 660 LINE",
"462 660 LINE",
"462 209 LINE SMOOTH",
"462 84 OFFCURVE",
"400 4 OFFCURVE",
"282 4 CURVE SMOOTH",
"162 4 OFFCURVE",
"111 61 OFFCURVE",
"111 163 CURVE",
"95 163 LINE",
"95 49 OFFCURVE",
"150 -10 OFFCURVE",
"282 -10 CURVE SMOOTH"
);
},
{
closed = 1;
nodes = (
"115 262 LINE",
"115 660 LINE",
"99 660 LINE",
"99 262 LINE"
);
}
);
width = 570;
},
{
layerId = "4A17B37A-CBFD-40E5-9E02-2080A0E1F76C";
paths = (
{
closed = 1;
nodes = (
"446 -10 OFFCURVE",
"532 78 OFFCURVE",
"532 226 CURVE SMOOTH",
"532 660 LINE",
"452 660 LINE",
"452 245 LINE SMOOTH",
"452 127 OFFCURVE",
"413 65 OFFCURVE",
"313 65 CURVE SMOOTH",
"226 65 OFFCURVE",
"178 106 OFFCURVE",
"189 191 CURVE",
"112 191 LINE",
"97 63 OFFCURVE",
"170 -10 OFFCURVE",
"313 -10 CURVE SMOOTH"
);
},
{
closed = 1;
nodes = (
"188 287 LINE",
"188 660 LINE",
"108 660 LINE",
"108 287 LINE"
);
}
);
width = 633;
},
{
layerId = "99EB5860-B45A-4B60-BB0B-F826C8F71D42";
paths = (
{
closed = 1;
nodes = (
"531 -10 OFFCURVE",
"647 95 OFFCURVE",
"647 272 CURVE SMOOTH",
"647 660 LINE",
"414 660 LINE",
"414 265 LINE SMOOTH",
"414 193 OFFCURVE",
"394 165 OFFCURVE",
"348 165 CURVE SMOOTH",
"297 165 OFFCURVE",
"278 191 OFFCURVE",
"284 248 CURVE",
"50 248 LINE",
"29 75 OFFCURVE",
"144 -10 OFFCURVE",
"341 -10 CURVE SMOOTH"
);
},
{
closed = 1;
nodes = (
"283 292 LINE",
"283 660 LINE",
"50 660 LINE",
"50 292 LINE"
);
}
);
width = 682;
}
);
leftKerningGroup = I;
rightKerningGroup = I;
rightMetricsKey = J;
},
{
glyphname = A.swsh;
layers = (
{
anchors = (
{
name = bottom;
position = "{581, 0}";
},
{
name = ogonek;
position = "{862, 0}";
},
{
name = top;
position = "{581, 660}";
}
);
components = (
{
name = _part.swsh_topleft;
transform = "{1, 0, 0, 1, 120, 0}";
}
);
layerId = "1C7CD022-87C7-4E11-B656-E47B18819458";
paths = (
{
closed = 1;
nodes = (
"248 -110 OFFCURVE",
"287 -73 OFFCURVE",
"326 20 CURVE SMOOTH",
"564 597 LINE",
"581 642 LINE",
"581 642 LINE",
"598 596 LINE",
"845 0 LINE",
"862 0 LINE",
"590 660 LINE",
"572 660 LINE",
"315 36 LINE SMOOTH",
"272 -68 OFFCURVE",
"239 -96 OFFCURVE",
"163 -96 CURVE SMOOTH",
"79 -96 OFFCURVE",
"24 -62 OFFCURVE",
"24 39 CURVE",
"10 32 LINE",
"10 -72 OFFCURVE",
"74 -110 OFFCURVE",
"165 -110 CURVE SMOOTH"
);
},
{
closed = 1;
nodes = (
"755 234 LINE",
"755 248 LINE",
"406 248 LINE",
"406 234 LINE"
);
}
);
width = 874;
},
{
anchors = (
{
name = bottom;
position = "{575, 0}";
},
{
name = ogonek;
position = "{879, 0}";
},
{
name = top;
position = "{575, 660}";
}
);
components = (
{
name = _part.swsh_topleft;
transform = "{1, 0, 0, 1, 45, 0}";
}
);
layerId = "4A17B37A-CBFD-40E5-9E02-2080A0E1F76C";
paths = (
{
closed = 1;
nodes = (
"275 -110 OFFCURVE",
"334 -58 OFFCURVE",
"371 42 CURVE SMOOTH",
"544 495 LINE",
"573 584 LINE",
"575 584 LINE",
"606 492 LINE",
"794 0 LINE",
"879 0 LINE",
"623 660 LINE",
"528 660 LINE",
"308 95 LINE SMOOTH",
"266 -12 OFFCURVE",
"240 -40 OFFCURVE",
"172 -40 CURVE SMOOTH",
"107 -40 OFFCURVE",
"70 -21 OFFCURVE",
"58 65 CURVE",
"0 22 LINE",
"6 -60 OFFCURVE",
"68 -110 OFFCURVE",
"173 -110 CURVE SMOOTH"
);
},
{
closed = 1;
nodes = (
"750 183 LINE",
"750 258 LINE",
"397 258 LINE",
"397 183 LINE"
);
}
);
width = 905;
},
{
anchors = (
{
name = bottom;
position = "{574, 0}";
},
{
name = ogonek;
position = "{929, 0}";
},
{
name = top;
position = "{574, 660}";
}
);
components = (
{
name = _part.swsh_topleft;
transform = "{1, 0, 0, 1, 10, 0}";
}
);
layerId = "99EB5860-B45A-4B60-BB0B-F826C8F71D42";
paths = (
{
closed = 1;
nodes = (
"349 -110 OFFCURVE",
"427 -34 OFFCURVE",
"466 103 CURVE SMOOTH",
"545 379 LINE",
"571 491 LINE",
"574 491 LINE",
"601 379 LINE",
"691 0 LINE",
"929 0 LINE",
"714 660 LINE",
"434 660 LINE",
"279 181 LINE SMOOTH",
"252 96 OFFCURVE",
"217 56 OFFCURVE",
"160 56 CURVE SMOOTH",
"116 56 OFFCURVE",
"86 69 OFFCURVE",
"54 107 CURVE",
"-1 -47 LINE",
"29 -93 OFFCURVE",
"96 -110 OFFCURVE",
"176 -110 CURVE SMOOTH"
);
},
{
closed = 1;
nodes = (
"764 126 LINE",
"764 271 LINE",
"387 271 LINE",
"387 126 LINE"
);
}
);
width = 919;
}
);
rightKerningGroup = A;
rightMetricsKey = A;
userData = {
com.typemytype.robofont.layerData = {
background = {
anchors = (
);
components = (
{
baseGlyph = A;
transformation = (
1,
0,
0,
1,
0,
0
);
}
);
contours = (
);
lib = {
};
name = A.swsh_i;
unicodes = (
);
width = 586;
};
};
};
},
{
glyphname = L.swsh;
layers = (
{
anchors = (
{
name = bottom;
position = "{327, 0}";
},
{
name = center;
position = "{465, 335}";
},
{
name = ogonek;
position = "{400, 0}";
},
{
name = top;
position = "{107, 660}";
},
{
name = topright;
position = "{261, 700}";
}
);
layerId = "1C7CD022-87C7-4E11-B656-E47B18819458";
paths = (
{
closed = 1;
nodes = (
"400 0 LINE SMOOTH",
"512 0 OFFCURVE",
"573 52 OFFCURVE",
"573 158 CURVE SMOOTH",
"573 244 OFFCURVE",
"524 294 OFFCURVE",
"451 310 CURVE",
"440 299 LINE",
"512 283 OFFCURVE",
"557 236 OFFCURVE",
"557 158 CURVE SMOOTH",
"557 58 OFFCURVE",
"500 14 OFFCURVE",
"395 14 CURVE SMOOTH",
"260 14 LINE",
"260 0 LINE"
);
},
{
closed = 1;
nodes = (
"361 0 LINE",
"361 14 LINE",
"105 14 LINE",
"105 0 LINE"
);
},
{
closed = 1;
nodes = (
"115 0 LINE",
"115 660 LINE",
"99 660 LINE",
"99 0 LINE"
);
}
);
width = 583;
},
{
anchors = (
{
name = bottom;
position = "{377, 0}";
},
{
name = center;
position = "{464, 342}";
},
{
name = ogonek;
position = "{418, 0}";
},
{
name = top;
position = "{148, 660}";
},
{
name = topright;
position = "{300, 700}";
}
);
layerId = "4A17B37A-CBFD-40E5-9E02-2080A0E1F76C";
paths = (
{
closed = 1;
nodes = (
"418 0 LINE SMOOTH",
"545 0 OFFCURVE",
"627 57 OFFCURVE",
"627 179 CURVE SMOOTH",
"627 288 OFFCURVE",
"553 345 OFFCURVE",
"468 348 CURVE",
"437 284 LINE",
"501 283 OFFCURVE",
"547 251 OFFCURVE",
"547 180 CURVE SMOOTH",
"547 99 OFFCURVE",
"489 75 OFFCURVE",
"401 75 CURVE SMOOTH",
"274 75 LINE",
"274 0 LINE"
);
},
{
closed = 1;
nodes = (
"346 0 LINE",
"346 75 LINE",
"150 75 LINE",
"150 0 LINE"
);
},
{
closed = 1;
nodes = (
"188 0 LINE",
"188 660 LINE",
"108 660 LINE",
"108 0 LINE"
);
}
);
width = 637;
},
{
anchors = (
{
name = bottom;
position = "{365, 0}";
},
{
name = center;
position = "{405, 364}";
},
{
name = ogonek;
position = "{461, 0}";
},
{
name = top;
position = "{166, 660}";
},
{
name = topright;
position = "{388, 701}";
}
);
layerId = "99EB5860-B45A-4B60-BB0B-F826C8F71D42";
paths = (
{
closed = 1;
nodes = (
"461 0 LINE SMOOTH",
"639 0 OFFCURVE",
"728 82 OFFCURVE",
"728 224 CURVE SMOOTH",
"728 304 OFFCURVE",
"701 433 OFFCURVE",
"521 438 CURVE",
"458 298 LINE",
"515 295 OFFCURVE",
"534 264 OFFCURVE",
"534 228 CURVE SMOOTH",
"534 199 OFFCURVE",
"515 171 OFFCURVE",
"461 171 CURVE SMOOTH",
"331 171 LINE",
"331 0 LINE"
);
},
{
closed = 1;
nodes = (
"365 0 LINE",
"406 171 LINE",
"162 171 LINE",
"162 0 LINE"
);
},
{
closed = 1;
nodes = (
"283 0 LINE",
"283 660 LINE",
"50 660 LINE",
"50 0 LINE"
);
}
);
width = 738;
}
);
leftKerningGroup = I;
leftMetricsKey = I;
rightMetricsKey = "=|F.swsh";
userData = {
com.typemytype.robofont.layerData = {
background = {
anchors = (
);
components = (
{
baseGlyph = L;
transformation = (
1,
0,
0,
1,
0,
0
);
}
);
contours = (
);
lib = {
};
name = L.swsh_f;
unicodes = (
);
width = 543;
};
};
};
},
{
glyphname = Lslash.swsh;
layers = (
{
anchors = (
{
name = bottom;
position = "{338, 0}";
},
{
name = ogonek;
position = "{411, 0}";
},
{
name = top;
position = "{118, 660}";
},
{
name = topright;
position = "{272, 700}";
}
);
components = (
{
alignment = -1;
name = L.swsh;
transform = "{1, 0, 0, 1, 11, 0}";
}
);
layerId = "1C7CD022-87C7-4E11-B656-E47B18819458";
paths = (
{
closed = 1;
nodes = (
"9 232 LINE",
"9 212 LINE",
"334 419 LINE",
"334 439 LINE"
);
}
);
width = 594;
},
{
anchors = (
{
name = bottom;
position = "{407, 0}";
},
{
name = ogonek;
position = "{448, 0}";
},
{
name = top;
position = "{178, 660}";
},
{
name = topright;
position = "{330, 700}";
}
);
components = (
{
name = L.swsh;
transform = "{1, 0, 0, 1, 30, 0}";
}
);
layerId = "4A17B37A-CBFD-40E5-9E02-2080A0E1F76C";
paths = (
{
closed = 1;
nodes = (
"33 279 LINE",
"33 196 LINE",
"395 398 LINE",
"395 481 LINE"
);
}
);
width = 667;
},
{
anchors = (
{
name = bottom;
position = "{455, 0}";
},
{
name = ogonek;
position = "{551, 0}";
},
{
name = top;
position = "{256, 660}";
},
{
name = topright;
position = "{478, 701}";
}
);
components = (
{
name = L.swsh;
transform = "{1, 0, 0, 1, 90, 0}";
}
);
layerId = "99EB5860-B45A-4B60-BB0B-F826C8F71D42";
paths = (
{
closed = 1;
nodes = (
"26 299 LINE",
"26 146 LINE",
"539 372 LINE",
"539 525 LINE"
);
}
);
width = 828;
}
);
leftMetricsKey = Lslash;
rightMetricsKey = L.swsh;
},
{
glyphname = M.swsh;
layers = (
{
anchors = (
{
name = bottom;
position = "{607, 0}";
},
{
name = ogonek;
position = "{901, 0}";
},
{
name = top;
position = "{607, 660}";
}
);
components = (
{
name = _part.swsh_bttmleft;
transform = "{1, 0, 0, 1, 42, 0}";
}
);
layerId = "1C7CD022-87C7-4E11-B656-E47B18819458";
paths = (
{
closed = 1;
nodes = (
"617 0 LINE",
"886 637 LINE",
"886 637 LINE",
"885 580 LINE",
"885 0 LINE",
"901 0 LINE",
"901 660 LINE",
"880 660 LINE",
"619 47 LINE",
"607 19 LINE",
"607 19 LINE",
"595 48 LINE",
"334 660 LINE",
"313 660 LINE",
"313 80 LINE",
"329 80 LINE",
"329 580 LINE",
"328 637 LINE",
"328 637 LINE",
"597 0 LINE"
);
},
{
closed = 1;
nodes = (
"143 361 LINE",
"71 377 OFFCURVE",
"26 424 OFFCURVE",
"26 502 CURVE SMOOTH",
"26 602 OFFCURVE",
"83 646 OFFCURVE",
"188 646 CURVE SMOOTH",
"322 646 LINE",
"322 660 LINE",
"183 660 LINE SMOOTH",
"71 660 OFFCURVE",
"10 608 OFFCURVE",
"10 502 CURVE SMOOTH",
"10 416 OFFCURVE",
"59 366 OFFCURVE",
"132 350 CURVE"
);
}
);
width = 1000;
},
{
anchors = (
{
name = bottom;
position = "{646, 0}";
},
{
name = ogonek;
position = "{965, 0}";
},
{
name = top;
position = "{646, 660}";
}
);
components = (
{
name = _part.swsh_bttmleft;
transform = "{1, 0, 0, 1, 42, 0}";
}
);
layerId = "4A17B37A-CBFD-40E5-9E02-2080A0E1F76C";
paths = (
{
closed = 1;
nodes = (
"680 0 LINE",
"897 589 LINE",
"898 589 LINE",
"889 415 LINE",
"889 0 LINE",
"965 0 LINE",
"965 660 LINE",
"842 660 LINE",
"698 258 LINE",
"647 94 LINE",
"645 94 LINE",
"595 259 LINE",
"450 660 LINE",
"327 660 LINE",
"327 200 LINE",
"403 200 LINE",
"403 415 LINE",
"394 589 LINE",
"395 589 LINE",
"612 0 LINE"
);
},
{
closed = 1;
nodes = (
"200 366 LINE",
"136 377 OFFCURVE",
"90 419 OFFCURVE",
"90 480 CURVE SMOOTH",
"90 558 OFFCURVE",
"148 595 OFFCURVE",
"236 595 CURVE SMOOTH",
"433 595 LINE",
"433 660 LINE",
"219 660 LINE SMOOTH",
"92 660 OFFCURVE",
"10 593 OFFCURVE",
"10 481 CURVE SMOOTH",
"10 382 OFFCURVE",
"84 315 OFFCURVE",
"169 302 CURVE"
);
}
);
width = 1073;
},
{
anchors = (
{
name = bottom;
position = "{741, 0}";
},
{
name = ogonek;
position = "{1165, 0}";
},
{
name = top;
position = "{741, 660}";
}
);
components = (
{
name = _part.swsh_bttmleft;
transform = "{1, 0, 0, 1, 82, 0}";
}
);
layerId = "99EB5860-B45A-4B60-BB0B-F826C8F71D42";
paths = (
{
closed = 1;
nodes = (
"834 0 LINE",
"962 451 LINE",
"965 451 LINE",
"962 229 LINE",
"962 0 LINE",
"1165 0 LINE",
"1165 660 LINE",
"855 660 LINE",
"779 367 LINE",
"750 244 LINE",
"748 244 LINE",
"719 367 LINE",
"643 660 LINE",
"317 660 LINE",
"317 192 LINE",
"521 192 LINE",
"521 229 LINE",
"518 451 LINE",
"522 451 LINE",
"648 0 LINE"
);
},
{
closed = 1;
nodes = (
"290 362 LINE",
"240 365 OFFCURVE",
"214 396 OFFCURVE",
"214 432 CURVE SMOOTH",
"214 464 OFFCURVE",
"230 494 OFFCURVE",
"277 494 CURVE SMOOTH",
"527 494 LINE",
"527 660 LINE",
"277 660 LINE SMOOTH",
"99 660 OFFCURVE",
"10 578 OFFCURVE",
"10 436 CURVE SMOOTH",
"10 299 OFFCURVE",
"97 216 OFFCURVE",
"227 212 CURVE"
);
}
);
width = 1215;
}
);
leftMetricsKey = F.swsh;
rightKerningGroup = I;
rightMetricsKey = I;
userData = {
com.typemytype.robofont.layerData = {
background = {
anchors = (
);
components = (
{
baseGlyph = M;
transformation = (
1,
0,
0,
1,
0,
0
);
}
);
contours = (
);
lib = {
};
name = M.swsh_i;
unicodes = (
);
width = 786;
};
};
};
},
{
glyphname = N.swsh;
layers = (
{
anchors = (
{
name = bottom;
position = "{347, 0}";
},
{
name = ogonek;
position = "{595, 0}";
},
{
name = top;
position = "{353, 660}";
}
);
layerId = "1C7CD022-87C7-4E11-B656-E47B18819458";
paths = (
{
closed = 1;
nodes = (
"115 0 LINE",
"115 587 LINE",
"114 644 LINE",
"114 644 LINE",
"140 605 LINE",
"573 0 LINE",
"595 0 LINE",
"595 461 LINE",
"579 461 LINE",
"579 73 LINE",
"580 16 LINE",
"580 16 LINE",
"554 55 LINE",
"121 660 LINE",
"99 660 LINE",
"99 0 LINE"
);
},
{
closed = 1;
nodes = (
"595 423 LINE",
"595 562 LINE SMOOTH",
"595 669 OFFCURVE",
"645 721 OFFCURVE",
"729 721 CURVE SMOOTH",
"805 721 OFFCURVE",
"850 687 OFFCURVE",
"860 612 CURVE",
"873 619 LINE",
"863 698 OFFCURVE",
"813 735 OFFCURVE",
"729 735 CURVE SMOOTH",
"635 735 OFFCURVE",
"579 677 OFFCURVE",
"579 559 CURVE SMOOTH",
"579 423 LINE"
);
}
);
width = 694;
},
{
anchors = (
{
name = bottom;
position = "{397, 0}";
},
{
name = ogonek;
position = "{626, 0}";
},
{
name = top;
position = "{371, 660}";
}
);
layerId = "4A17B37A-CBFD-40E5-9E02-2080A0E1F76C";
paths = (
{
closed = 1;
nodes = (
"184 0 LINE",
"184 466 LINE",
"180 572 LINE",
"181 572 LINE",
"251 442 LINE",
"527 0 LINE",
"626 0 LINE",
"626 492 LINE",
"550 492 LINE",
"550 194 LINE",
"554 88 LINE",
"553 88 LINE",
"482 220 LINE",
"207 660 LINE",
"108 660 LINE",
"108 0 LINE"
);
},
{
closed = 1;
nodes = (
"626 423 LINE",
"626 535 LINE SMOOTH",
"626 612 OFFCURVE",
"669 666 OFFCURVE",
"742 666 CURVE SMOOTH",
"813 666 OFFCURVE",
"844 635 OFFCURVE",
"856 561 CURVE",
"915 604 LINE",
"903 683 OFFCURVE",
"849 735 OFFCURVE",
"742 735 CURVE SMOOTH",
"616 735 OFFCURVE",
"550 651 OFFCURVE",
"550 559 CURVE SMOOTH",
"550 423 LINE"
);
}
);
width = 734;
},
{
anchors = (
{
name = bottom;
position = "{374, 0}";
},
{
name = ogonek;
position = "{696, 0}";
},
{
name = top;
position = "{373, 660}";
}
);
layerId = "99EB5860-B45A-4B60-BB0B-F826C8F71D42";
paths = (
{
closed = 1;
nodes = (
"252 0 LINE",
"252 245 LINE",
"248 381 LINE",
"250 381 LINE",
"286 300 LINE",
"444 0 LINE",
"696 0 LINE",
"696 400 LINE",
"494 440 LINE",
"494 415 LINE",
"498 279 LINE",
"496 279 LINE",
"460 359 LINE",
"302 660 LINE",
"50 660 LINE",
"50 0 LINE"
);
},
{
closed = 1;
nodes = (
"696 359 LINE",
"696 455 LINE SMOOTH",
"696 521 OFFCURVE",
"729 554 OFFCURVE",
"785 554 CURVE SMOOTH",
"835 554 OFFCURVE",
"860 539 OFFCURVE",
"887 506 CURVE",
"957 647 LINE",
"910 696 OFFCURVE",
"851 720 OFFCURVE",
"752 720 CURVE SMOOTH",
"600 720 OFFCURVE",
"494 656 OFFCURVE",
"494 471 CURVE SMOOTH",
"494 431 LINE"
);
}
);
width = 746;
}
);
leftKerningGroup = I;
leftMetricsKey = I;
userData = {
com.typemytype.robofont.layerData = {
background = {
anchors = (
);
components = (
{
baseGlyph = N;
transformation = (
1,
0,
0,
1,
0,
0
);
}
);
contours = (
);
lib = {
};
name = N.swsh_f;
unicodes = (
);
width = 694;
};
};
};
},
{
glyphname = R.swsh;
layers = (
{
anchors = (
{
name = bottom;
position = "{560, 0}";
},
{
name = ogonek;
position = "{790, 0}";
},
{
name = top;
position = "{507, 660}";
}
);
components = (
{
name = _part.swsh_topleft;
transform = "{1, 0, 0, 1, -24, 0}";
}
);
layerId = "1C7CD022-87C7-4E11-B656-E47B18819458";
paths = (
{
closed = 1;
nodes = (
"552 300 LINE SMOOTH",
"681 300 OFFCURVE",
"761 368 OFFCURVE",
"761 480 CURVE SMOOTH",
"761 592 OFFCURVE",
"681 660 OFFCURVE",
"552 660 CURVE SMOOTH",
"321 660 LINE",
"321 646 LINE",
"552 646 LINE SMOOTH",
"673 646 OFFCURVE",
"745 584 OFFCURVE",
"745 480 CURVE SMOOTH",
"745 376 OFFCURVE",
"673 314 OFFCURVE",
"552 314 CURVE SMOOTH",
"321 314 LINE",
"321 300 LINE"
);
},
{
closed = 1;
nodes = (
"273 -110 OFFCURVE",
"329 -52 OFFCURVE",
"329 46 CURVE SMOOTH",
"329 202 LINE",
"313 202 LINE",
"313 43 LINE SMOOTH",
"313 -44 OFFCURVE",
"263 -96 OFFCURVE",
"179 -96 CURVE SMOOTH",
"97 -96 OFFCURVE",
"48 -48 OFFCURVE",
"48 33 CURVE",
"35 26 LINE",
"35 -59 OFFCURVE",
"89 -110 OFFCURVE",
"179 -110 CURVE SMOOTH"
);
},
{
closed = 1;
nodes = (
"329 163 LINE",
"329 660 LINE",
"313 660 LINE",
"313 163 LINE"
);
},
{
closed = 1;
nodes = (
"790 0 LINE",
"583 314 LINE",
"570 304 LINE",
"772 0 LINE"
);
}
);
width = 825;
},
{
anchors = (
{
name = bottom;
position = "{584, 0}";
},
{
name = ogonek;
position = "{840, 0}";
},
{
name = top;
position = "{541, 660}";
}
);
components = (
{
name = _part.swsh_topleft;
transform = "{1, 0, 0, 1, -84, 0}";
}
);
layerId = "4A17B37A-CBFD-40E5-9E02-2080A0E1F76C";
paths = (
{
closed = 1;
nodes = (
"577 274 LINE SMOOTH",
"711 274 OFFCURVE",
"800 348 OFFCURVE",
"800 467 CURVE SMOOTH",
"800 586 OFFCURVE",
"711 660 OFFCURVE",
"577 660 CURVE SMOOTH",
"367 660 LINE",
"367 585 LINE",
"576 585 LINE SMOOTH",
"670 585 OFFCURVE",
"716 546 OFFCURVE",
"716 467 CURVE SMOOTH",
"716 388 OFFCURVE",
"670 349 OFFCURVE",
"576 349 CURVE SMOOTH",
"367 349 LINE",
"367 274 LINE"
);
},
{
closed = 1;
nodes = (
"340 -110 OFFCURVE",
"407 -26 OFFCURVE",
"407 66 CURVE SMOOTH",
"407 202 LINE",
"327 202 LINE",
"327 90 LINE SMOOTH",
"327 13 OFFCURVE",
"284 -41 OFFCURVE",
"211 -41 CURVE SMOOTH",
"140 -41 OFFCURVE",
"109 -10 OFFCURVE",
"97 64 CURVE",
"38 21 LINE",
"50 -58 OFFCURVE",
"104 -110 OFFCURVE",
"211 -110 CURVE SMOOTH"
);
},
{
closed = 1;
nodes = (
"407 188 LINE",
"407 660 LINE",
"327 660 LINE",
"327 188 LINE"
);
},
{
closed = 1;
nodes = (
"840 0 LINE",
"622 333 LINE",
"555 289 LINE",
"745 0 LINE"
);
}
);
width = 884;
},
{
anchors = (
{
name = bottom;
position = "{629, 0}";
},
{
name = ogonek;
position = "{979, 0}";
},
{
name = top;
position = "{601, 660}";
}
);
components = (
{
name = _part.swsh_topleft;
transform = "{1, 0, 0, 1, 10, 0}";
}
);
layerId = "99EB5860-B45A-4B60-BB0B-F826C8F71D42";
paths = (
{
closed = 1;
nodes = (
"675 219 LINE SMOOTH",
"851 219 OFFCURVE",
"942 293 OFFCURVE",
"942 439 CURVE SMOOTH",
"942 586 OFFCURVE",
"851 660 OFFCURVE",
"675 660 CURVE SMOOTH",
"475 660 LINE",
"475 494 LINE",
"628 494 LINE SMOOTH",
"687 494 OFFCURVE",
"709 477 OFFCURVE",
"709 433 CURVE SMOOTH",
"709 388 OFFCURVE",
"687 372 OFFCURVE",
"628 372 CURVE SMOOTH",
"475 372 LINE",
"475 219 LINE"
);
},
{
closed = 1;
nodes = (
"433 -110 OFFCURVE",
"545 -48 OFFCURVE",
"545 149 CURVE SMOOTH",
"545 212 LINE",
"317 212 LINE",
"317 135 LINE SMOOTH",
"317 87 OFFCURVE",
"287 56 OFFCURVE",
"242 56 CURVE SMOOTH",
"194 56 OFFCURVE",
"162 74 OFFCURVE",
"134 118 CURVE",
"58 -17 LINE",
"104 -83 OFFCURVE",
"178 -110 OFFCURVE",
"277 -110 CURVE SMOOTH"
);
},
{
closed = 1;
nodes = (
"545 203 LINE",
"545 660 LINE",
"317 660 LINE",
"317 203 LINE"
);
},
{
closed = 1;
nodes = (
"979 0 LINE",
"773 323 LINE",
"572 289 LINE",
"726 0 LINE"
);
}
);
width = 972;
}
);
leftMetricsKey = F.swsh;
rightKerningGroup = R;
rightMetricsKey = R;
userData = {
com.typemytype.robofont.layerData = {
background = {
anchors = (
);
components = (
{
baseGlyph = R;
transformation = (
1,
0,
0,
1,
0,
0
);
}
);
contours = (
);
lib = {
};
name = R.swsh_i;
unicodes = (
);
width = 611;
};
};
};
},
{
glyphname = S.swsh;
layers = (
{
anchors = (
{
name = bottom;
position = "{321, -100}";
},
{
name = ogonek;
position = "{393, -100}";
},
{
name = top;
position = "{290, 660}";
}
);
layerId = "1C7CD022-87C7-4E11-B656-E47B18819458";
paths = (
{
closed = 1;
nodes = (
"457 -110 OFFCURVE",
"548 -39 OFFCURVE",
"548 76 CURVE SMOOTH",
"548 170 OFFCURVE",
"492 224 OFFCURVE",
"325 277 CURVE SMOOTH",
"159 330 OFFCURVE",
"106 382 OFFCURVE",
"106 482 CURVE SMOOTH",
"106 587 OFFCURVE",
"191 656 OFFCURVE",
"315 656 CURVE SMOOTH",
"451 656 OFFCURVE",
"511 591 OFFCURVE",
"511 467 CURVE",
"525 474 LINE",
"524 602 OFFCURVE",
"456 670 OFFCURVE",
"315 670 CURVE SMOOTH",
"183 670 OFFCURVE",
"90 593 OFFCURVE",
"90 482 CURVE SMOOTH",
"90 377 OFFCURVE",
"148 317 OFFCURVE",
"318 264 CURVE SMOOTH",
"477 214 OFFCURVE",
"532 163 OFFCURVE",
"532 76 CURVE SMOOTH",
"532 -32 OFFCURVE",
"449 -96 OFFCURVE",
"309 -96 CURVE SMOOTH",
"170 -96 OFFCURVE",
"90 -38 OFFCURVE",
"90 63 CURVE SMOOTH",
"90 85 OFFCURVE",
"93 107 OFFCURVE",
"99 129 CURVE",
"84 124 LINE",
"78 100 OFFCURVE",
"75 81 OFFCURVE",
"75 61 CURVE SMOOTH",
"75 -47 OFFCURVE",
"162 -110 OFFCURVE",
"309 -110 CURVE SMOOTH"
);
}
);
width = 594;
},
{
anchors = (
{
name = bottom;
position = "{336, -100}";
},
{
name = ogonek;
position = "{409, -100}";
},
{
name = top;
position = "{326, 660}";
}
);
layerId = "4A17B37A-CBFD-40E5-9E02-2080A0E1F76C";
paths = (
{
closed = 1;
nodes = (
"482 -110 OFFCURVE",
"585 -23 OFFCURVE",
"585 108 CURVE SMOOTH",
"585 213 OFFCURVE",
"526 266 OFFCURVE",
"353 312 CURVE SMOOTH",
"209 350 OFFCURVE",
"163 389 OFFCURVE",
"163 459 CURVE SMOOTH",
"163 545 OFFCURVE",
"224 595 OFFCURVE",
"331 595 CURVE SMOOTH",
"442 595 OFFCURVE",
"489 554 OFFCURVE",
"493 451 CURVE",
"572 482 LINE",
"558 605 OFFCURVE",
"474 670 OFFCURVE",
"330 670 CURVE SMOOTH",
"177 670 OFFCURVE",
"79 584 OFFCURVE",
"79 450 CURVE SMOOTH",
"79 347 OFFCURVE",
"142 286 OFFCURVE",
"318 241 CURVE SMOOTH",
"459 205 OFFCURVE",
"502 168 OFFCURVE",
"502 104 CURVE SMOOTH",
"502 14 OFFCURVE",
"442 -35 OFFCURVE",
"329 -35 CURVE SMOOTH",
"201 -35 OFFCURVE",
"141 7 OFFCURVE",
"141 97 CURVE SMOOTH",
"141 109 OFFCURVE",
"142 122 OFFCURVE",
"144 136 CURVE",
"69 114 LINE",
"67 100 OFFCURVE",
"66 87 OFFCURVE",
"66 75 CURVE SMOOTH",
"66 -44 OFFCURVE",
"159 -110 OFFCURVE",
"326 -110 CURVE SMOOTH"
);
}
);
width = 641;
},
{
anchors = (
{
name = bottom;
position = "{304, -100}";
},
{
name = ogonek;
position = "{409, -100}";
},
{
name = top;
position = "{331, 660}";
}
);
layerId = "99EB5860-B45A-4B60-BB0B-F826C8F71D42";
paths = (
{
closed = 1;
nodes = (
"496 -110 OFFCURVE",
"629 -31 OFFCURVE",
"629 127 CURVE SMOOTH",
"629 253 OFFCURVE",
"565 316 OFFCURVE",
"396 350 CURVE SMOOTH",
"299 370 OFFCURVE",
"267 391 OFFCURVE",
"267 431 CURVE SMOOTH",
"267 470 OFFCURVE",
"290 495 OFFCURVE",
"331 495 CURVE SMOOTH",
"392 495 OFFCURVE",
"413 460 OFFCURVE",
"413 386 CURVE",
"619 464 LINE",
"617 613 OFFCURVE",
"527 670 OFFCURVE",
"337 670 CURVE SMOOTH",
"138 670 OFFCURVE",
"28 568 OFFCURVE",
"28 433 CURVE SMOOTH",
"28 292 OFFCURVE",
"101 222 OFFCURVE",
"284 191 CURVE SMOOTH",
"385 174 OFFCURVE",
"414 153 OFFCURVE",
"414 115 CURVE SMOOTH",
"414 87 OFFCURVE",
"390 65 OFFCURVE",
"325 65 CURVE SMOOTH",
"250 65 OFFCURVE",
"221 89 OFFCURVE",
"221 133 CURVE SMOOTH",
"221 146 OFFCURVE",
"223 157 OFFCURVE",
"227 174 CURVE",
"25 121 LINE",
"22 109 OFFCURVE",
"19 91 OFFCURVE",
"19 62 CURVE SMOOTH",
"19 -37 OFFCURVE",
"133 -110 OFFCURVE",
"304 -110 CURVE SMOOTH"
);
}
);
width = 646;
}
);
userData = {
com.typemytype.robofont.layerData = {
background = {
anchors = (
);
components = (
{
baseGlyph = S;
transformation = (
1,
0,
0,
1,
0,
0
);
}
);
contours = (
);
lib = {
};
name = S.swsh_i;
unicodes = (
);
width = 594;
};
};
};
},
{
glyphname = T.swsh;
layers = (
{
anchors = (
{
name = bottom;
position = "{352, 0}";
},
{
name = center;
position = "{348, 371}";
},
{
name = ogonek;
position = "{356, 0}";
},
{
name = top;
position = "{348, 660}";
}
);
layerId = "1C7CD022-87C7-4E11-B656-E47B18819458";
paths = (
{
closed = 1;
nodes = (
"143 361 LINE",
"71 377 OFFCURVE",
"26 424 OFFCURVE",
"26 502 CURVE SMOOTH",
"26 602 OFFCURVE",
"83 646 OFFCURVE",
"188 646 CURVE SMOOTH",
"333 646 LINE",
"333 660 LINE",
"183 660 LINE SMOOTH",
"71 660 OFFCURVE",
"10 608 OFFCURVE",
"10 502 CURVE SMOOTH",
"10 416 OFFCURVE",
"59 366 OFFCURVE",
"132 350 CURVE"
);
},
{
closed = 1;
nodes = (
"356 0 LINE",
"356 653 LINE",
"340 653 LINE",
"340 0 LINE"
);
},
{
closed = 1;
nodes = (
"609 646 LINE",
"609 660 LINE",
"187 660 LINE",
"187 646 LINE"
);
}
);
width = 620;
},
{
anchors = (
{
name = bottom;
position = "{423, 0}";
},
{
name = center;
position = "{407, 330}";
},
{
name = ogonek;
position = "{447, 0}";
},
{
name = top;
position = "{407, 660}";
}
);
layerId = "4A17B37A-CBFD-40E5-9E02-2080A0E1F76C";
paths = (
{
closed = 1;
nodes = (
"200 366 LINE",
"136 377 OFFCURVE",
"90 419 OFFCURVE",
"90 480 CURVE SMOOTH",
"90 557 OFFCURVE",
"148 585 OFFCURVE",
"236 585 CURVE SMOOTH",
"413 585 LINE",
"413 660 LINE",
"219 660 LINE SMOOTH",
"92 660 OFFCURVE",
"10 593 OFFCURVE",
"10 481 CURVE SMOOTH",
"10 382 OFFCURVE",
"84 315 OFFCURVE",
"169 302 CURVE"
);
},
{
closed = 1;
nodes = (
"447 0 LINE",
"447 660 LINE",
"367 660 LINE",
"367 0 LINE"
);
},
{
closed = 1;
nodes = (
"677 585 LINE",
"677 660 LINE",
"279 660 LINE",
"279 585 LINE"
);
}
);
width = 709;
},
{
anchors = (
{
name = bottom;
position = "{485, 0}";
},
{
name = center;
position = "{501, 338}";
},
{
name = ogonek;
position = "{619, 0}";
},
{
name = top;
position = "{502, 660}";
}
);
layerId = "99EB5860-B45A-4B60-BB0B-F826C8F71D42";
paths = (
{
closed = 1;
nodes = (
"290 362 LINE",
"233 365 OFFCURVE",
"214 396 OFFCURVE",
"214 432 CURVE SMOOTH",
"214 461 OFFCURVE",
"233 489 OFFCURVE",
"287 489 CURVE SMOOTH",
"477 489 LINE",
"477 660 LINE",
"277 660 LINE SMOOTH",
"99 660 OFFCURVE",
"10 578 OFFCURVE",
"10 436 CURVE SMOOTH",
"10 305 OFFCURVE",
"97 216 OFFCURVE",
"227 212 CURVE"
);
},
{
closed = 1;
nodes = (
"619 0 LINE",
"619 660 LINE",
"386 660 LINE",
"386 0 LINE"
);
},
{
closed = 1;
nodes = (
"825 489 LINE",
"825 660 LINE",
"354 660 LINE",
"354 489 LINE"
);
}
);
width = 845;
}
);
leftMetricsKey = F.swsh;
rightKerningGroup = T;
rightMetricsKey = T;
userData = {
com.typemytype.robofont.layerData = {
background = {
anchors = (
);
components = (
{
baseGlyph = T;
transformation = (
1,
0,
0,
1,
0,
0
);
}
);
contours = (
);
lib = {
};
name = T.swsh_i;
unicodes = (
);
width = 544;
};
};
};
},
{
glyphname = Tcedilla.swsh;
layers = (
{
components = (
{
name = T.swsh;
}
);
layerId = "1C7CD022-87C7-4E11-B656-E47B18819458";
paths = (
{
closed = 1;
nodes = (
"397 -36 OFFCURVE",
"424 -68 OFFCURVE",
"424 -117 CURVE SMOOTH",
"424 -160 OFFCURVE",
"395 -189 OFFCURVE",
"350 -189 CURVE SMOOTH",
"309 -189 OFFCURVE",
"287 -174 OFFCURVE",
"266 -148 CURVE",
"257 -158 LINE",
"277 -184 OFFCURVE",
"303 -202 OFFCURVE",
"350 -202 CURVE SMOOTH",
"404 -202 OFFCURVE",
"439 -168 OFFCURVE",
"439 -117 CURVE SMOOTH",
"439 -65 OFFCURVE",
"412 -32 OFFCURVE",
"355 3 CURVE",
"340 0 LINE"
);
}
);
width = 620;
},
{
components = (
{
name = T.swsh;
}
);
layerId = "4A17B37A-CBFD-40E5-9E02-2080A0E1F76C";
paths = (
{
closed = 1;
nodes = (
"425 -39 OFFCURVE",
"447 -59 OFFCURVE",
"447 -97 CURVE SMOOTH",
"447 -132 OFFCURVE",
"422 -155 OFFCURVE",
"390 -155 CURVE SMOOTH",
"362 -155 OFFCURVE",
"337 -142 OFFCURVE",
"321 -125 CURVE",
"291 -180 LINE",
"319 -205 OFFCURVE",
"354 -215 OFFCURVE",
"401 -215 CURVE SMOOTH",
"473 -215 OFFCURVE",
"518 -164 OFFCURVE",
"518 -109 CURVE SMOOTH",
"518 -65 OFFCURVE",
"497 -23 OFFCURVE",
"440 14 CURVE",
"367 0 LINE"
);
}
);
width = 709;
},
{
components = (
{
name = T.swsh;
}
);
layerId = "99EB5860-B45A-4B60-BB0B-F826C8F71D42";
paths = (
{
closed = 1;
nodes = (
"503 0 OFFCURVE",
"531 -18 OFFCURVE",
"531 -51 CURVE SMOOTH",
"531 -87 OFFCURVE",
"504 -101 OFFCURVE",
"475 -101 CURVE SMOOTH",
"440 -101 OFFCURVE",
"424 -89 OFFCURVE",
"409 -70 CURVE",
"353 -170 LINE",
"377 -193 OFFCURVE",
"419 -215 OFFCURVE",
"492 -215 CURVE SMOOTH",
"580 -215 OFFCURVE",
"653 -184 OFFCURVE",
"653 -83 CURVE SMOOTH",
"653 3 OFFCURVE",
"593 46 OFFCURVE",
"467 48 CURVE",
"457 0 LINE"
);
}
);
width = 845;
}
);
},
{
glyphname = W.swsh;
layers = (
{
anchors = (
{
name = bottom;
position = "{655, 0}";
},
{
name = ogonek;
position = "{868, 0}";
},
{
name = top;
position = "{655, 660}";
}
);
components = (
{
alignment = -1;
name = W;
transform = "{1, 0, 0, 1, 200, 0}";
}
);
layerId = "1C7CD022-87C7-4E11-B656-E47B18819458";
paths = (
{
closed = 1;
nodes = (
"143 361 LINE",
"71 377 OFFCURVE",
"26 424 OFFCURVE",
"26 502 CURVE SMOOTH",
"26 602 OFFCURVE",
"83 646 OFFCURVE",
"188 646 CURVE SMOOTH",
"233 646 LINE",
"233 660 LINE",
"183 660 LINE SMOOTH",
"71 660 OFFCURVE",
"10 608 OFFCURVE",
"10 502 CURVE SMOOTH",
"10 416 OFFCURVE",
"59 366 OFFCURVE",
"132 350 CURVE"
);
}
);
width = 1109;
},
{
anchors = (
{
name = bottom;
position = "{736, 0}";
},
{
name = ogonek;
position = "{986, 0}";
},
{
name = top;
position = "{736, 660}";
}
);
components = (
{
alignment = -1;
name = W;
transform = "{1, 0, 0, 1, 255, 0}";
}
);
layerId = "4A17B37A-CBFD-40E5-9E02-2080A0E1F76C";
paths = (
{
closed = 1;
nodes = (
"200 366 LINE",
"136 377 OFFCURVE",
"90 419 OFFCURVE",
"90 480 CURVE SMOOTH",
"90 558 OFFCURVE",
"148 595 OFFCURVE",
"236 595 CURVE SMOOTH",
"313 595 LINE",
"313 660 LINE",
"219 660 LINE SMOOTH",
"92 660 OFFCURVE",
"10 593 OFFCURVE",
"10 481 CURVE SMOOTH",
"10 382 OFFCURVE",
"84 315 OFFCURVE",
"169 302 CURVE"
);
}
);
width = 1216;
},
{
anchors = (
{
name = bottom;
position = "{832, 0}";
},
{
name = ogonek;
position = "{1162, 0}";
},
{
name = top;
position = "{832, 660}";
}
);
components = (
{
name = W;
transform = "{1, 0, 0, 1, 322, 0}";
}
);
layerId = "99EB5860-B45A-4B60-BB0B-F826C8F71D42";
paths = (
{
closed = 1;
nodes = (
"293 362 LINE",
"237 365 OFFCURVE",
"214 396 OFFCURVE",
"214 432 CURVE SMOOTH",
"214 464 OFFCURVE",
"228 494 OFFCURVE",
"282 494 CURVE SMOOTH",
"467 494 LINE",
"467 660 LINE",
"277 660 LINE SMOOTH",
"99 660 OFFCURVE",
"10 578 OFFCURVE",
"10 436 CURVE SMOOTH",
"10 301 OFFCURVE",
"98 212 OFFCURVE",
"227 212 CURVE"
);
}
);
width = 1343;
}
);
leftMetricsKey = F.swsh;
rightMetricsKey = W;
userData = {
com.typemytype.robofont.layerData = {
background = {
anchors = (
);
components = (
{
baseGlyph = W;
transformation = (
1,
0,
0,
1,
0,
0
);
}
);
contours = (
);
lib = {
};
name = W.swsh_i;
unicodes = (
);
width = 909;
};
};
};
},
{
glyphname = Adieresis.titl;
layers = (
{
components = (
{
name = A;
}
);
layerId = "1C7CD022-87C7-4E11-B656-E47B18819458";
paths = (
{
closed = 1;
nodes = (
"400 618 OFFCURVE",
"409 627 OFFCURVE",
"409 640 CURVE SMOOTH",
"409 653 OFFCURVE",
"400 662 OFFCURVE",
"387 662 CURVE SMOOTH",
"374 662 OFFCURVE",
"365 653 OFFCURVE",
"365 640 CURVE SMOOTH",
"365 627 OFFCURVE",
"374 618 OFFCURVE",
"387 618 CURVE SMOOTH"
);
},
{
closed = 1;
nodes = (
"210 618 OFFCURVE",
"219 627 OFFCURVE",
"219 640 CURVE SMOOTH",
"219 653 OFFCURVE",
"210 662 OFFCURVE",
"197 662 CURVE SMOOTH",
"184 662 OFFCURVE",
"175 653 OFFCURVE",
"175 640 CURVE SMOOTH",
"175 627 OFFCURVE",
"184 618 OFFCURVE",
"197 618 CURVE SMOOTH"
);
}
);
width = 586;
},
{
components = (
{
name = A;
}
);
layerId = "4A17B37A-CBFD-40E5-9E02-2080A0E1F76C";
paths = (
{
closed = 1;
nodes = (
"520 553 OFFCURVE",
"542 575 OFFCURVE",
"542 608 CURVE SMOOTH",
"542 640 OFFCURVE",
"520 662 OFFCURVE",
"488 662 CURVE SMOOTH",
"455 662 OFFCURVE",
"433 640 OFFCURVE",
"433 608 CURVE SMOOTH",
"433 575 OFFCURVE",
"455 553 OFFCURVE",
"488 553 CURVE SMOOTH"
);
},
{
closed = 1;
nodes = (
"206 553 OFFCURVE",
"228 575 OFFCURVE",
"228 608 CURVE SMOOTH",
"228 640 OFFCURVE",
"206 662 OFFCURVE",
"173 662 CURVE SMOOTH",
"141 662 OFFCURVE",
"119 640 OFFCURVE",
"119 608 CURVE SMOOTH",
"119 575 OFFCURVE",
"141 553 OFFCURVE",
"173 553 CURVE SMOOTH"
);
}
);
width = 660;
},
{
components = (
{
name = A;
}
);
layerId = "99EB5860-B45A-4B60-BB0B-F826C8F71D42";
paths = (
{
closed = 1;
nodes = (
"708 480 OFFCURVE",
"746 513 OFFCURVE",
"746 571 CURVE SMOOTH",
"746 629 OFFCURVE",
"708 662 OFFCURVE",
"641 662 CURVE SMOOTH",
"576 662 OFFCURVE",
"539 629 OFFCURVE",
"539 571 CURVE SMOOTH",
"539 513 OFFCURVE",
"576 480 OFFCURVE",
"641 480 CURVE SMOOTH"
);
},
{
closed = 1;
nodes = (
"111 480 OFFCURVE",
"149 513 OFFCURVE",
"149 571 CURVE SMOOTH",
"149 629 OFFCURVE",
"111 662 OFFCURVE",
"44 662 CURVE SMOOTH",
"-21 662 OFFCURVE",
"-58 629 OFFCURVE",
"-58 571 CURVE SMOOTH",
"-58 513 OFFCURVE",
"-21 480 OFFCURVE",
"44 480 CURVE SMOOTH"
);
}
);
width = 689;
}
);
leftKerningGroup = A;
rightKerningGroup = A;
},
{
glyphname = Odieresis.titl;
layers = (
{
components = (
{
name = O;
}
);
layerId = "1C7CD022-87C7-4E11-B656-E47B18819458";
paths = (
{
closed = 1;
nodes = (
"274 600 OFFCURVE",
"265 591 OFFCURVE",
"265 578 CURVE SMOOTH",
"265 565 OFFCURVE",
"274 556 OFFCURVE",
"287 556 CURVE SMOOTH",
"300 556 OFFCURVE",
"309 565 OFFCURVE",
"309 578 CURVE SMOOTH",
"309 591 OFFCURVE",
"300 600 OFFCURVE",
"287 600 CURVE SMOOTH"
);
},
{
closed = 1;
nodes = (
"414 600 OFFCURVE",
"405 591 OFFCURVE",
"405 578 CURVE SMOOTH",
"405 565 OFFCURVE",
"414 556 OFFCURVE",
"427 556 CURVE SMOOTH",
"440 556 OFFCURVE",
"449 565 OFFCURVE",
"449 578 CURVE SMOOTH",
"449 591 OFFCURVE",
"440 600 OFFCURVE",
"427 600 CURVE SMOOTH"
);
}
);
width = 714;
},
{
components = (
{
name = O;
}
);
layerId = "4A17B37A-CBFD-40E5-9E02-2080A0E1F76C";
paths = (
{
closed = 1;
nodes = (
"275 560 OFFCURVE",
"253 538 OFFCURVE",
"253 506 CURVE SMOOTH",
"253 473 OFFCURVE",
"275 451 OFFCURVE",
"307 451 CURVE SMOOTH",
"340 451 OFFCURVE",
"362 473 OFFCURVE",
"362 506 CURVE SMOOTH",
"362 538 OFFCURVE",
"340 560 OFFCURVE",
"307 560 CURVE SMOOTH"
);
},
{
closed = 1;
nodes = (
"408 560 OFFCURVE",
"386 538 OFFCURVE",
"386 506 CURVE SMOOTH",
"386 473 OFFCURVE",
"408 451 OFFCURVE",
"441 451 CURVE SMOOTH",
"473 451 OFFCURVE",
"495 473 OFFCURVE",
"495 506 CURVE SMOOTH",
"495 538 OFFCURVE",
"473 560 OFFCURVE",
"441 560 CURVE SMOOTH"
);
}
);
width = 748;
},
{
components = (
{
name = O;
}
);
layerId = "99EB5860-B45A-4B60-BB0B-F826C8F71D42";
paths = (
{
closed = 1;
nodes = (
"251 449 OFFCURVE",
"225 425 OFFCURVE",
"225 385 CURVE SMOOTH",
"225 347 OFFCURVE",
"251 323 OFFCURVE",
"295 323 CURVE SMOOTH",
"341 323 OFFCURVE",
"368 347 OFFCURVE",
"368 385 CURVE SMOOTH",
"368 425 OFFCURVE",
"341 449 OFFCURVE",
"295 449 CURVE SMOOTH"
);
},
{
closed = 1;
nodes = (
"387 449 OFFCURVE",
"361 426 OFFCURVE",
"361 387 CURVE SMOOTH",
"361 348 OFFCURVE",
"386 324 OFFCURVE",
"428 324 CURVE SMOOTH",
"476 324 OFFCURVE",
"504 346 OFFCURVE",
"504 387 CURVE SMOOTH",
"504 426 OFFCURVE",
"477 449 OFFCURVE",
"431 449 CURVE SMOOTH"
);
}
);
width = 729;
}
);
leftKerningGroup = O;
rightKerningGroup = O;
},
{
glyphname = Udieresis.titl;
layers = (
{
components = (
{
name = U;
}
);
layerId = "1C7CD022-87C7-4E11-B656-E47B18819458";
paths = (
{
closed = 1;
nodes = (
"269 618 OFFCURVE",
"278 627 OFFCURVE",
"278 640 CURVE SMOOTH",
"278 653 OFFCURVE",
"269 662 OFFCURVE",
"256 662 CURVE SMOOTH",
"243 662 OFFCURVE",
"234 653 OFFCURVE",
"234 640 CURVE SMOOTH",
"234 627 OFFCURVE",
"243 618 OFFCURVE",
"256 618 CURVE SMOOTH"
);
},
{
closed = 1;
nodes = (
"419 618 OFFCURVE",
"428 627 OFFCURVE",
"428 640 CURVE SMOOTH",
"428 653 OFFCURVE",
"419 662 OFFCURVE",
"406 662 CURVE SMOOTH",
"393 662 OFFCURVE",
"384 653 OFFCURVE",
"384 640 CURVE SMOOTH",
"384 627 OFFCURVE",
"393 618 OFFCURVE",
"406 618 CURVE SMOOTH"
);
}
);
width = 664;
},
{
components = (
{
name = U;
}
);
layerId = "4A17B37A-CBFD-40E5-9E02-2080A0E1F76C";
paths = (
{
closed = 1;
nodes = (
"315 553 OFFCURVE",
"337 575 OFFCURVE",
"337 608 CURVE SMOOTH",
"337 640 OFFCURVE",
"315 662 OFFCURVE",
"282 662 CURVE SMOOTH",
"250 662 OFFCURVE",
"228 640 OFFCURVE",
"228 608 CURVE SMOOTH",
"228 575 OFFCURVE",
"250 553 OFFCURVE",
"282 553 CURVE SMOOTH"
);
},
{
closed = 1;
nodes = (
"458 553 OFFCURVE",
"480 575 OFFCURVE",
"480 608 CURVE SMOOTH",
"480 640 OFFCURVE",
"458 662 OFFCURVE",
"426 662 CURVE SMOOTH",
"393 662 OFFCURVE",
"371 640 OFFCURVE",
"371 608 CURVE SMOOTH",
"371 575 OFFCURVE",
"393 553 OFFCURVE",
"426 553 CURVE SMOOTH"
);
}
);
width = 708;
},
{
components = (
{
name = U;
}
);
layerId = "99EB5860-B45A-4B60-BB0B-F826C8F71D42";
paths = (
{
closed = 1;
nodes = (
"341 537 OFFCURVE",
"369 559 OFFCURVE",
"369 600 CURVE SMOOTH",
"369 639 OFFCURVE",
"342 662 OFFCURVE",
"296 662 CURVE SMOOTH",
"252 662 OFFCURVE",
"226 639 OFFCURVE",
"226 600 CURVE SMOOTH",
"226 561 OFFCURVE",
"251 537 OFFCURVE",
"293 537 CURVE SMOOTH"
);
},
{
closed = 1;
nodes = (
"472 536 OFFCURVE",
"499 560 OFFCURVE",
"499 598 CURVE SMOOTH",
"499 638 OFFCURVE",
"472 662 OFFCURVE",
"426 662 CURVE SMOOTH",
"383 662 OFFCURVE",
"356 638 OFFCURVE",
"356 598 CURVE SMOOTH",
"356 560 OFFCURVE",
"382 536 OFFCURVE",
"426 536 CURVE SMOOTH"
);
}
);
width = 712;
}
);
leftKerningGroup = U;
leftMetricsKey = U;
rightKerningGroup = U;
rightMetricsKey = U;
},
{
export = 0;
glyphname = Ydieresis.titl;
layers = (
{
layerId = "1C7CD022-87C7-4E11-B656-E47B18819458";
paths = (
{
closed = 1;
nodes = (
"332 626 OFFCURVE",
"342 636 OFFCURVE",
"342 648 CURVE SMOOTH",
"342 660 OFFCURVE",
"332 670 OFFCURVE",
"320 670 CURVE SMOOTH",
"308 670 OFFCURVE",
"298 660 OFFCURVE",
"298 648 CURVE SMOOTH",
"298 636 OFFCURVE",
"308 626 OFFCURVE",
"320 626 CURVE SMOOTH"
);
},
{
closed = 1;
nodes = (
"202 626 OFFCURVE",
"212 636 OFFCURVE",
"212 648 CURVE SMOOTH",
"212 660 OFFCURVE",
"202 670 OFFCURVE",
"190 670 CURVE SMOOTH",
"178 670 OFFCURVE",
"168 660 OFFCURVE",
"168 648 CURVE SMOOTH",
"168 636 OFFCURVE",
"178 626 OFFCURVE",
"190 626 CURVE SMOOTH"
);
},
{
closed = 1;
nodes = (
"477 660 LINE",
"348 434 LINE",
"256 273 LINE",
"164 434 LINE",
"35 660 LINE",
"16 660 LINE",
"248 256 LINE",
"248 0 LINE",
"264 0 LINE",
"264 256 LINE",
"496 660 LINE"
);
}
);
width = 512;
},
{
layerId = "4A17B37A-CBFD-40E5-9E02-2080A0E1F76C";
paths = (
{
closed = 1;
nodes = (
"384 561 OFFCURVE",
"406 583 OFFCURVE",
"406 616 CURVE SMOOTH",
"406 648 OFFCURVE",
"384 670 OFFCURVE",
"352 670 CURVE SMOOTH",
"319 670 OFFCURVE",
"297 648 OFFCURVE",
"297 616 CURVE SMOOTH",
"297 583 OFFCURVE",
"319 561 OFFCURVE",
"352 561 CURVE SMOOTH"
);
},
{
closed = 1;
nodes = (
"253 561 OFFCURVE",
"275 583 OFFCURVE",
"275 616 CURVE SMOOTH",
"275 648 OFFCURVE",
"253 670 OFFCURVE",
"220 670 CURVE SMOOTH",
"188 670 OFFCURVE",
"166 648 OFFCURVE",
"166 616 CURVE SMOOTH",
"166 583 OFFCURVE",
"188 561 OFFCURVE",
"220 561 CURVE SMOOTH"
);
},
{
closed = 1;
nodes = (
"467 660 LINE",
"339 434 LINE",
"286 340 LINE",
"233 434 LINE",
"105 660 LINE",
"10 660 LINE",
"246 258 LINE",
"246 0 LINE",
"326 0 LINE",
"326 258 LINE",
"562 660 LINE"
);
}
);
width = 572;
},
{
layerId = "99EB5860-B45A-4B60-BB0B-F826C8F71D42";
paths = (
{
closed = 1;
nodes = (
"540 698 OFFCURVE",
"578 731 OFFCURVE",
"578 789 CURVE SMOOTH",
"578 847 OFFCURVE",
"540 880 OFFCURVE",
"473 880 CURVE SMOOTH",
"408 880 OFFCURVE",
"371 847 OFFCURVE",
"371 789 CURVE SMOOTH",
"371 731 OFFCURVE",
"408 698 OFFCURVE",
"473 698 CURVE SMOOTH"
);
},
{
closed = 1;
nodes = (
"303 698 OFFCURVE",
"341 731 OFFCURVE",
"341 789 CURVE SMOOTH",
"341 847 OFFCURVE",
"303 880 OFFCURVE",
"236 880 CURVE SMOOTH",
"171 880 OFFCURVE",
"134 847 OFFCURVE",
"134 789 CURVE SMOOTH",
"134 731 OFFCURVE",
"171 698 OFFCURVE",
"236 698 CURVE SMOOTH"
);
},
{
closed = 1;
nodes = (
"475 660 LINE",
"405 509 LINE",
"358 389 LINE",
"311 509 LINE",
"241 660 LINE",
"9 660 LINE",
"240 229 LINE",
"240 0 LINE",
"473 0 LINE",
"473 229 LINE",
"704 660 LINE"
);
}
);
width = 713;
},
{
associatedMasterId = "4A17B37A-CBFD-40E5-9E02-2080A0E1F76C";
layerId = "0E3AB2F4-ACFC-4D6F-A7CE-76F458009A27";
name = "{137}";
paths = (
{
closed = 1;
nodes = (
"443 613 OFFCURVE",
"471 639 OFFCURVE",
"471 682 CURVE SMOOTH",
"471 724 OFFCURVE",
"443 750 OFFCURVE",
"398 750 CURVE SMOOTH",
"353 750 OFFCURVE",
"325 724 OFFCURVE",
"325 682 CURVE SMOOTH",
"325 639 OFFCURVE",
"353 613 OFFCURVE",
"398 613 CURVE SMOOTH"
);
},
{
closed = 1;
nodes = (
"272 613 OFFCURVE",
"300 639 OFFCURVE",
"300 682 CURVE SMOOTH",
"300 724 OFFCURVE",
"272 750 OFFCURVE",
"226 750 CURVE SMOOTH",
"182 750 OFFCURVE",
"154 724 OFFCURVE",
"154 682 CURVE SMOOTH",
"154 639 OFFCURVE",
"182 613 OFFCURVE",
"226 613 CURVE SMOOTH"
);
},
{
closed = 1;
nodes = (
"470 660 LINE",
"364 463 LINE",
"314 359 LINE",
"263 463 LINE",
"157 660 LINE",
"10 660 LINE",
"244 247 LINE",
"244 0 LINE",
"382 0 LINE",
"382 247 LINE",
"616 660 LINE"
);
}
);
width = 626;
}
);
leftKerningGroup = Y;
rightKerningGroup = Y;
},
{
glyphname = a;
layers = (
{
anchors = (
{
name = bottom;
position = "{276, 0}";
},
{
name = ogonek;
position = "{536, 3}";
},
{
name = top;
position = "{276, 500}";
}
);
background = {
paths = (
{
closed = 1;
nodes = (
"385 185 LINE SMOOTH",
"385 99 OFFCURVE",
"314 60 OFFCURVE",
"237 60 CURVE SMOOTH",
"177 60 OFFCURVE",
"143 89 OFFCURVE",
"143 130 CURVE SMOOTH",
"143 173 OFFCURVE",
"174 194 OFFCURVE",
"240 208 CURVE SMOOTH",
"401 241 LINE",
"401 307 LINE",
"203 268 LINE SMOOTH",
"114 250 OFFCURVE",
"61 201 OFFCURVE",
"61 126 CURVE SMOOTH",
"61 35 OFFCURVE",
"137 -10 OFFCURVE",
"226 -10 CURVE SMOOTH",
"296 -10 OFFCURVE",
"378 24 OFFCURVE",
"403 101 CURVE",
"384 94 LINE",
"384 94 LINE",
"382 26 OFFCURVE",
"426 -7 OFFCURVE",
"484 -7 CURVE SMOOTH",
"506 -7 OFFCURVE",
"524 -3 OFFCURVE",
"536 3 CURVE",
"540 66 LINE",
"529 63 OFFCURVE",
"514 61 OFFCURVE",
"503 61 CURVE SMOOTH",
"478 61 OFFCURVE",
"465 73 OFFCURVE",
"465 97 CURVE SMOOTH",
"465 339 LINE SMOOTH",
"465 456 OFFCURVE",
"380 510 OFFCURVE",
"272 510 CURVE SMOOTH",
"165 510 OFFCURVE",
"91 460 OFFCURVE",
"64 385 CURVE",
"129 345 LINE",
"151 411 OFFCURVE",
"201 440 OFFCURVE",
"270 440 CURVE SMOOTH",
"343 440 OFFCURVE",
"385 397 OFFCURVE",
"385 323 CURVE SMOOTH"
);
}
);
};
layerId = "4A17B37A-CBFD-40E5-9E02-2080A0E1F76C";
paths = (
{
closed = 1;
nodes = (
"385 185 LINE SMOOTH",
"385 99 OFFCURVE",
"314 60 OFFCURVE",
"237 60 CURVE SMOOTH",
"177 60 OFFCURVE",
"143 89 OFFCURVE",
"143 130 CURVE SMOOTH",
"143 173 OFFCURVE",
"174 194 OFFCURVE",
"240 208 CURVE SMOOTH",
"401 241 LINE",
"401 307 LINE",
"203 268 LINE SMOOTH",
"114 250 OFFCURVE",
"61 201 OFFCURVE",
"61 126 CURVE SMOOTH",
"61 35 OFFCURVE",
"137 -10 OFFCURVE",
"226 -10 CURVE SMOOTH",
"296 -10 OFFCURVE",
"378 24 OFFCURVE",
"403 101 CURVE",
"383 104 LINE",
"383 94 LINE",
"383 26 OFFCURVE",
"426 -7 OFFCURVE",
"484 -7 CURVE SMOOTH",
"506 -7 OFFCURVE",
"524 -3 OFFCURVE",
"536 3 CURVE",
"540 66 LINE",
"529 63 OFFCURVE",
"514 61 OFFCURVE",
"503 61 CURVE SMOOTH",
"478 61 OFFCURVE",
"465 73 OFFCURVE",
"465 97 CURVE SMOOTH",
"465 339 LINE SMOOTH",
"465 456 OFFCURVE",
"380 510 OFFCURVE",
"272 510 CURVE SMOOTH",
"165 510 OFFCURVE",
"91 460 OFFCURVE",
"64 385 CURVE",
"129 345 LINE",
"151 411 OFFCURVE",
"201 440 OFFCURVE",
"270 440 CURVE SMOOTH",
"343 440 OFFCURVE",
"385 397 OFFCURVE",
"385 323 CURVE SMOOTH"
);
}
);
width = 566;
},
{
anchors = (
{
name = bottom;
position = "{276, 0}";
},
{
name = ogonek;
position = "{553, 4}";
},
{
name = top;
position = "{276, 500}";
}
);
associatedMasterId = "4A17B37A-CBFD-40E5-9E02-2080A0E1F76C";
background = {
paths = (
{
closed = 1;
nodes = (
"357 184 LINE SMOOTH",
"357 111 OFFCURVE",
"303 87 OFFCURVE",
"246 87 CURVE SMOOTH",
"211 87 OFFCURVE",
"183 105 OFFCURVE",
"183 138 CURVE SMOOTH",
"183 173 OFFCURVE",
"206 185 OFFCURVE",
"252 194 CURVE SMOOTH",
"372 218 LINE",
"373 303 LINE",
"185 265 LINE SMOOTH",
"95 247 OFFCURVE",
"46 199 OFFCURVE",
"46 125 CURVE SMOOTH",
"46 37 OFFCURVE",
"109 -10 OFFCURVE",
"211 -10 CURVE SMOOTH",
"292 -10 OFFCURVE",
"377 33 OFFCURVE",
"389 109 CURVE",
"365 105 LINE",
"365 101 LINE",
"364 27 OFFCURVE",
"417 -8 OFFCURVE",
"488 -9 CURVE SMOOTH",
"515 -9 OFFCURVE",
"537 -4 OFFCURVE",
"553 4 CURVE",
"561 89 LINE",
"552 86 OFFCURVE",
"540 84 OFFCURVE",
"529 84 CURVE SMOOTH",
"505 84 OFFCURVE",
"493 96 OFFCURVE",
"493 122 CURVE SMOOTH",
"493 325 LINE SMOOTH",
"493 448 OFFCURVE",
"405 510 OFFCURVE",
"274 510 CURVE SMOOTH",
"144 510 OFFCURVE",
"68 452 OFFCURVE",
"45 364 CURVE",
"162 328 LINE",
"179 387 OFFCURVE",
"219 410 OFFCURVE",
"268 410 CURVE SMOOTH",
"321 410 OFFCURVE",
"357 376 OFFCURVE",
"357 319 CURVE SMOOTH"
);
}
);
};
layerId = "39F793B2-4349-449C-BF11-D288AA46F75A";
name = "{137}";
paths = (
{
closed = 1;
nodes = (
"357 184 LINE SMOOTH",
"357 111 OFFCURVE",
"303 87 OFFCURVE",
"246 87 CURVE SMOOTH",
"211 87 OFFCURVE",
"183 105 OFFCURVE",
"183 138 CURVE SMOOTH",
"183 173 OFFCURVE",
"206 185 OFFCURVE",
"252 194 CURVE SMOOTH",
"372 218 LINE",
"373 303 LINE",
"185 265 LINE SMOOTH",
"95 247 OFFCURVE",
"46 199 OFFCURVE",
"46 125 CURVE SMOOTH",
"46 37 OFFCURVE",
"109 -10 OFFCURVE",
"211 -10 CURVE SMOOTH",
"292 -10 OFFCURVE",
"377 33 OFFCURVE",
"389 109 CURVE",
"365 105 LINE",
"365 101 LINE",
"365 27 OFFCURVE",
"417 -9 OFFCURVE",
"488 -9 CURVE SMOOTH",
"515 -9 OFFCURVE",
"537 -4 OFFCURVE",
"553 4 CURVE",
"561 89 LINE",
"552 86 OFFCURVE",
"540 84 OFFCURVE",
"529 84 CURVE SMOOTH",
"505 84 OFFCURVE",
"493 96 OFFCURVE",
"493 122 CURVE SMOOTH",
"493 325 LINE SMOOTH",
"493 448 OFFCURVE",
"405 510 OFFCURVE",
"274 510 CURVE SMOOTH",
"144 510 OFFCURVE",
"68 452 OFFCURVE",
"45 364 CURVE",
"162 328 LINE",
"179 387 OFFCURVE",
"219 410 OFFCURVE",
"268 410 CURVE SMOOTH",
"321 410 OFFCURVE",
"357 376 OFFCURVE",
"357 319 CURVE SMOOTH"
);
}
);
width = 574;
},
{
anchors = (
{
name = bottom;
position = "{276, 0}";
},
{
name = ogonek;
position = "{563, 5}";
},
{
name = top;
position = "{276, 500}";
}
);
associatedMasterId = "4A17B37A-CBFD-40E5-9E02-2080A0E1F76C";
background = {
paths = (
{
closed = 1;
nodes = (
"340 185 LINE SMOOTH",
"340 126 OFFCURVE",
"299 100 OFFCURVE",
"254 100 CURVE SMOOTH",
"224 100 OFFCURVE",
"200 114 OFFCURVE",
"200 144 CURVE SMOOTH",
"200 174 OFFCURVE",
"219 187 OFFCURVE",
"259 196 CURVE SMOOTH",
"355 216 LINE",
"356 306 LINE",
"167 267 LINE SMOOTH",
"74 248 OFFCURVE",
"32 200 OFFCURVE",
"32 128 CURVE SMOOTH",
"32 38 OFFCURVE",
"97 -10 OFFCURVE",
"200 -10 CURVE SMOOTH",
"288 -10 OFFCURVE",
"377 33 OFFCURVE",
"376 119 CURVE",
"357 112 LINE",
"357 106 LINE SMOOTH",
"357 28 OFFCURVE",
"412 -9 OFFCURVE",
"490 -9 CURVE SMOOTH",
"520 -9 OFFCURVE",
"544 -4 OFFCURVE",
"563 5 CURVE",
"573 102 LINE",
"565 99 OFFCURVE",
"555 98 OFFCURVE",
"544 98 CURVE SMOOTH",
"521 98 OFFCURVE",
"509 110 OFFCURVE",
"509 137 CURVE SMOOTH",
"509 320 LINE SMOOTH",
"509 444 OFFCURVE",
"424 510 OFFCURVE",
"278 510 CURVE SMOOTH",
"133 510 OFFCURVE",
"53 448 OFFCURVE",
"35 352 CURVE",
"179 318 LINE",
"191 374 OFFCURVE",
"224 393 OFFCURVE",
"268 393 CURVE SMOOTH",
"312 393 OFFCURVE",
"340 364 OFFCURVE",
"340 317 CURVE SMOOTH"
);
}
);
};
layerId = "AC38A04D-4B71-4A3F-8829-76BE9526A84A";
name = "{170}";
paths = (
{
closed = 1;
nodes = (
"340 185 LINE SMOOTH",
"340 126 OFFCURVE",
"299 100 OFFCURVE",
"254 100 CURVE SMOOTH",
"224 100 OFFCURVE",
"200 114 OFFCURVE",
"200 144 CURVE SMOOTH",
"200 174 OFFCURVE",
"219 188 OFFCURVE",
"259 196 CURVE SMOOTH",
"355 216 LINE",
"356 306 LINE",
"167 267 LINE SMOOTH",
"74 248 OFFCURVE",
"32 200 OFFCURVE",
"32 128 CURVE SMOOTH",
"32 38 OFFCURVE",
"97 -10 OFFCURVE",
"200 -10 CURVE SMOOTH",
"288 -10 OFFCURVE",
"376 32 OFFCURVE",
"376 119 CURVE",
"357 112 LINE",
"357 106 LINE SMOOTH",
"357 28 OFFCURVE",
"412 -9 OFFCURVE",
"490 -9 CURVE SMOOTH",
"520 -9 OFFCURVE",
"544 -4 OFFCURVE",
"563 5 CURVE",
"573 102 LINE",
"565 99 OFFCURVE",
"555 98 OFFCURVE",
"544 98 CURVE SMOOTH",
"521 98 OFFCURVE",
"509 110 OFFCURVE",
"509 137 CURVE SMOOTH",
"509 320 LINE SMOOTH",
"509 444 OFFCURVE",
"424 510 OFFCURVE",
"278 510 CURVE SMOOTH",
"133 510 OFFCURVE",
"53 448 OFFCURVE",
"35 352 CURVE",
"179 318 LINE",
"191 374 OFFCURVE",
"224 393 OFFCURVE",
"268 393 CURVE SMOOTH",
"312 393 OFFCURVE",
"340 364 OFFCURVE",
"340 317 CURVE SMOOTH"
);
}
);
width = 579;
},
{
anchors = (
{
name = bottom;
position = "{276, 0}";
},
{
name = bottomC;
position = "{480, 0}";
},
{
name = ogonek;
position = "{538, 0}";
},
{
name = top;
position = "{276, 500}";
}
);
associatedMasterId = "4A17B37A-CBFD-40E5-9E02-2080A0E1F76C";
layerId = "B3BF19B4-1FF2-4469-9132-0C7EDA0C784F";
name = "Aug 29 18, 22:54";
paths = (
{
closed = 1;
nodes = (
"171 510 OFFCURVE",
"92 462 OFFCURVE",
"66 388 CURVE",
"125 345 LINE",
"152 408 OFFCURVE",
"202 440 OFFCURVE",
"268 440 CURVE SMOOTH",
"343 440 OFFCURVE",
"385 396 OFFCURVE",
"385 330 CURVE SMOOTH",
"385 112 LINE",
"385 102 LINE SMOOTH",
"385 16 OFFCURVE",
"419 -10 OFFCURVE",
"478 -10 CURVE SMOOTH",
"503 -10 OFFCURVE",
"524 -5 OFFCURVE",
"538 0 CURVE",
"543 63 LINE",
"531 60 OFFCURVE",
"516 58 OFFCURVE",
"503 58 CURVE SMOOTH",
"475 58 OFFCURVE",
"465 70 OFFCURVE",
"465 94 CURVE SMOOTH",
"465 340 LINE SMOOTH",
"465 456 OFFCURVE",
"382 510 OFFCURVE",
"268 510 CURVE SMOOTH"
);
},
{
closed = 1;
nodes = (
"252 280 LINE SMOOTH",
"123 258 OFFCURVE",
"57 199 OFFCURVE",
"57 124 CURVE SMOOTH",
"57 34 OFFCURVE",
"133 -10 OFFCURVE",
"227 -10 CURVE SMOOTH",
"315 -10 OFFCURVE",
"407 42 OFFCURVE",
"407 125 CURVE",
"385 168 LINE",
"385 102 OFFCURVE",
"311 60 OFFCURVE",
"231 60 CURVE SMOOTH",
"174 60 OFFCURVE",
"140 82 OFFCURVE",
"140 124 CURVE SMOOTH",
"140 171 OFFCURVE",
"185 200 OFFCURVE",
"273 216 CURVE SMOOTH",
"431 245 LINE",
"420 308 LINE"
);
}
);
width = 566;
},
{
associatedMasterId = "4A17B37A-CBFD-40E5-9E02-2080A0E1F76C";
background = {
anchors = (
{
name = bottom;
position = "{276, 0}";
},
{
name = bottomC;
position = "{480, 0}";
},
{
name = ogonek;
position = "{538, 0}";
},
{
name = top;
position = "{276, 500}";
}
);
paths = (
{
closed = 1;
nodes = (
"171 510 OFFCURVE",
"92 462 OFFCURVE",
"66 388 CURVE",
"125 345 LINE",
"152 408 OFFCURVE",
"202 440 OFFCURVE",
"268 440 CURVE SMOOTH",
"343 440 OFFCURVE",
"385 396 OFFCURVE",
"385 330 CURVE SMOOTH",
"385 112 LINE",
"385 93 LINE SMOOTH",
"385 20 OFFCURVE",
"423 -8 OFFCURVE",
"481 -8 CURVE SMOOTH",
"506 -8 OFFCURVE",
"524 -3 OFFCURVE",
"538 2 CURVE",
"543 65 LINE",
"531 62 OFFCURVE",
"516 60 OFFCURVE",
"503 60 CURVE SMOOTH",
"475 60 OFFCURVE",
"465 72 OFFCURVE",
"465 96 CURVE SMOOTH",
"465 340 LINE SMOOTH",
"465 456 OFFCURVE",
"382 510 OFFCURVE",
"268 510 CURVE SMOOTH"
);
},
{
closed = 1;
nodes = (
"246 277 LINE SMOOTH",
"120 255 OFFCURVE",
"59 201 OFFCURVE",
"59 126 CURVE SMOOTH",
"59 35 OFFCURVE",
"135 -10 OFFCURVE",
"227 -10 CURVE SMOOTH",
"315 -10 OFFCURVE",
"407 42 OFFCURVE",
"407 125 CURVE",
"385 168 LINE",
"385 102 OFFCURVE",
"311 60 OFFCURVE",
"231 60 CURVE SMOOTH",
"176 60 OFFCURVE",
"142 83 OFFCURVE",
"142 126 CURVE SMOOTH",
"142 173 OFFCURVE",
"182 198 OFFCURVE",
"267 214 CURVE SMOOTH",
"431 245 LINE",
"420 308 LINE"
);
}
);
};
layerId = "86D7C43D-032D-43B0-8C96-0A4BB53AB554";
name = "Sep 5 18, 19:57";
paths = (
{
closed = 1;
nodes = (
"385 185 LINE SMOOTH",
"385 99 OFFCURVE",
"314 60 OFFCURVE",
"238 60 CURVE SMOOTH",
"179 60 OFFCURVE",
"145 89 OFFCURVE",
"145 130 CURVE SMOOTH",
"145 173 OFFCURVE",
"176 196 OFFCURVE",
"241 209 CURVE SMOOTH",
"401 242 LINE",
"401 306 LINE",
"200 266 LINE SMOOTH",
"114 249 OFFCURVE",
"62 201 OFFCURVE",
"62 126 CURVE SMOOTH",
"62 35 OFFCURVE",
"138 -10 OFFCURVE",
"227 -10 CURVE SMOOTH",
"296 -10 OFFCURVE",
"379 24 OFFCURVE",
"403 101 CURVE",
"386 93 LINE",
"386 93 LINE",
"384 25 OFFCURVE",
"428 -8 OFFCURVE",
"481 -8 CURVE SMOOTH",
"506 -8 OFFCURVE",
"524 -4 OFFCURVE",
"535 2 CURVE",
"539 65 LINE",
"529 62 OFFCURVE",
"514 60 OFFCURVE",
"503 60 CURVE SMOOTH",
"475 60 OFFCURVE",
"465 72 OFFCURVE",
"465 96 CURVE SMOOTH",
"465 340 LINE SMOOTH",
"465 453 OFFCURVE",
"381 510 OFFCURVE",
"273 510 CURVE SMOOTH",
"166 510 OFFCURVE",
"95 458 OFFCURVE",
"64 383 CURVE",
"129 343 LINE",
"157 409 OFFCURVE",
"199 440 OFFCURVE",
"272 440 CURVE SMOOTH",
"343 440 OFFCURVE",
"385 394 OFFCURVE",
"385 330 CURVE SMOOTH"
);
}
);
width = 566;
},
{
anchors = (
{
name = bottom;
position = "{276, 0}";
},
{
name = bottomC;
position = "{480, 0}";
},
{
name = ogonek;
position = "{538, 0}";
},
{
name = top;
position = "{276, 500}";
}
);
associatedMasterId = "4A17B37A-CBFD-40E5-9E02-2080A0E1F76C";
background = {
anchors = (
{
name = bottom;
position = "{276, 0}";
},
{
name = bottomC;
position = "{480, 0}";
},
{
name = ogonek;
position = "{538, 0}";
},
{
name = top;
position = "{276, 500}";
}
);
paths = (
{
closed = 1;
nodes = (
"171 510 OFFCURVE",
"92 462 OFFCURVE",
"66 388 CURVE",
"125 345 LINE",
"152 408 OFFCURVE",
"202 440 OFFCURVE",
"268 440 CURVE SMOOTH",
"343 440 OFFCURVE",
"385 396 OFFCURVE",
"385 330 CURVE SMOOTH",
"385 112 LINE",
"385 93 LINE SMOOTH",
"385 20 OFFCURVE",
"423 -8 OFFCURVE",
"481 -8 CURVE SMOOTH",
"506 -8 OFFCURVE",
"524 -3 OFFCURVE",
"538 2 CURVE",
"543 65 LINE",
"531 62 OFFCURVE",
"516 60 OFFCURVE",
"503 60 CURVE SMOOTH",
"475 60 OFFCURVE",
"465 72 OFFCURVE",
"465 96 CURVE SMOOTH",
"465 340 LINE SMOOTH",
"465 456 OFFCURVE",
"382 510 OFFCURVE",
"268 510 CURVE SMOOTH"
);
},
{
closed = 1;
nodes = (
"246 277 LINE SMOOTH",
"120 255 OFFCURVE",
"59 201 OFFCURVE",
"59 126 CURVE SMOOTH",
"59 35 OFFCURVE",
"135 -10 OFFCURVE",
"227 -10 CURVE SMOOTH",
"315 -10 OFFCURVE",
"407 42 OFFCURVE",
"407 125 CURVE",
"385 168 LINE",
"385 102 OFFCURVE",
"311 60 OFFCURVE",
"231 60 CURVE SMOOTH",
"176 60 OFFCURVE",
"142 83 OFFCURVE",
"142 126 CURVE SMOOTH",
"142 173 OFFCURVE",
"182 198 OFFCURVE",
"267 214 CURVE SMOOTH",
"431 245 LINE",
"420 308 LINE"
);
}
);
};
layerId = "8FE7C7F7-87CB-4D9B-ADB0-1E9219028B21";
name = Original;
paths = (
{
closed = 1;
nodes = (
"385 168 LINE SMOOTH",
"385 102 OFFCURVE",
"311 60 OFFCURVE",
"231 60 CURVE SMOOTH",
"176 60 OFFCURVE",
"142 83 OFFCURVE",
"142 126 CURVE SMOOTH",
"142 173 OFFCURVE",
"182 198 OFFCURVE",
"267 214 CURVE SMOOTH",
"401 239 LINE",
"401 305 LINE",
"246 277 LINE SMOOTH",
"120 255 OFFCURVE",
"59 201 OFFCURVE",
"59 126 CURVE SMOOTH",
"59 35 OFFCURVE",
"135 -10 OFFCURVE",
"227 -10 CURVE SMOOTH",
"298 -10 OFFCURVE",
"372 24 OFFCURVE",
"398 81 CURVE",
"386 93 LINE",
"386 93 LINE",
"385 20 OFFCURVE",
"423 -8 OFFCURVE",
"481 -8 CURVE SMOOTH",
"506 -8 OFFCURVE",
"524 -3 OFFCURVE",
"538 2 CURVE",
"543 65 LINE",
"531 62 OFFCURVE",
"516 60 OFFCURVE",
"503 60 CURVE SMOOTH",
"475 60 OFFCURVE",
"465 72 OFFCURVE",
"465 96 CURVE SMOOTH",
"465 340 LINE SMOOTH",
"465 456 OFFCURVE",
"382 510 OFFCURVE",
"268 510 CURVE SMOOTH",
"171 510 OFFCURVE",
"92 462 OFFCURVE",
"66 388 CURVE",
"125 345 LINE",
"152 408 OFFCURVE",
"202 440 OFFCURVE",
"268 440 CURVE SMOOTH",
"343 440 OFFCURVE",
"385 396 OFFCURVE",
"385 330 CURVE SMOOTH"
);
}
);
width = 566;
},
{
anchors = (
{
name = bottom;
position = "{276, 0}";
},
{
name = bottomC;
position = "{480, 0}";
},
{
name = ogonek;
position = "{536, 2}";
},
{
name = top;
position = "{276, 500}";
}
);
associatedMasterId = "4A17B37A-CBFD-40E5-9E02-2080A0E1F76C";
background = {
anchors = (
{
name = bottom;
position = "{276, 0}";
},
{
name = bottomC;
position = "{480, 0}";
},
{
name = ogonek;
position = "{538, 0}";
},
{
name = top;
position = "{276, 500}";
}
);
paths = (
{
closed = 1;
nodes = (
"171 510 OFFCURVE",
"92 462 OFFCURVE",
"66 388 CURVE",
"125 345 LINE",
"152 408 OFFCURVE",
"202 440 OFFCURVE",
"268 440 CURVE SMOOTH",
"343 440 OFFCURVE",
"385 396 OFFCURVE",
"385 330 CURVE SMOOTH",
"385 112 LINE",
"385 93 LINE SMOOTH",
"385 20 OFFCURVE",
"423 -8 OFFCURVE",
"481 -8 CURVE SMOOTH",
"506 -8 OFFCURVE",
"524 -3 OFFCURVE",
"538 2 CURVE",
"543 65 LINE",
"531 62 OFFCURVE",
"516 60 OFFCURVE",
"503 60 CURVE SMOOTH",
"475 60 OFFCURVE",
"465 72 OFFCURVE",
"465 96 CURVE SMOOTH",
"465 340 LINE SMOOTH",
"465 456 OFFCURVE",
"382 510 OFFCURVE",
"268 510 CURVE SMOOTH"
);
},
{
closed = 1;
nodes = (
"246 277 LINE SMOOTH",
"120 255 OFFCURVE",
"59 201 OFFCURVE",
"59 126 CURVE SMOOTH",
"59 35 OFFCURVE",
"135 -10 OFFCURVE",
"227 -10 CURVE SMOOTH",
"315 -10 OFFCURVE",
"407 42 OFFCURVE",
"407 125 CURVE",
"385 168 LINE",
"385 102 OFFCURVE",
"311 60 OFFCURVE",
"231 60 CURVE SMOOTH",
"176 60 OFFCURVE",
"142 83 OFFCURVE",
"142 126 CURVE SMOOTH",
"142 173 OFFCURVE",
"182 198 OFFCURVE",
"267 214 CURVE SMOOTH",
"431 245 LINE",
"420 308 LINE"
);
}
);
};
layerId = "016B423F-D8CE-4245-8EFC-72607B8EFF62";
name = "Sep 9 18, 13:05";
paths = (
{
closed = 1;
nodes = (
"385 185 LINE SMOOTH",
"385 99 OFFCURVE",
"314 60 OFFCURVE",
"237 60 CURVE SMOOTH",
"180 60 OFFCURVE",
"146 89 OFFCURVE",
"146 130 CURVE SMOOTH",
"146 173 OFFCURVE",
"177 195 OFFCURVE",
"240 208 CURVE SMOOTH",
"401 240 LINE",
"401 307 LINE",
"199 267 LINE SMOOTH",
"115 250 OFFCURVE",
"64 201 OFFCURVE",
"64 126 CURVE SMOOTH",
"64 35 OFFCURVE",
"140 -10 OFFCURVE",
"226 -10 CURVE SMOOTH",
"296 -10 OFFCURVE",
"378 24 OFFCURVE",
"403 101 CURVE",
"384 93 LINE",
"384 93 LINE",
"382 25 OFFCURVE",
"426 -7 OFFCURVE",
"484 -8 CURVE SMOOTH",
"506 -8 OFFCURVE",
"524 -4 OFFCURVE",
"536 2 CURVE",
"540 65 LINE",
"529 62 OFFCURVE",
"514 60 OFFCURVE",
"503 60 CURVE SMOOTH",
"478 60 OFFCURVE",
"465 72 OFFCURVE",
"465 96 CURVE SMOOTH",
"465 333 LINE SMOOTH",
"465 456 OFFCURVE",
"372 510 OFFCURVE",
"267 510 CURVE SMOOTH",
"171 510 OFFCURVE",
"96 458 OFFCURVE",
"65 377 CURVE",
"130 337 LINE",
"156 410 OFFCURVE",
"209 440 OFFCURVE",
"269 440 CURVE SMOOTH",
"337 440 OFFCURVE",
"385 397 OFFCURVE",
"385 323 CURVE SMOOTH"
);
}
);
width = 566;
},
{
anchors = (
{
name = bottom;
position = "{242, 0}";
},
{
name = bottomC;
position = "{465, 0}";
},
{
name = ogonek;
position = "{515, -1}";
},
{
name = top;
position = "{242, 500}";
}
);
associatedMasterId = "1C7CD022-87C7-4E11-B656-E47B18819458";
background = {
anchors = (
{
name = bottom;
position = "{242, 0}";
},
{
name = bottomC;
position = "{465, 0}";
},
{
name = ogonek;
position = "{515, -1}";
},
{
name = top;
position = "{242, 500}";
}
);
paths = (
{
closed = 1;
nodes = (
"148 510 OFFCURVE",
"87 471 OFFCURVE",
"56 388 CURVE",
"69 378 LINE",
"99 462 OFFCURVE",
"157 496 OFFCURVE",
"248 496 CURVE SMOOTH",
"351 496 OFFCURVE",
"407 441 OFFCURVE",
"407 348 CURVE SMOOTH",
"407 113 LINE",
"407 84 LINE SMOOTH",
"407 6 OFFCURVE",
"448 -8 OFFCURVE",
"479 -8 CURVE SMOOTH",
"495 -8 OFFCURVE",
"506 -5 OFFCURVE",
"515 1 CURVE",
"516 15 LINE",
"507 8 OFFCURVE",
"493 6 OFFCURVE",
"478 6 CURVE SMOOTH",
"445 6 OFFCURVE",
"423 29 OFFCURVE",
"423 78 CURVE SMOOTH",
"423 348 LINE SMOOTH",
"423 453 OFFCURVE",
"361 510 OFFCURVE",
"248 510 CURVE SMOOTH"
);
},
{
closed = 1;
nodes = (
"230 253 LINE SMOOTH",
"100 229 OFFCURVE",
"46 187 OFFCURVE",
"46 108 CURVE SMOOTH",
"46 34 OFFCURVE",
"104 -10 OFFCURVE",
"202 -10 CURVE SMOOTH",
"300 -10 OFFCURVE",
"415 37 OFFCURVE",
"415 140 CURVE",
"407 151 LINE",
"407 47 OFFCURVE",
"285 4 OFFCURVE",
"207 4 CURVE SMOOTH",
"116 4 OFFCURVE",
"62 43 OFFCURVE",
"62 108 CURVE SMOOTH",
"62 175 OFFCURVE",
"110 217 OFFCURVE",
"241 241 CURVE SMOOTH",
"414 273 LINE",
"412 287 LINE"
);
}
);
};
layerId = "F95D770E-86EF-4D25-951F-39F88D4FC678";
name = Original;
paths = (
{
closed = 1;
nodes = (
"407 151 LINE SMOOTH",
"407 47 OFFCURVE",
"285 4 OFFCURVE",
"207 4 CURVE SMOOTH",
"116 4 OFFCURVE",
"62 43 OFFCURVE",
"62 108 CURVE SMOOTH",
"62 175 OFFCURVE",
"110 217 OFFCURVE",
"241 241 CURVE SMOOTH",
"410 273 LINE",
"410 287 LINE",
"230 253 LINE SMOOTH",
"100 229 OFFCURVE",
"46 187 OFFCURVE",
"46 108 CURVE SMOOTH",
"46 34 OFFCURVE",
"104 -10 OFFCURVE",
"202 -10 CURVE SMOOTH",
"295 -10 OFFCURVE",
"402 32 OFFCURVE",
"414 126 CURVE",
"407 110 LINE",
"407 84 LINE SMOOTH",
"407 6 OFFCURVE",
"448 -8 OFFCURVE",
"479 -8 CURVE SMOOTH",
"495 -8 OFFCURVE",
"506 -5 OFFCURVE",
"515 1 CURVE",
"516 15 LINE",
"507 8 OFFCURVE",
"493 6 OFFCURVE",
"478 6 CURVE SMOOTH",
"445 6 OFFCURVE",
"423 29 OFFCURVE",
"423 78 CURVE SMOOTH",
"423 348 LINE SMOOTH",
"423 453 OFFCURVE",
"361 510 OFFCURVE",
"248 510 CURVE SMOOTH",
"148 510 OFFCURVE",
"87 471 OFFCURVE",
"56 388 CURVE",
"69 378 LINE",
"99 462 OFFCURVE",
"157 496 OFFCURVE",
"248 496 CURVE SMOOTH",
"351 496 OFFCURVE",
"407 441 OFFCURVE",
"407 348 CURVE SMOOTH"
);
}
);
width = 517;
},
{
anchors = (
{
name = bottom;
position = "{242, 0}";
},
{
name = ogonek;
position = "{515, 0}";
},
{
name = top;
position = "{242, 500}";
}
);
layerId = "1C7CD022-87C7-4E11-B656-E47B18819458";
paths = (
{
closed = 1;
nodes = (
"407 165 LINE SMOOTH",
"407 51 OFFCURVE",
"290 4 OFFCURVE",
"211 4 CURVE SMOOTH",
"116 4 OFFCURVE",
"65 43 OFFCURVE",
"65 114 CURVE SMOOTH",
"65 177 OFFCURVE",
"111 215 OFFCURVE",
"204 233 CURVE SMOOTH",
"410 273 LINE",
"410 287 LINE",
"193 245 LINE SMOOTH",
"101 227 OFFCURVE",
"49 187 OFFCURVE",
"49 112 CURVE SMOOTH",
"49 34 OFFCURVE",
"108 -10 OFFCURVE",
"209 -10 CURVE SMOOTH",
"300 -10 OFFCURVE",
"400 37 OFFCURVE",
"414 136 CURVE",
"407 130 LINE",
"407 84 LINE SMOOTH",
"407 6 OFFCURVE",
"448 -8 OFFCURVE",
"479 -8 CURVE SMOOTH",
"495 -8 OFFCURVE",
"506 -5 OFFCURVE",
"515 0 CURVE",
"516 14 LINE",
"507 8 OFFCURVE",
"496 6 OFFCURVE",
"482 6 CURVE SMOOTH",
"443 6 OFFCURVE",
"423 29 OFFCURVE",
"423 78 CURVE SMOOTH",
"423 336 LINE SMOOTH",
"423 446 OFFCURVE",
"360 510 OFFCURVE",
"248 510 CURVE SMOOTH",
"155 510 OFFCURVE",
"87 471 OFFCURVE",
"56 388 CURVE",
"69 378 LINE",
"99 462 OFFCURVE",
"164 496 OFFCURVE",
"248 496 CURVE SMOOTH",
"350 496 OFFCURVE",
"407 434 OFFCURVE",
"407 336 CURVE SMOOTH"
);
}
);
width = 517;
},
{
anchors = (
{
name = bottom;
position = "{277, 0}";
},
{
name = bottomC;
position = "{520, 0}";
},
{
name = ogonek;
position = "{579, 10}";
},
{
name = top;
position = "{277, 500}";
}
);
associatedMasterId = "99EB5860-B45A-4B60-BB0B-F826C8F71D42";
background = {
anchors = (
{
name = bottom;
position = "{277, 0}";
},
{
name = bottomC;
position = "{520, 0}";
},
{
name = ogonek;
position = "{579, 10}";
},
{
name = top;
position = "{277, 500}";
}
);
paths = (
{
closed = 1;
nodes = (
"115 510 OFFCURVE",
"32 441 OFFCURVE",
"22 329 CURVE",
"212 300 LINE",
"214 349 OFFCURVE",
"237 361 OFFCURVE",
"265 361 CURVE SMOOTH",
"294 361 OFFCURVE",
"310 343 OFFCURVE",
"310 312 CURVE SMOOTH",
"310 112 LINE",
"342 117 LINE",
"342 32 OFFCURVE",
"407 -10 OFFCURVE",
"499 -10 CURVE SMOOTH",
"530 -10 OFFCURVE",
"555 -4 OFFCURVE",
"579 10 CURVE",
"597 127 LINE",
"591 124 OFFCURVE",
"583 123 OFFCURVE",
"572 123 CURVE SMOOTH",
"550 123 OFFCURVE",
"538 136 OFFCURVE",
"538 164 CURVE SMOOTH",
"538 304 LINE SMOOTH",
"538 441 OFFCURVE",
"457 510 OFFCURVE",
"278 510 CURVE SMOOTH"
);
},
{
closed = 1;
nodes = (
"208 272 LINE SMOOTH",
"66 243 OFFCURVE",
"16 194 OFFCURVE",
"16 112 CURVE SMOOTH",
"16 35 OFFCURVE",
"71 -10 OFFCURVE",
"174 -10 CURVE SMOOTH",
"316 -10 OFFCURVE",
"372 74 OFFCURVE",
"372 164 CURVE",
"310 164 LINE",
"310 131 OFFCURVE",
"291 115 OFFCURVE",
"267 115 CURVE SMOOTH",
"248 115 OFFCURVE",
"232 126 OFFCURVE",
"232 150 CURVE SMOOTH",
"232 175 OFFCURVE",
"249 194 OFFCURVE",
"277 202 CURVE SMOOTH",
"360 226 LINE",
"342 299 LINE"
);
}
);
};
layerId = "D30407C5-AD5C-435E-A18E-FAD32CA88CDD";
name = Original;
paths = (
{
closed = 1;
nodes = (
"310 164 LINE SMOOTH",
"310 131 OFFCURVE",
"291 115 OFFCURVE",
"267 115 CURVE SMOOTH",
"248 115 OFFCURVE",
"232 126 OFFCURVE",
"232 150 CURVE SMOOTH",
"232 175 OFFCURVE",
"249 194 OFFCURVE",
"277 202 CURVE SMOOTH",
"325 217 LINE",
"326 296 LINE",
"208 272 LINE SMOOTH",
"66 243 OFFCURVE",
"16 194 OFFCURVE",
"16 112 CURVE SMOOTH",
"16 35 OFFCURVE",
"71 -10 OFFCURVE",
"174 -10 CURVE SMOOTH",
"296 -10 OFFCURVE",
"355 51 OFFCURVE",
"368 127 CURVE",
"342 127 LINE",
"342 117 LINE SMOOTH",
"342 31 OFFCURVE",
"407 -10 OFFCURVE",
"499 -10 CURVE SMOOTH",
"530 -10 OFFCURVE",
"555 -4 OFFCURVE",
"579 10 CURVE",
"597 127 LINE",
"591 124 OFFCURVE",
"583 123 OFFCURVE",
"572 123 CURVE SMOOTH",
"550 123 OFFCURVE",
"538 136 OFFCURVE",
"538 164 CURVE SMOOTH",
"538 304 LINE SMOOTH",
"538 441 OFFCURVE",
"457 510 OFFCURVE",
"278 510 CURVE SMOOTH",
"115 510 OFFCURVE",
"32 441 OFFCURVE",
"22 329 CURVE",
"212 300 LINE",
"214 349 OFFCURVE",
"237 361 OFFCURVE",
"265 361 CURVE SMOOTH",
"294 361 OFFCURVE",
"310 343 OFFCURVE",
"310 312 CURVE SMOOTH"
);
}
);
width = 588;
},
{
anchors = (
{
name = bottom;
position = "{284, 0}";
},
{
name = ogonek;
position = "{584, 8}";
},
{
name = top;
position = "{277, 500}";
}
);
layerId = "99EB5860-B45A-4B60-BB0B-F826C8F71D42";
paths = (
{
closed = 1;
nodes = (
"310 167 LINE SMOOTH",
"310 137 OFFCURVE",
"292 121 OFFCURVE",
"270 121 CURVE SMOOTH",
"246 121 OFFCURVE",
"232 136 OFFCURVE",
"232 157 CURVE SMOOTH",
"232 180 OFFCURVE",
"243 195 OFFCURVE",
"271 202 CURVE SMOOTH",
"325 215 LINE",
"326 296 LINE",
"152 260 LINE SMOOTH",
"64 242 OFFCURVE",
"16 196 OFFCURVE",
"16 123 CURVE SMOOTH",
"16 40 OFFCURVE",
"74 -10 OFFCURVE",
"180 -10 CURVE SMOOTH",
"279 -10 OFFCURVE",
"353 49 OFFCURVE",
"356 125 CURVE",
"334 125 LINE",
"334 115 LINE SMOOTH",
"334 29 OFFCURVE",
"400 -10 OFFCURVE",
"495 -10 CURVE SMOOTH",
"530 -10 OFFCURVE",
"559 -4 OFFCURVE",
"584 8 CURVE",
"594 126 LINE",
"590 124 OFFCURVE",
"584 123 OFFCURVE",
"577 123 CURVE SMOOTH",
"550 123 OFFCURVE",
"538 137 OFFCURVE",
"538 164 CURVE SMOOTH",
"538 319 LINE SMOOTH",
"538 433 OFFCURVE",
"456 510 OFFCURVE",
"283 510 CURVE SMOOTH",
"118 510 OFFCURVE",
"31 440 OFFCURVE",
"22 329 CURVE",
"216 301 LINE",
"219 349 OFFCURVE",
"239 361 OFFCURVE",
"267 361 CURVE SMOOTH",
"296 361 OFFCURVE",
"310 343 OFFCURVE",
"310 312 CURVE SMOOTH"
);
}
);
width = 588;
}
);
leftKerningGroup = a;
rightKerningGroup = a;
unicode = 0061;
},
{
glyphname = ae;
layers = (
{
anchors = (
{
name = bottom;
position = "{432, 0}";
},
{
name = ogonek;
position = "{697, 0}";
},
{
name = top;
position = "{448, 500}";
}
);
hints = (
{
horizontal = 1;
place = "{-10, 70}";
type = Stem;
},
{
horizontal = 1;
place = "{510, 70}";
type = Stem;
}
);
layerId = "4A17B37A-CBFD-40E5-9E02-2080A0E1F76C";
leftMetricsKey = "=a";
paths = (
{
closed = 1;
nodes = (
"326 -10 OFFCURVE",
"427 46 OFFCURVE",
"438 137 CURVE",
"413 130 LINE",
"447 38 OFFCURVE",
"527 -10 OFFCURVE",
"627 -10 CURVE SMOOTH",
"717 -10 OFFCURVE",
"788 33 OFFCURVE",
"826 101 CURVE",
"763 138 LINE",
"735 90 OFFCURVE",
"691 60 OFFCURVE",
"625 60 CURVE SMOOTH",
"537 60 OFFCURVE",
"473 122 OFFCURVE",
"466 227 CURVE",
"466 227 LINE",
"832 227 LINE",
"834 241 OFFCURVE",
"836 260 OFFCURVE",
"836 283 CURVE SMOOTH",
"836 411 OFFCURVE",
"755 510 OFFCURVE",
"622 510 CURVE SMOOTH",
"535 510 OFFCURVE",
"463 468 OFFCURVE",
"425 397 CURVE",
"449 394 LINE",
"425 475 OFFCURVE",
"355 510 OFFCURVE",
"267 510 CURVE SMOOTH",
"168 510 OFFCURVE",
"95 460 OFFCURVE",
"64 385 CURVE",
"129 345 LINE",
"155 411 OFFCURVE",
"206 440 OFFCURVE",
"269 440 CURVE SMOOTH",
"337 440 OFFCURVE",
"385 397 OFFCURVE",
"385 323 CURVE SMOOTH",
"385 304 LINE",
"199 267 LINE SMOOTH",
"112 250 OFFCURVE",
"61 201 OFFCURVE",
"61 126 CURVE SMOOTH",
"61 35 OFFCURVE",
"137 -10 OFFCURVE",
"230 -10 CURVE SMOOTH"
);
},
{
closed = 1;
nodes = (
"177 60 OFFCURVE",
"143 89 OFFCURVE",
"143 130 CURVE SMOOTH",
"143 173 OFFCURVE",
"174 195 OFFCURVE",
"240 208 CURVE SMOOTH",
"385 237 LINE",
"385 185 LINE SMOOTH",
"385 99 OFFCURVE",
"314 60 OFFCURVE",
"237 60 CURVE SMOOTH"
);
},
{
closed = 1;
nodes = (
"483 388 OFFCURVE",
"539 440 OFFCURVE",
"620 440 CURVE SMOOTH",
"697 440 OFFCURVE",
"753 389 OFFCURVE",
"756 298 CURVE",
"469 298 LINE"
);
}
);
width = 895;
},
{
anchors = (
{
name = bottom;
position = "{420, 0}";
},
{
name = ogonek;
position = "{718, 10}";
},
{
name = top;
position = "{420, 500}";
}
);
hints = (
{
horizontal = 1;
origin = "{0, 48}";
target = "{1, 10}";
type = Stem;
},
{
horizontal = 1;
origin = "{0, 30}";
target = "{0, 37}";
type = Stem;
}
);
layerId = "99EB5860-B45A-4B60-BB0B-F826C8F71D42";
leftMetricsKey = "=a";
rightMetricsKey = "=e";
paths = (
{
closed = 1;
nodes = (
"347 -10 OFFCURVE",
"405 64 OFFCURVE",
"425 146 CURVE",
"382 160 LINE",
"406 49 OFFCURVE",
"484 -10 OFFCURVE",
"611 -10 CURVE SMOOTH",
"721 -10 OFFCURVE",
"821 37 OFFCURVE",
"844 136 CURVE",
"659 186 LINE",
"652 159 OFFCURVE",
"643 143 OFFCURVE",
"609 143 CURVE SMOOTH",
"570 143 OFFCURVE",
"540 154 OFFCURVE",
"531 206 CURVE",
"531 206 LINE",
"848 206 LINE",
"851 219 OFFCURVE",
"853 244 OFFCURVE",
"853 266 CURVE SMOOTH",
"853 412 OFFCURVE",
"768 510 OFFCURVE",
"606 510 CURVE SMOOTH",
"516 510 OFFCURVE",
"445 469 OFFCURVE",
"404 396 CURVE",
"479 402 LINE",
"446 471 OFFCURVE",
"374 510 OFFCURVE",
"267 510 CURVE SMOOTH",
"120 510 OFFCURVE",
"33 429 OFFCURVE",
"22 330 CURVE",
"216 301 LINE",
"220 349 OFFCURVE",
"239 361 OFFCURVE",
"265 361 CURVE SMOOTH",
"297 361 OFFCURVE",
"311 343 OFFCURVE",
"311 309 CURVE SMOOTH",
"311 292 LINE",
"152 260 LINE SMOOTH",
"67 243 OFFCURVE",
"16 200 OFFCURVE",
"16 129 CURVE SMOOTH",
"16 41 OFFCURVE",
"73 -10 OFFCURVE",
"197 -10 CURVE SMOOTH"
);
},
{
closed = 1;
nodes = (
"248 121 OFFCURVE",
"232 135 OFFCURVE",
"232 156 CURVE SMOOTH",
"232 185 OFFCURVE",
"247 196 OFFCURVE",
"272 202 CURVE SMOOTH",
"311 212 LINE",
"311 172 LINE SMOOTH",
"311 133 OFFCURVE",
"290 121 OFFCURVE",
"268 121 CURVE SMOOTH"
);
},
{
closed = 1;
nodes = (
"536 341 OFFCURVE",
"554 358 OFFCURVE",
"588 358 CURVE SMOOTH",
"621 358 OFFCURVE",
"634 335 OFFCURVE",
"638 291 CURVE",
"530 291 LINE"
);
}
);
width = 870;
},
{
anchors = (
{
name = bottom;
position = "{421, 0}";
},
{
name = ogonek;
position = "{700, 0}";
},
{
name = top;
position = "{427, 500}";
}
);
hints = (
{
horizontal = 1;
place = "{-10, 14}";
type = Stem;
},
{
horizontal = 1;
place = "{510, 14}";
type = Stem;
},
{
horizontal = 1;
place = "{-10, 14}";
type = Stem;
},
{
horizontal = 1;
place = "{510, 14}";
type = Stem;
}
);
layerId = "1C7CD022-87C7-4E11-B656-E47B18819458";
leftMetricsKey = "=a";
paths = (
{
closed = 1;
nodes = (
"300 -10 OFFCURVE",
"414 34 OFFCURVE",
"420 168 CURVE",
"418 167 LINE",
"436 58 OFFCURVE",
"519 -10 OFFCURVE",
"632 -10 CURVE SMOOTH",
"714 -10 OFFCURVE",
"790 35 OFFCURVE",
"825 109 CURVE",
"812 116 LINE",
"779 46 OFFCURVE",
"707 4 OFFCURVE",
"632 4 CURVE SMOOTH",
"496 4 OFFCURVE",
"422 96 OFFCURVE",
"422 250 CURVE SMOOTH",
"422 271 LINE",
"824 271 LINE",
"824 273 OFFCURVE",
"824 276 OFFCURVE",
"824 278 CURVE SMOOTH",
"824 416 OFFCURVE",
"750 510 OFFCURVE",
"624 510 CURVE SMOOTH",
"526 510 OFFCURVE",
"439 442 OFFCURVE",
"419 335 CURVE",
"422 332 LINE",
"422 450 OFFCURVE",
"355 510 OFFCURVE",
"248 510 CURVE SMOOTH",
"155 510 OFFCURVE",
"87 471 OFFCURVE",
"56 388 CURVE",
"69 378 LINE",
"99 462 OFFCURVE",
"164 496 OFFCURVE",
"248 496 CURVE SMOOTH",
"350 496 OFFCURVE",
"407 434 OFFCURVE",
"407 336 CURVE SMOOTH",
"407 284 LINE",
"193 245 LINE SMOOTH",
"101 228 OFFCURVE",
"49 187 OFFCURVE",
"49 112 CURVE SMOOTH",
"49 34 OFFCURVE",
"108 -10 OFFCURVE",
"209 -10 CURVE SMOOTH"
);
},
{
closed = 1;
nodes = (
"116 4 OFFCURVE",
"65 43 OFFCURVE",
"65 114 CURVE SMOOTH",
"65 177 OFFCURVE",
"111 216 OFFCURVE",
"204 233 CURVE SMOOTH",
"407 270 LINE",
"407 175 LINE SMOOTH",
"407 51 OFFCURVE",
"299 4 OFFCURVE",
"211 4 CURVE SMOOTH"
);
},
{
closed = 1;
nodes = (
"436 418 OFFCURVE",
"516 496 OFFCURVE",
"624 496 CURVE SMOOTH",
"743 496 OFFCURVE",
"807 404 OFFCURVE",
"810 286 CURVE",
"424 286 LINE"
);
}
);
width = 873;
},
{
anchors = (
{
name = bottom;
position = "{428, 0}";
},
{
name = ogonek;
position = "{706, 4}";
},
{
name = top;
position = "{438, 500}";
}
);
associatedMasterId = "4A17B37A-CBFD-40E5-9E02-2080A0E1F76C";
background = {
paths = (
{
closed = 1;
nodes = (
"358 184 LINE SMOOTH",
"358 111 OFFCURVE",
"304 87 OFFCURVE",
"247 87 CURVE SMOOTH",
"212 87 OFFCURVE",
"184 105 OFFCURVE",
"184 138 CURVE SMOOTH",
"184 173 OFFCURVE",
"207 185 OFFCURVE",
"253 194 CURVE SMOOTH",
"373 218 LINE",
"374 303 LINE",
"186 265 LINE SMOOTH",
"96 247 OFFCURVE",
"47 199 OFFCURVE",
"47 125 CURVE SMOOTH",
"47 37 OFFCURVE",
"110 -10 OFFCURVE",
"212 -10 CURVE SMOOTH",
"293 -10 OFFCURVE",
"378 33 OFFCURVE",
"390 109 CURVE",
"366 105 LINE",
"366 101 LINE",
"365 27 OFFCURVE",
"418 -8 OFFCURVE",
"489 -9 CURVE SMOOTH",
"516 -9 OFFCURVE",
"538 -4 OFFCURVE",
"554 4 CURVE",
"562 89 LINE",
"553 86 OFFCURVE",
"541 84 OFFCURVE",
"530 84 CURVE SMOOTH",
"506 84 OFFCURVE",
"494 96 OFFCURVE",
"494 122 CURVE SMOOTH",
"494 325 LINE SMOOTH",
"494 448 OFFCURVE",
"406 510 OFFCURVE",
"275 510 CURVE SMOOTH",
"145 510 OFFCURVE",
"69 452 OFFCURVE",
"46 364 CURVE",
"163 328 LINE",
"180 387 OFFCURVE",
"220 410 OFFCURVE",
"269 410 CURVE SMOOTH",
"322 410 OFFCURVE",
"358 376 OFFCURVE",
"358 319 CURVE SMOOTH"
);
}
);
};
color = -1;
hints = (
{
horizontal = 1;
place = "{-10, 2000}";
type = Stem;
},
{
horizontal = 1;
place = "{510, 2000}";
type = Stem;
}
);
layerId = "08C36151-20F1-4A6D-9954-A937105BC4A0";
leftMetricsKey = "=a";
name = "{137}";
paths = (
{
closed = 1;
nodes = (
"335 -10 OFFCURVE",
"420 53 OFFCURVE",
"434 140 CURVE",
"402 141 LINE",
"432 42 OFFCURVE",
"512 -10 OFFCURVE",
"622 -10 CURVE SMOOTH",
"720 -10 OFFCURVE",
"802 35 OFFCURVE",
"834 114 CURVE",
"724 156 LINE",
"704 116 OFFCURVE",
"674 92 OFFCURVE",
"620 92 CURVE SMOOTH",
"551 92 OFFCURVE",
"492 127 OFFCURVE",
"492 207 CURVE",
"492 207 LINE",
"839 207 LINE",
"841 233 OFFCURVE",
"843 254 OFFCURVE",
"843 277 CURVE SMOOTH",
"843 411 OFFCURVE",
"761 510 OFFCURVE",
"617 510 CURVE SMOOTH",
"529 510 OFFCURVE",
"457 468 OFFCURVE",
"418 397 CURVE",
"461 397 LINE",
"434 473 OFFCURVE",
"363 510 OFFCURVE",
"268 510 CURVE SMOOTH",
"151 510 OFFCURVE",
"61 448 OFFCURVE",
"49 364 CURVE",
"163 328 LINE",
"181 387 OFFCURVE",
"220 410 OFFCURVE",
"268 410 CURVE SMOOTH",
"323 410 OFFCURVE",
"358 376 OFFCURVE",
"358 318 CURVE SMOOTH",
"358 299 LINE",
"182 264 LINE SMOOTH",
"96 247 OFFCURVE",
"45 201 OFFCURVE",
"45 127 CURVE SMOOTH",
"45 37 OFFCURVE",
"114 -10 OFFCURVE",
"218 -10 CURVE SMOOTH"
);
},
{
closed = 1;
nodes = (
"205 87 OFFCURVE",
"185 110 OFFCURVE",
"185 138 CURVE SMOOTH",
"185 171 OFFCURVE",
"203 184 OFFCURVE",
"253 194 CURVE SMOOTH",
"358 216 LINE",
"358 180 LINE SMOOTH",
"358 115 OFFCURVE",
"306 87 OFFCURVE",
"250 87 CURVE SMOOTH"
);
},
{
closed = 1;
nodes = (
"504 370 OFFCURVE",
"546 409 OFFCURVE",
"609 409 CURVE SMOOTH",
"669 409 OFFCURVE",
"709 368 OFFCURVE",
"712 302 CURVE",
"493 302 LINE"
);
}
);
width = 887;
},
{
anchors = (
{
name = bottom;
position = "{423, 0}";
},
{
name = ogonek;
position = "{708, 6}";
},
{
name = top;
position = "{429, 500}";
}
);
associatedMasterId = "4A17B37A-CBFD-40E5-9E02-2080A0E1F76C";
background = {
paths = (
{
closed = 1;
nodes = (
"338 185 LINE SMOOTH",
"338 126 OFFCURVE",
"297 100 OFFCURVE",
"252 100 CURVE SMOOTH",
"222 100 OFFCURVE",
"198 114 OFFCURVE",
"198 144 CURVE SMOOTH",
"198 174 OFFCURVE",
"217 187 OFFCURVE",
"257 196 CURVE SMOOTH",
"353 216 LINE",
"354 306 LINE",
"165 267 LINE SMOOTH",
"72 248 OFFCURVE",
"30 200 OFFCURVE",
"30 128 CURVE SMOOTH",
"30 38 OFFCURVE",
"95 -10 OFFCURVE",
"198 -10 CURVE SMOOTH",
"286 -10 OFFCURVE",
"375 33 OFFCURVE",
"374 119 CURVE",
"355 112 LINE",
"355 106 LINE SMOOTH",
"355 28 OFFCURVE",
"410 -9 OFFCURVE",
"488 -9 CURVE SMOOTH",
"518 -9 OFFCURVE",
"542 -4 OFFCURVE",
"561 5 CURVE",
"571 102 LINE",
"563 99 OFFCURVE",
"553 98 OFFCURVE",
"542 98 CURVE SMOOTH",
"519 98 OFFCURVE",
"507 110 OFFCURVE",
"507 137 CURVE SMOOTH",
"507 320 LINE SMOOTH",
"507 444 OFFCURVE",
"422 510 OFFCURVE",
"276 510 CURVE SMOOTH",
"131 510 OFFCURVE",
"51 448 OFFCURVE",
"33 352 CURVE",
"177 318 LINE",
"189 374 OFFCURVE",
"222 393 OFFCURVE",
"266 393 CURVE SMOOTH",
"310 393 OFFCURVE",
"338 364 OFFCURVE",
"338 317 CURVE SMOOTH"
);
}
);
};
color = -1;
hints = (
{
horizontal = 1;
origin = "{0, 48}";
target = "{1, 10}";
type = Stem;
},
{
horizontal = 1;
origin = "{0, 30}";
target = "{0, 37}";
type = Stem;
}
);
layerId = "040D3D04-6514-4AA9-BC9D-955D66750147";
leftMetricsKey = "=a";
name = "{170}";
paths = (
{
closed = 1;
nodes = (
"337 -10 OFFCURVE",
"412 57 OFFCURVE",
"428 142 CURVE",
"392 148 LINE",
"420 44 OFFCURVE",
"499 -10 OFFCURVE",
"615 -10 CURVE SMOOTH",
"718 -10 OFFCURVE",
"806 36 OFFCURVE",
"835 122 CURVE",
"698 167 LINE",
"683 131 OFFCURVE",
"660 110 OFFCURVE",
"613 110 CURVE SMOOTH",
"555 110 OFFCURVE",
"503 144 OFFCURVE",
"503 207 CURVE",
"503 207 LINE",
"840 207 LINE",
"842 228 OFFCURVE",
"844 250 OFFCURVE",
"844 273 CURVE SMOOTH",
"844 411 OFFCURVE",
"761 510 OFFCURVE",
"610 510 CURVE SMOOTH",
"522 510 OFFCURVE",
"450 468 OFFCURVE",
"410 397 CURVE",
"465 399 LINE",
"447 474 OFFCURVE",
"374 510 OFFCURVE",
"265 510 CURVE SMOOTH",
"137 510 OFFCURVE",
"45 441 OFFCURVE",
"34 352 CURVE",
"179 318 LINE",
"192 374 OFFCURVE",
"224 393 OFFCURVE",
"264 393 CURVE SMOOTH",
"311 393 OFFCURVE",
"339 364 OFFCURVE",
"339 315 CURVE SMOOTH",
"339 302 LINE",
"169 268 LINE SMOOTH",
"83 251 OFFCURVE",
"32 201 OFFCURVE",
"32 128 CURVE SMOOTH",
"32 38 OFFCURVE",
"97 -10 OFFCURVE",
"208 -10 CURVE SMOOTH"
);
},
{
closed = 1;
nodes = (
"218 99 OFFCURVE",
"199 119 OFFCURVE",
"199 144 CURVE SMOOTH",
"199 176 OFFCURVE",
"216 188 OFFCURVE",
"257 197 CURVE SMOOTH",
"339 215 LINE",
"339 186 LINE SMOOTH",
"339 130 OFFCURVE",
"298 99 OFFCURVE",
"254 99 CURVE SMOOTH"
);
},
{
closed = 1;
nodes = (
"513 360 OFFCURVE",
"546 391 OFFCURVE",
"599 391 CURVE SMOOTH",
"649 391 OFFCURVE",
"680 356 OFFCURVE",
"683 298 CURVE",
"503 298 LINE"
);
}
);
width = 878;
}
);
leftKerningGroup = a;
rightKerningGroup = e;
rightMetricsKey = "=e";
unicode = 00E6;
},
{
glyphname = b;
layers = (
{
anchors = (
{
name = bottom;
position = "{322, 0}";
},
{
name = ogonek;
position = "{445, 17}";
},
{
name = top;
position = "{133, 700}";
}
);
layerId = "4A17B37A-CBFD-40E5-9E02-2080A0E1F76C";
paths = (
{
closed = 1;
nodes = (
"462 -10 OFFCURVE",
"567 87 OFFCURVE",
"567 250 CURVE SMOOTH",
"567 413 OFFCURVE",
"463 510 OFFCURVE",
"339 510 CURVE SMOOTH",
"257 510 OFFCURVE",
"190 465 OFFCURVE",
"163 402 CURVE",
"173 387 LINE",
"173 730 LINE",
"93 730 LINE",
"93 0 LINE",
"163 0 LINE",
"170 122 LINE",
"159 108 LINE",
"184 39 OFFCURVE",
"253 -10 OFFCURVE",
"338 -10 CURVE SMOOTH"
);
},
{
closed = 1;
nodes = (
"236 60 OFFCURVE",
"173 133 OFFCURVE",
"173 248 CURVE SMOOTH",
"173 363 OFFCURVE",
"237 440 OFFCURVE",
"331 440 CURVE SMOOTH",
"430 440 OFFCURVE",
"487 365 OFFCURVE",
"487 250 CURVE SMOOTH",
"487 135 OFFCURVE",
"429 60 OFFCURVE",
"330 60 CURVE SMOOTH"
);
}
);
width = 627;
},
{
anchors = (
{
name = bottom;
position = "{317, 0}";
},
{
name = ogonek;
position = "{493, 10}";
},
{
name = top;
position = "{154, 700}";
}
);
layerId = "99EB5860-B45A-4B60-BB0B-F826C8F71D42";
leftMetricsKey = "=n";
rightMetricsKey = "=o+5";
paths = (
{
closed = 1;
nodes = (
"534 -10 OFFCURVE",
"602 84 OFFCURVE",
"602 247 CURVE SMOOTH",
"602 414 OFFCURVE",
"532 510 OFFCURVE",
"420 510 CURVE SMOOTH",
"313 510 OFFCURVE",
"262 439 OFFCURVE",
"249 343 CURVE",
"269 313 LINE",
"269 700 LINE",
"39 700 LINE",
"39 0 LINE",
"241 0 LINE",
"252 220 LINE",
"233 194 LINE",
"239 77 OFFCURVE",
"304 -10 OFFCURVE",
"411 -10 CURVE SMOOTH"
);
},
{
closed = 1;
nodes = (
"287 151 OFFCURVE",
"269 181 OFFCURVE",
"269 250 CURVE SMOOTH",
"269 314 OFFCURVE",
"284 348 OFFCURVE",
"318 348 CURVE SMOOTH",
"350 348 OFFCURVE",
"370 329 OFFCURVE",
"370 250 CURVE SMOOTH",
"370 171 OFFCURVE",
"350 151 OFFCURVE",
"318 151 CURVE SMOOTH"
);
}
);
width = 627;
},
{
anchors = (
{
name = bottom;
position = "{302, 0}";
},
{
name = ogonek;
position = "{422, 21}";
},
{
name = top;
position = "{93, 680}";
}
);
layerId = "1C7CD022-87C7-4E11-B656-E47B18819458";
paths = (
{
closed = 1;
nodes = (
"445 -10 OFFCURVE",
"534 87 OFFCURVE",
"534 250 CURVE SMOOTH",
"534 413 OFFCURVE",
"445 510 OFFCURVE",
"308 510 CURVE SMOOTH",
"206 510 OFFCURVE",
"125 450 OFFCURVE",
"100 345 CURVE",
"101 343 LINE",
"101 730 LINE",
"85 730 LINE",
"85 0 LINE",
"101 0 LINE",
"101 159 LINE",
"100 157 LINE",
"123 51 OFFCURVE",
"205 -10 OFFCURVE",
"308 -10 CURVE SMOOTH"
);
},
{
closed = 1;
nodes = (
"189 4 OFFCURVE",
"101 99 OFFCURVE",
"101 250 CURVE SMOOTH",
"101 401 OFFCURVE",
"188 496 OFFCURVE",
"305 496 CURVE SMOOTH",
"434 496 OFFCURVE",
"518 405 OFFCURVE",
"518 250 CURVE SMOOTH",
"518 95 OFFCURVE",
"434 4 OFFCURVE",
"305 4 CURVE SMOOTH"
);
}
);
width = 585;
},
{
anchors = (
{
name = bottom;
position = "{317, 0}";
},
{
name = bottomC;
position = "{441, 0}";
},
{
name = ogonek;
position = "{493, 10}";
},
{
name = top;
position = "{154, 700}";
}
);
associatedMasterId = "99EB5860-B45A-4B60-BB0B-F826C8F71D42";
background = {
anchors = (
{
name = bottom;
position = "{317, 0}";
},
{
name = bottomC;
position = "{441, 0}";
},
{
name = ogonek;
position = "{493, 10}";
},
{
name = top;
position = "{154, 700}";
}
);
components = (
{
name = bowl;
transform = "{-1, 0, 0, 1, 682, 0}";
}
);
paths = (
{
closed = 1;
nodes = (
"39 700 LINE",
"39 219 LINE",
"39 0 LINE",
"241 0 LINE",
"249 162 LINE",
"269 219 LINE",
"269 700 LINE"
);
}
);
};
components = (
{
name = bowl;
transform = "{-1, 0, 0, 1, 682, 0}";
}
);
layerId = "D58476E6-AD6B-404B-A7F5-2A4ED70E34B7";
leftMetricsKey = "=n";
rightMetricsKey = "=o+5";
name = "Sep 11 18, 12:29";
paths = (
{
closed = 1;
nodes = (
"39 700 LINE",
"39 219 LINE",
"39 0 LINE",
"241 0 LINE",
"249 162 LINE",
"269 219 LINE",
"269 700 LINE"
);
}
);
width = 627;
},
{
anchors = (
{
name = bottom;
position = "{302, 0}";
},
{
name = bottomC;
position = "{302, 0}";
},
{
name = ogonek;
position = "{422, 21}";
},
{
name = top;
position = "{93, 680}";
}
);
associatedMasterId = "1C7CD022-87C7-4E11-B656-E47B18819458";
background = {
anchors = (
{
name = bottom;
position = "{302, 0}";
},
{
name = bottomC;
position = "{302, 0}";
},
{
name = ogonek;
position = "{422, 21}";
},
{
name = top;
position = "{93, 680}";
}
);
components = (
{
alignment = -1;
name = bowl;
transform = "{-1, 0, 0, 1, 658, 0}";
}
);
paths = (
{
closed = 1;
nodes = (
"85 730 LINE",
"85 101 LINE",
"85 0 LINE",
"101 0 LINE",
"101 173 LINE",
"101 176 LINE",
"101 730 LINE"
);
}
);
};
components = (
{
alignment = -1;
name = bowl;
transform = "{-1, 0, 0, 1, 658, 0}";
}
);
layerId = "7072D784-7453-4C80-96B7-487F1B918A62";
name = "Sep 11 18, 12:29";
paths = (
{
closed = 1;
nodes = (
"85 730 LINE",
"85 101 LINE",
"85 0 LINE",
"101 0 LINE",
"101 173 LINE",
"101 176 LINE",
"101 730 LINE"
);
}
);
width = 585;
},
{
anchors = (
{
name = bottom;
position = "{322, 0}";
},
{
name = bottomC;
position = "{322, 0}";
},
{
name = ogonek;
position = "{445, 17}";
},
{
name = top;
position = "{133, 700}";
}
);
associatedMasterId = "4A17B37A-CBFD-40E5-9E02-2080A0E1F76C";
background = {
anchors = (
{
name = bottom;
position = "{322, 0}";
},
{
name = bottomC;
position = "{322, 0}";
},
{
name = ogonek;
position = "{445, 17}";
},
{
name = top;
position = "{133, 700}";
}
);
components = (
{
name = bowl;
transform = "{-1, 0, 0, 1, 647, 0}";
}
);
paths = (
{
closed = 1;
nodes = (
"93 730 LINE",
"93 117 LINE",
"93 0 LINE",
"163 0 LINE",
"170 118 LINE",
"173 166 LINE",
"173 730 LINE"
);
}
);
};
components = (
{
name = bowl;
transform = "{-1, 0, 0, 1, 647, 0}";
}
);
layerId = "9F32043B-EB67-43DB-8982-944DC571E521";
name = "Sep 11 18, 12:29";
paths = (
{
closed = 1;
nodes = (
"93 730 LINE",
"93 117 LINE",
"93 0 LINE",
"163 0 LINE",
"170 118 LINE",
"173 166 LINE",
"173 730 LINE"
);
}
);
width = 630;
},
{
anchors = (
{
name = bottom;
position = "{302, 0}";
},
{
name = bottomC;
position = "{302, 0}";
},
{
name = ogonek;
position = "{422, 21}";
},
{
name = top;
position = "{93, 680}";
}
);
associatedMasterId = "1C7CD022-87C7-4E11-B656-E47B18819458";
background = {
anchors = (
{
name = bottom;
position = "{302, 0}";
},
{
name = bottomC;
position = "{302, 0}";
},
{
name = ogonek;
position = "{422, 21}";
},
{
name = top;
position = "{93, 680}";
}
);
components = (
{
alignment = -1;
name = bowl;
transform = "{-1, 0, 0, 1, 658, 0}";
}
);
paths = (
{
closed = 1;
nodes = (
"85 730 LINE",
"85 101 LINE",
"85 0 LINE",
"101 0 LINE",
"101 173 LINE",
"101 176 LINE",
"101 730 LINE"
);
}
);
};
components = (
{
alignment = -1;
name = bowl;
transform = "{-1, 0, 0, 1, 658, 0}";
}
);
layerId = "F5C0498F-6FEA-4A3B-927C-A6801EE9B1A3";
name = "Sep 11 18, 12:43";
paths = (
{
closed = 1;
nodes = (
"85 730 LINE",
"85 0 LINE",
"101 0 LINE",
"101 730 LINE"
);
}
);
width = 585;
}
);
leftKerningGroup = h;
leftMetricsKey = n;
rightKerningGroup = o;
rightMetricsKey = p;
unicode = 0062;
},
